<svg viewBox="0 0 24 24" fill="none" xmlns="http://www.w3.org/2000/svg">
<g clip-path="url(#clip0_644_1261)">
<path d="M18.6609 23.0383C17.3686 24.3048 15.9577 24.1048 14.5995 23.5049C13.1621 22.8917 11.8435 22.865 10.3271 23.5049C8.42821 24.3315 7.42604 24.0915 6.292 23.0383C-0.142988 16.3325 0.806437 6.12045 8.11173 5.74716C9.8919 5.84048 11.1314 6.7337 12.1732 6.81369C13.7292 6.49373 15.2192 5.57385 16.8807 5.69384C18.8719 5.85382 20.3751 6.65371 21.3641 8.09353C17.2499 10.5866 18.2257 16.0659 21.9971 17.599C21.2454 19.5987 20.2696 21.5852 18.6477 23.0516L18.6609 23.0383ZM12.0413 5.66717C11.8435 2.69421 14.2302 0.24119 16.973 0.0012207C17.3554 3.44079 13.8874 6.00046 12.0413 5.66717Z" fill="white"/>
</g>
<defs>
<clipPath id="clip0_644_1261">
<rect width="24" height="24" fill="white"/>
</clipPath>
</defs>
</svg>
