<svg viewBox="0 0 25 24" fill="currentColor" xmlns="http://www.w3.org/2000/svg">
<path d="M9.91699 22V18H15.917V22M8.91699 6H8.92699M16.917 6H16.927M12.917 6H12.927M12.917 10H12.927M12.917 14H12.927M16.917 10H16.927M16.917 14H16.927M8.91699 10H8.92699M8.91699 14H8.92699M6.91699 2H18.917C20.0216 2 20.917 2.89543 20.917 4V20C20.917 21.1046 20.0216 22 18.917 22H6.91699C5.81242 22 4.91699 21.1046 4.91699 20V4C4.91699 2.89543 5.81242 2 6.91699 2Z" stroke="currentColor"  stroke-width="2" stroke-linecap="round" stroke-linejoin="round"/>
</svg>
