<svg width="24" height="24" viewBox="0 0 24 24" fill="none" xmlns="http://www.w3.org/2000/svg">
<path d="M10.1508 7.84947L13.7758 11.4745C13.8591 11.5578 13.9174 11.6411 13.9508 11.7245C13.9841 11.8078 14.0008 11.8995 14.0008 11.9995C14.0008 12.0995 13.9841 12.1911 13.9508 12.2745C13.9174 12.3578 13.8591 12.4411 13.7758 12.5245L10.1508 16.1495C10.1008 16.1995 10.0464 16.2368 9.98778 16.2615C9.92911 16.2861 9.86678 16.2988 9.80078 16.2995C9.66745 16.2995 9.55078 16.2535 9.45078 16.1615C9.35078 16.0695 9.30078 15.9488 9.30078 15.7995V8.19947C9.30078 8.04947 9.35078 7.92847 9.45078 7.83647C9.55078 7.74447 9.66745 7.6988 9.80078 7.69947C9.83411 7.69947 9.95078 7.74947 10.1508 7.84947Z" fill="#222222"/>
</svg>
