<svg viewBox="0 0 16 16" fill="none" xmlns="http://www.w3.org/2000/svg">
<path d="M4.52155 11.0283L2.15267 13.3159C2.05728 13.4081 2.00239 13.5343 2.00008 13.6669C1.99776 13.7995 2.04821 13.9275 2.14033 14.0229C2.23245 14.1183 2.35869 14.1732 2.49127 14.1755C2.62386 14.1778 2.75194 14.1274 2.84733 14.0353L5.21621 11.7477L5.18746 13.3689C5.18515 13.5016 5.23563 13.6297 5.3278 13.7252C5.41997 13.8206 5.54627 13.8755 5.67894 13.8778C5.8116 13.8802 5.93975 13.8297 6.03519 13.7375C6.13063 13.6453 6.18555 13.519 6.18787 13.3864L6.23723 10.5584C6.23841 10.4927 6.22664 10.4274 6.20257 10.3662C6.17851 10.3051 6.14263 10.2493 6.09698 10.202C6.05134 10.1548 5.99682 10.117 5.93656 10.0908C5.87629 10.0646 5.81146 10.0505 5.74576 10.0494L2.91776 10.0001C2.7851 9.99776 2.65695 10.0482 2.56151 10.1404C2.46607 10.2326 2.41115 10.3589 2.40883 10.4915C2.40652 10.6242 2.457 10.7524 2.54916 10.8478C2.64133 10.9432 2.76764 10.9982 2.9003 11.0005L4.52155 11.0283Z" fill="#787878"/>
<path d="M13.3287 5.1817L11.7072 5.18214L14.0358 2.85355C14.1296 2.75979 14.1823 2.63261 14.1823 2.5C14.1823 2.36739 14.1296 2.24022 14.0358 2.14645C13.942 2.05268 13.8149 2 13.6823 2C13.5497 2 13.4225 2.05268 13.3287 2.14645L11.0001 4.47504L11.0006 2.85355C11.0006 2.72087 10.9479 2.59362 10.854 2.4998C10.7602 2.40598 10.633 2.35328 10.5003 2.35328C10.3676 2.35328 10.2403 2.40598 10.1465 2.4998C10.0527 2.59362 10 2.72087 10 2.85355V5.68198C9.99996 5.74769 10.0129 5.81276 10.038 5.87347C10.0631 5.93419 10.1 5.98935 10.1464 6.03581C10.1929 6.08227 10.2481 6.11912 10.3088 6.14425C10.3695 6.16938 10.4346 6.1823 10.5003 6.18226L13.3287 6.18226C13.4614 6.18226 13.5886 6.12955 13.6825 6.03573C13.7763 5.94191 13.829 5.81466 13.829 5.68198C13.829 5.5493 13.7763 5.42205 13.6825 5.32823C13.5886 5.23441 13.4614 5.1817 13.3287 5.1817Z" fill="#787878"/>
<path d="M6.18226 5.68198V2.85355C6.18226 2.72087 6.12955 2.59362 6.03573 2.4998C5.94191 2.40598 5.81466 2.35328 5.68198 2.35328C5.5493 2.35328 5.42205 2.40598 5.32823 2.4998C5.23441 2.59362 5.1817 2.72087 5.1817 2.85355L5.18215 4.47504L2.85355 2.14645C2.75979 2.05268 2.63261 2 2.5 2C2.36739 2 2.24022 2.05268 2.14645 2.14645C2.05268 2.24022 2 2.36739 2 2.5C2 2.63261 2.05268 2.75979 2.14645 2.85355L4.47504 5.18214L2.85355 5.1817C2.72087 5.1817 2.59362 5.23441 2.4998 5.32823C2.40598 5.42205 2.35328 5.5493 2.35328 5.68198C2.35328 5.81466 2.40598 5.94191 2.4998 6.03573C2.59362 6.12955 2.72087 6.18226 2.85356 6.18226L5.68198 6.18226C5.74769 6.1823 5.81276 6.16938 5.87347 6.14425C5.93419 6.11912 5.98935 6.08227 6.03581 6.03581C6.08227 5.98935 6.11912 5.93419 6.14425 5.87347C6.16938 5.81276 6.1823 5.74769 6.18226 5.68198Z" fill="#787878"/>
<path d="M10.5003 13.829C10.4346 13.829 10.3695 13.8161 10.3088 13.791C10.2481 13.7658 10.1929 13.729 10.1464 13.6825C10.1 13.6361 10.0631 13.5809 10.038 13.5202C10.0129 13.4595 9.99996 13.3944 10 13.3287V10.5003C9.99996 10.4346 10.0129 10.3695 10.038 10.3088C10.0631 10.2481 10.1 10.1929 10.1464 10.1464C10.1929 10.1 10.2481 10.0631 10.3088 10.038C10.3695 10.0129 10.4346 9.99996 10.5003 10L13.3287 10C13.4614 10 13.5886 10.0527 13.6825 10.1465C13.7763 10.2403 13.829 10.3676 13.829 10.5003C13.829 10.633 13.7763 10.7602 13.6825 10.854C13.5886 10.9478 13.4614 11.0006 13.3287 11.0006L11.7072 11.0001L14.0358 13.3287C14.1296 13.4225 14.1823 13.5497 14.1823 13.6823C14.1823 13.8149 14.1296 13.942 14.0358 14.0358C13.942 14.1296 13.8149 14.1823 13.6823 14.1823C13.5497 14.1823 13.4225 14.1296 13.3287 14.0358L11.0001 11.7072L11.0006 13.3287C11.0006 13.3944 10.9877 13.4595 10.9625 13.5202C10.9374 13.5809 10.9006 13.6361 10.8541 13.6825C10.8076 13.729 10.7525 13.7658 10.6918 13.791C10.6311 13.8161 10.566 13.829 10.5003 13.829Z" fill="#787878"/>
</svg>
