<svg width="64" height="64" viewBox="0 0 64 64" fill="none" xmlns="http://www.w3.org/2000/svg">
<g clip-path="url(#clip0_927_5983)">
<rect width="64" height="64" rx="8" fill="white"/>
<path d="M5 59H32V5H5V59ZM21.875 11.75H28.625V18.5H21.875V11.75ZM21.875 25.25H28.625V32H21.875V25.25ZM21.875 38.75H28.625V45.5H21.875V38.75ZM8.375 11.75H15.125V18.5H8.375V11.75ZM8.375 25.25H15.125V32H8.375V25.25ZM8.375 38.75H15.125V45.5H8.375V38.75ZM35.375 21.875H59V25.25H35.375V21.875ZM35.375 59H42.125V45.5H52.25V59H59V28.625H35.375V59Z" fill="#519C2C"/>
<path d="M40.9727 49.3521C42.6966 51.1168 45.0276 52.2144 47.543 52.2144C50.0584 52.2143 52.3893 51.1169 54.1133 49.3521L54.5811 48.8735L55.25 48.9019C59.8269 49.0959 63.6709 52.5135 63.6709 57.0288V58.3433C63.6707 60.2761 62.1038 61.8433 60.1709 61.8433H31.4141V57.0288C31.4141 52.5084 35.3006 49.0958 39.835 48.9019L40.5039 48.8726L40.9727 49.3521ZM47.543 32.3286C52.5626 32.3288 56.3564 36.8919 56.3564 42.1147C56.3562 47.3374 52.5625 51.8997 47.543 51.8999C42.5233 51.8999 38.7287 47.3375 38.7285 42.1147C38.7285 36.8918 42.5232 32.3286 47.543 32.3286Z" fill="#519C2C" stroke="white" stroke-width="3"/>
<path d="M51.5 60.5L49.286 56.4508C49.3873 56.427 49.4805 56.3719 49.5551 56.2917C49.6296 56.2115 49.6825 56.1096 49.7076 55.9975L49.9835 54.7656C50.0038 54.6748 50.0054 54.5801 49.9881 54.4885C49.9707 54.397 49.9349 54.311 49.8834 54.2372C49.8318 54.1634 49.7659 54.1037 49.6906 54.0626C49.6153 54.0215 49.5326 54.0001 49.4488 54H45.5517C45.4678 54 45.3851 54.0214 45.3098 54.0624C45.2345 54.1034 45.1685 54.1631 45.1169 54.2368C45.0653 54.3106 45.0295 54.3964 45.012 54.488C44.9946 54.5795 44.9961 54.6742 45.0164 54.765L45.2923 55.9969C45.3173 56.1091 45.3701 56.2112 45.4447 56.2914C45.5192 56.3717 45.6125 56.427 45.7139 56.4508L43.5 60.5H51.5Z" fill="white"/>
</g>
<defs>
<clipPath id="clip0_927_5983">
<rect width="64" height="64" rx="8" fill="white"/>
</clipPath>
</defs>
</svg>
