<svg viewBox="0 0 24 24" fill="currentColor" xmlns="http://www.w3.org/2000/svg">
<path d="M7.84947 10.1508L11.4745 13.7758C11.5578 13.8591 11.6411 13.9174 11.7245 13.9508C11.8078 13.9841 11.8995 14.0008 11.9995 14.0008C12.0995 14.0008 12.1911 13.9841 12.2745 13.9508C12.3578 13.9174 12.4411 13.8591 12.5245 13.7758L16.1495 10.1508C16.1995 10.1008 16.2368 10.0464 16.2615 9.98778C16.2861 9.92911 16.2988 9.86678 16.2995 9.80078C16.2995 9.66745 16.2535 9.55078 16.1615 9.45078C16.0695 9.35078 15.9488 9.30078 15.7995 9.30078H8.19947C8.04947 9.30078 7.92847 9.35078 7.83647 9.45078C7.74447 9.55078 7.6988 9.66745 7.69947 9.80078C7.69947 9.83411 7.74947 9.95078 7.84947 10.1508Z" fill="currentColor"/>
</svg>
