<svg width="16" height="16" viewBox="0 0 16 16" fill="none" xmlns="http://www.w3.org/2000/svg">
<path d="M2.18925 9.47168C2.29689 9.11957 2.67015 8.92166 3.02226 9.0293C3.3741 9.13708 3.57219 9.50937 3.46464 9.86133C3.31416 10.3536 3.30946 10.8791 3.45097 11.374C3.59249 11.8689 3.87454 12.3121 4.2625 12.6504C4.65045 12.9887 5.12793 13.2074 5.6375 13.2803C6.14693 13.3531 6.66647 13.2774 7.13359 13.0615C7.46772 12.907 7.86377 13.0527 8.01835 13.3867C8.17288 13.7209 8.02736 14.117 7.69316 14.2715C6.99233 14.5955 6.21236 14.7099 5.44804 14.6006C4.68382 14.4912 3.96739 14.1627 3.38554 13.6553C2.80371 13.1478 2.38098 12.4826 2.16875 11.7402C1.95657 10.9979 1.96359 10.21 2.18925 9.47168ZM4.94609 2.79102C5.1513 2.64424 5.42609 2.62421 5.65312 2.74805L9.32011 4.74805C9.48475 4.83794 9.60381 4.99353 9.64824 5.17578C9.6926 5.35798 9.65827 5.55054 9.55351 5.70605L8.36015 7.47559C8.44691 7.53966 8.53236 7.60649 8.61406 7.67773C8.71315 7.76417 8.80571 7.85697 8.89531 7.95215L12.5564 7.34277C12.7661 7.30789 12.9796 7.37492 13.1316 7.52344C13.2836 7.67198 13.356 7.88435 13.326 8.09473L12.659 12.7607C12.6069 13.1252 12.2695 13.3782 11.9051 13.3262C11.5406 13.2741 11.2876 12.9368 11.3396 12.5723L11.8768 8.80664L9.68144 9.17285C9.73778 9.30992 9.78985 9.44936 9.83085 9.59277C10.043 10.335 10.036 11.123 9.81035 11.8613C9.70271 12.2134 9.32945 12.4113 8.97734 12.3037C8.62542 12.196 8.42735 11.8237 8.53496 11.4717C8.68541 10.9794 8.69013 10.4539 8.54863 9.95898C8.4071 9.4641 8.12503 9.02093 7.7371 8.68262C7.34914 8.34431 6.87167 8.12561 6.3621 8.05273C5.8527 7.97989 5.33313 8.05562 4.86601 8.27148C4.53182 8.42601 4.13479 8.28048 3.98027 7.94629C3.826 7.61228 3.97164 7.21614 4.30546 7.06152C5.00624 6.7375 5.7863 6.6232 6.55058 6.73242C6.75772 6.76204 6.96159 6.80816 7.15996 6.86914L8.03789 5.56738L5.45195 4.15723L3.80546 5.80469C3.54511 6.06504 3.12245 6.06504 2.8621 5.80469C2.60208 5.5444 2.60208 5.12259 2.8621 4.8623L4.8621 2.8623L4.94609 2.79102ZM9.33281 2.66699C9.33281 1.93061 9.93041 1.33301 10.6668 1.33301C11.403 1.33318 11.9998 1.93072 11.9998 2.66699C11.9996 3.40311 11.4029 3.99982 10.6668 4C9.93052 4 9.33298 3.40322 9.33281 2.66699Z" fill="#787878"/>
</svg>
