<svg width="24" height="24" viewBox="0 0 24 24" fill="none" xmlns="http://www.w3.org/2000/svg">
<path d="M19 21V20C19 17.2423 16.7577 15 14 15H10C7.24228 15 5 17.2423 5 20V21C5 21.5523 4.55228 22 4 22C3.44772 22 3 21.5523 3 21V20C3 16.1377 6.13772 13 10 13H14C17.8623 13 21 16.1377 21 20V21C21 21.5523 20.5523 22 20 22C19.4477 22 19 21.5523 19 21ZM15 7C15 5.34228 13.6577 4 12 4C10.3423 4 9 5.34228 9 7C9 8.65772 10.3423 10 12 10C13.6577 10 15 8.65772 15 7ZM17 7C17 9.76228 14.7623 12 12 12C9.23772 12 7 9.76228 7 7C7 4.23772 9.23772 2 12 2C14.7623 2 17 4.23772 17 7Z" fill="#222222"/>
</svg>
