<svg width="16" height="16" viewBox="0 0 16 16" fill="currentColor" xmlns="http://www.w3.org/2000/svg">
<path d="M11.8007 5.13357C11.9958 4.94567 12.2338 4.80817 12.494 4.73298C12.7543 4.65778 13.0289 4.64716 13.2942 4.70202C13.5595 4.75688 13.8074 4.87558 14.0165 5.04783C14.2255 5.22008 14.3895 5.4407 14.4941 5.69058C14.5987 5.94047 14.6408 6.21208 14.6168 6.4819C14.5928 6.75173 14.5033 7.01163 14.3562 7.23911C14.2092 7.4666 14.0088 7.65479 13.7726 7.78742C13.5364 7.92004 13.2714 7.99309 13.0007 8.00023H1.33398" stroke="currentColor" stroke-width="1.33333" stroke-linecap="round" stroke-linejoin="round"/>
<path d="M6.40065 3.06686C6.5551 2.90933 6.74623 2.79259 6.9569 2.7271C7.16758 2.6616 7.39121 2.64941 7.60775 2.69161C7.82429 2.73381 8.02698 2.82908 8.19765 2.96889C8.36831 3.10869 8.50162 3.28866 8.58562 3.49266C8.66962 3.69666 8.70168 3.91831 8.67894 4.13775C8.65621 4.3572 8.57937 4.56757 8.45533 4.75001C8.33128 4.93245 8.16391 5.08126 7.9682 5.1831C7.7725 5.28494 7.55458 5.33663 7.33398 5.33353H1.33398" stroke="currentColor" stroke-width="1.33333" stroke-linecap="round" stroke-linejoin="round"/>
<path d="M8.40065 12.9333C8.5551 13.0908 8.74623 13.2076 8.9569 13.2731C9.16758 13.3386 9.39121 13.3508 9.60775 13.3086C9.82429 13.2664 10.027 13.1711 10.1976 13.0313C10.3683 12.8915 10.5016 12.7115 10.5856 12.5075C10.6696 12.3035 10.7017 12.0818 10.6789 11.8624C10.6562 11.643 10.5794 11.4326 10.4553 11.2502C10.3313 11.0677 10.1639 10.9189 9.9682 10.8171C9.7725 10.7152 9.55458 10.6635 9.33398 10.6666H1.33398" stroke="currentColor" stroke-width="1.33333" stroke-linecap="round" stroke-linejoin="round"/>
</svg>
