<svg fill="none" xmlns="http://www.w3.org/2000/svg">
<rect width="36" height="36" rx="8" fill="white"/>
<path d="M17 23.25C17 22.9185 17.1317 22.6005 17.3661 22.3661C17.6005 22.1317 17.9185 22 18.25 22C18.5815 22 18.8995 22.1317 19.1339 22.3661C19.3683 22.6005 19.5 22.9185 19.5 23.25C19.5 23.5815 19.3683 23.8995 19.1339 24.1339C18.8995 24.3683 18.5815 24.5 18.25 24.5C17.9185 24.5 17.6005 24.3683 17.3661 24.1339C17.1317 23.8995 17 23.5815 17 23.25ZM17 18.25C17 17.9185 17.1317 17.6005 17.3661 17.3661C17.6005 17.1317 17.9185 17 18.25 17C18.5815 17 18.8995 17.1317 19.1339 17.3661C19.3683 17.6005 19.5 17.9185 19.5 18.25C19.5 18.5815 19.3683 18.8995 19.1339 19.1339C18.8995 19.3683 18.5815 19.5 18.25 19.5C17.9185 19.5 17.6005 19.3683 17.3661 19.1339C17.1317 18.8995 17 18.5815 17 18.25ZM17 13.25C17 12.9185 17.1317 12.6005 17.3661 12.3661C17.6005 12.1317 17.9185 12 18.25 12C18.5815 12 18.8995 12.1317 19.1339 12.3661C19.3683 12.6005 19.5 12.9185 19.5 13.25C19.5 13.5815 19.3683 13.8995 19.1339 14.1339C18.8995 14.3683 18.5815 14.5 18.25 14.5C17.9185 14.5 17.6005 14.3683 17.3661 14.1339C17.1317 13.8995 17 13.5815 17 13.25Z" fill="#222222"/>
</svg>
