<svg viewBox="0 0 16 16" fill="currentColor" xmlns="http://www.w3.org/2000/svg">
<path d="M14.6665 8.09513C14.9821 8.09513 15.2379 8.35097 15.2379 8.66656C15.2379 8.98215 14.9821 9.23799 14.6665 9.23799H13.9046V13.4285H14.6665C14.9821 13.4285 15.2379 13.6843 15.2379 13.9999C15.2379 14.3155 14.9821 14.5713 14.6665 14.5713H1.33315C1.01756 14.5713 0.761719 14.3155 0.761719 13.9999C0.761719 13.6843 1.01756 13.4285 1.33315 13.4285H2.09505V9.23799H1.33315C1.01756 9.23799 0.761719 8.98215 0.761719 8.66656C0.761719 8.35097 1.01756 8.09513 1.33315 8.09513H14.6665ZM11.2379 13.4285H12.7617V9.23799H11.2379V13.4285ZM8.57124 13.4285H10.0951V9.23799H8.57124V13.4285ZM5.90458 13.4285H7.42839V9.23799H5.90458V13.4285ZM3.23791 13.4285H4.76172V9.23799H3.23791V13.4285ZM12.5712 6.66656C12.5712 6.98215 12.3154 7.23799 11.9998 7.23799C11.6842 7.23799 11.4284 6.98215 11.4284 6.66656V2.57132H4.57124V6.66656C4.57124 6.98215 4.31541 7.23799 3.99981 7.23799C3.68422 7.23799 3.42839 6.98215 3.42839 6.66656V2.40019C3.42839 2.14255 3.53043 1.89487 3.71261 1.71269L3.78404 1.6487C3.95693 1.50697 4.17459 1.42847 4.40011 1.42847H11.5995C11.825 1.42847 12.0427 1.50697 12.2156 1.6487L12.287 1.71269L12.351 1.78412C12.4927 1.95701 12.5712 2.17468 12.5712 2.40019V6.66656Z" stroke="currentColor"/>
<path d="M0.601562 13.9998C0.601638 13.5959 0.929162 13.2684 1.33301 13.2683L1.33315 13.4285C1.01756 13.4285 0.761719 13.6843 0.761719 13.9999C0.761719 14.3155 1.01756 14.5713 1.33315 14.5713H14.6665C14.9427 14.5713 15.1733 14.3754 15.2266 14.115L15.2379 13.9999C15.2379 13.6843 14.9821 13.4285 14.6665 13.4285L14.666 13.2683C15.0699 13.2683 15.3974 13.5959 15.3975 13.9998C15.3975 14.4037 15.07 14.7312 14.666 14.7312H1.33301C0.929115 14.7311 0.601562 14.4037 0.601562 13.9998ZM15.2379 8.66656C15.2379 8.39032 15.0418 8.16035 14.7812 8.10718L14.6665 8.09513L14.666 7.9353C15.07 7.9353 15.3975 8.26279 15.3975 8.66675C15.3974 9.07062 15.0699 9.39819 14.666 9.39819H14.0645V13.2683H14.666L14.6665 13.4285H13.9046V9.23799H14.6665L14.7812 9.22632C15.0045 9.18078 15.1808 9.0052 15.2266 8.78198L15.2379 8.66656ZM0.601562 8.66675C0.601562 8.26284 0.929115 7.93538 1.33301 7.9353L1.33315 8.09513L1.21777 8.10718C0.957527 8.16057 0.761719 8.39052 0.761719 8.66656L0.773438 8.78198C0.81918 9.00497 0.994773 9.1806 1.21777 9.22632L1.33315 9.23799H2.09505V13.4285H1.33315L1.33301 13.2683H1.93457V9.39819H1.33301C0.929177 9.39812 0.601663 9.07057 0.601562 8.66675ZM4.76172 9.23799V13.4285H3.23791V9.23799H4.76172ZM7.42839 9.23799V13.4285H5.90458V9.23799H7.42839ZM10.0951 9.23799V13.4285H8.57124V9.23799H10.0951ZM12.7617 9.23799V13.4285H11.2379V9.23799H12.7617ZM11.3975 13.2683H12.6016V9.39819H11.3975V13.2683ZM8.73145 13.2683H9.93457V9.39819H8.73145V13.2683ZM6.06445 13.2683H7.26855V9.39819H6.06445V13.2683ZM3.39746 13.2683H4.60156V9.39819H3.39746V13.2683ZM14.666 7.9353L14.6665 8.09513H1.33315L1.33301 7.9353H14.666ZM11.2686 6.66675V2.7312H4.73145V6.66675C4.73134 7.07056 4.40381 7.39809 4 7.39819C3.59611 7.39819 3.26866 7.07062 3.26855 6.66675V2.40015C3.26857 2.10032 3.38727 1.8117 3.59961 1.59937L3.60547 1.59351L3.67773 1.52905L3.68262 1.52515C3.88399 1.36007 4.13772 1.26831 4.40039 1.26831L4.40011 1.42847L4.2334 1.44312C4.06881 1.4718 3.9138 1.54233 3.78404 1.6487L3.71261 1.71269L3.64844 1.78394C3.50677 1.95693 3.4284 2.17469 3.42839 2.40019V6.66656L3.44043 6.78198C3.48621 7.00505 3.66164 7.1807 3.88477 7.22632L3.99981 7.23799C4.27578 7.2379 4.5062 7.04218 4.55957 6.78198L4.57124 6.66656V2.57132H11.4284V6.66656L11.4404 6.78198C11.4862 7.00505 11.6616 7.1807 11.8848 7.22632L11.9998 7.23799C12.2758 7.2379 12.5062 7.04218 12.5596 6.78198L12.5712 6.66656V2.40019C12.5712 2.17468 12.4927 1.95701 12.351 1.78412L12.287 1.71269L12.2156 1.6487C12.0859 1.54241 11.9311 1.47184 11.7666 1.44312L11.5995 1.42847L11.5996 1.26831C11.8294 1.26833 12.0523 1.33845 12.2393 1.46655L12.3174 1.52515L12.3223 1.52905L12.3936 1.59351C12.3979 1.59741 12.4023 1.60184 12.4062 1.6062L12.4697 1.67749L12.4746 1.68237C12.6397 1.88373 12.7314 2.1375 12.7314 2.40015V6.66675C12.7313 7.07056 12.4038 7.39809 12 7.39819C11.5961 7.39819 11.2687 7.07062 11.2686 6.66675ZM11.5996 1.26831L11.5995 1.42847H4.40011L4.40039 1.26831H11.5996Z" stroke="currentColor"/>
</svg>
