<svg width="15" height="14" viewBox="0 0 15 14" fill="none" xmlns="http://www.w3.org/2000/svg">
<path d="M12 7.33398H2.66699V10C2.66699 10.1768 2.73728 10.3467 2.8623 10.4717C2.98733 10.5967 3.15717 10.667 3.33398 10.667H11.334C11.5106 10.6669 11.6798 10.5965 11.8047 10.4717C11.9297 10.3467 12 10.1768 12 10V7.33398ZM13.334 10C13.334 10.5303 13.1229 11.039 12.748 11.4141C12.3731 11.7891 11.8643 11.9999 11.334 12V12.667C11.334 13.0352 11.0352 13.334 10.667 13.334C10.2988 13.334 10 13.0352 10 12.667V12H4.66699V12.667C4.66699 13.0352 4.36819 13.334 4 13.334C3.63196 13.3338 3.33398 13.0351 3.33398 12.667V12C2.80355 12 2.29499 11.7891 1.91992 11.4141C1.54485 11.039 1.33398 10.5304 1.33398 10V7.33398H0.666992C0.298802 7.33398 0 7.03518 0 6.66699C0 6.2988 0.298802 6 0.666992 6H1.33398V1.66699C1.33398 0.754244 2.08729 0.00017923 3 0L3.05469 0.00292969C3.46965 0.0369303 3.85485 0.226041 4.1377 0.530273L4.13867 0.529297L5.33301 1.72363L5.5293 1.5293C5.78965 1.26895 6.21133 1.26895 6.47168 1.5293C6.73187 1.78966 6.73198 2.21138 6.47168 2.47168L5.13867 3.80469C4.87832 4.06504 4.45566 4.06504 4.19531 3.80469C3.93534 3.54437 3.93523 3.12256 4.19531 2.8623L4.39062 2.66699L3.19531 1.47168C3.18592 1.46228 3.17678 1.45233 3.16797 1.44238C3.11767 1.38571 3.04966 1.3488 2.97559 1.33594C2.80949 1.34975 2.66699 1.49885 2.66699 1.66699V6H14C14.3682 6 14.667 6.2988 14.667 6.66699C14.667 7.03518 14.3682 7.33398 14 7.33398H13.334V10Z" fill="#222222"/>
</svg>
