<svg width="16" height="16" viewBox="0 0 16 16" fill="none" xmlns="http://www.w3.org/2000/svg">
<path d="M12.666 8.66699H3.33301V11.333C3.33301 11.5098 3.4033 11.6797 3.52832 11.8047C3.65335 11.9297 3.82319 12 4 12H12C12.1766 11.9999 12.3458 11.9295 12.4707 11.8047C12.5957 11.6797 12.666 11.5098 12.666 11.333V8.66699ZM14 11.333C14 11.8633 13.7889 12.372 13.4141 12.7471C13.0391 13.1221 12.5303 13.3329 12 13.333V14C12 14.3682 11.7012 14.667 11.333 14.667C10.9648 14.667 10.666 14.3682 10.666 14V13.333H5.33301V14C5.33301 14.3682 5.03421 14.667 4.66602 14.667C4.29798 14.6668 4 14.3681 4 14V13.333C3.46957 13.333 2.96101 13.1221 2.58594 12.7471C2.21087 12.372 2 11.8634 2 11.333V8.66699H1.33301C0.964818 8.66699 0.666016 8.36819 0.666016 8C0.666016 7.63181 0.964818 7.33301 1.33301 7.33301H2V3C2 2.08725 2.75331 1.33319 3.66602 1.33301L3.7207 1.33594C4.13566 1.36994 4.52087 1.55905 4.80371 1.86328L4.80469 1.8623L5.99902 3.05664L6.19531 2.8623C6.45566 2.60196 6.87735 2.60196 7.1377 2.8623C7.39788 3.12267 7.39799 3.54439 7.1377 3.80469L5.80469 5.1377C5.54434 5.39804 5.12168 5.39804 4.86133 5.1377C4.60136 4.87737 4.60125 4.45557 4.86133 4.19531L5.05664 4L3.86133 2.80469C3.85193 2.79529 3.8428 2.78534 3.83398 2.77539C3.78369 2.71872 3.71568 2.68181 3.6416 2.66895C3.47551 2.68276 3.33301 2.83185 3.33301 3V7.33301H14.666C15.0342 7.33301 15.333 7.63181 15.333 8C15.333 8.36819 15.0342 8.66699 14.666 8.66699H14V11.333Z" fill="#787878"/>
</svg>
