<svg viewBox="0 0 16 16" fill="none" xmlns="http://www.w3.org/2000/svg">
<path d="M11.9873 5.08789C11.9616 4.95987 11.8984 4.84075 11.8047 4.74707L10.7002 3.64258C10.1144 3.05698 9.33312 2.71199 8.50977 2.6709L8.34375 2.66699H7.58203C8.27954 3.50251 8.66685 4.55909 8.66699 5.65625V6.39062L9.60938 7.33301H10.1152C10.6455 7.33314 11.1543 7.54394 11.5293 7.91895L12.333 8.72363L13.3906 7.66602L12.5859 6.8623C12.2109 6.48736 12.0001 5.97853 12 5.44824V5.21875L11.9873 5.08789ZM2.00391 13.249C2.004 13.4472 2.08252 13.6372 2.22266 13.7773C2.36292 13.9176 2.55363 13.9961 2.75195 13.9961C2.85 13.996 2.94751 13.977 3.03809 13.9395C3.12865 13.9019 3.21094 13.8467 3.28027 13.7773L8.72363 8.33301L7.66699 7.27539L2.22266 12.7197C2.08244 12.86 2.00387 13.0507 2.00391 13.249ZM13.334 5.44824C13.3341 5.6249 13.4044 5.79404 13.5293 5.91895L14.3564 6.74609C14.6083 6.61279 14.9267 6.65028 15.1387 6.8623C15.3987 7.12263 15.3988 7.54443 15.1387 7.80469L12.4717 10.4717C12.2114 10.7317 11.7896 10.7317 11.5293 10.4717C11.3173 10.2597 11.2798 9.9413 11.4131 9.68945L10.5859 8.8623C10.4955 8.77183 10.3818 8.71086 10.2588 8.68359L4.22363 14.7197C4.03042 14.913 3.80033 15.0663 3.54785 15.1709C3.29548 15.2755 3.02514 15.33 2.75195 15.3301C2.20011 15.3302 1.6706 15.1108 1.28027 14.7207C0.889926 14.3305 0.670016 13.801 0.669922 13.249C0.66983 12.6971 0.889156 12.1677 1.2793 11.7773L7.33398 5.72266V5.65625C7.33382 4.77251 6.98228 3.92477 6.35742 3.2998L5.5293 2.47168C5.33865 2.28104 5.28163 1.99421 5.38477 1.74512C5.48791 1.49611 5.7305 1.33315 6 1.33301H8.34473L8.57617 1.33887C9.72898 1.39637 10.8224 1.88025 11.6426 2.7002H11.6436L12.748 3.80469C13.123 4.17965 13.3339 4.68848 13.334 5.21875V5.44824Z" fill="#787878"/>
</svg>
