<svg width="24" height="24" viewBox="0 0 24 24" fill="none" xmlns="http://www.w3.org/2000/svg">
<path fill-rule="evenodd" clip-rule="evenodd" d="M5.56244 5.56293C5.7031 5.42228 5.89386 5.34326 6.09277 5.34326C6.29169 5.34326 6.48245 5.42228 6.6231 5.56293L11.7496 10.6895L16.8762 5.56293C17.0168 5.42228 17.2076 5.34326 17.4065 5.34326C17.6054 5.34326 17.7962 5.42228 17.9368 5.56293C18.0775 5.70358 18.1565 5.89435 18.1565 6.09326C18.1565 6.29217 18.0775 6.48294 17.9368 6.62359L12.8103 11.7501L17.9368 16.8766C18.0775 17.0173 18.1565 17.2081 18.1565 17.407C18.1565 17.6059 18.0775 17.7966 17.9368 17.9373C17.7962 18.078 17.6054 18.157 17.4065 18.157C17.2076 18.157 17.0168 18.078 16.8762 17.9373L11.7496 12.8108L6.6231 17.9373C6.48245 18.078 6.29169 18.157 6.09277 18.157C5.89386 18.157 5.7031 18.078 5.56244 17.9373C5.42179 17.7966 5.34277 17.6059 5.34277 17.407C5.34277 17.2081 5.42179 17.0173 5.56244 16.8766L10.689 11.7501L5.56244 6.62359C5.42179 6.48294 5.34277 6.29217 5.34277 6.09326C5.34277 5.89435 5.42179 5.70358 5.56244 5.56293Z" fill="#222222"/>
</svg>
