<svg width="16" height="16" viewBox="0 0 16 16" fill="none" xmlns="http://www.w3.org/2000/svg">
<path d="M6.54626 13.4153C6.86882 13.2383 7.27424 13.3565 7.45153 13.679C7.50556 13.7771 7.58463 13.8592 7.68103 13.9163C7.77763 13.9734 7.88814 14.0032 8.00036 14.0032C8.11259 14.0032 8.2231 13.9734 8.3197 13.9163C8.41609 13.8592 8.49517 13.7771 8.54919 13.679C8.72649 13.3565 9.13191 13.2383 9.45446 13.4153C9.77711 13.5927 9.89553 13.9989 9.71814 14.3215C9.54909 14.6289 9.30031 14.8851 8.99841 15.0637C8.69629 15.2424 8.35137 15.3372 8.00036 15.3372C7.64936 15.3372 7.30444 15.2424 7.00232 15.0637C6.70042 14.8851 6.45163 14.6289 6.28259 14.3215C6.1052 13.9989 6.22362 13.5927 6.54626 13.4153ZM11.3334 5.33325C11.3334 4.4492 10.9829 3.60095 10.3578 2.97583C9.73266 2.35071 8.88442 2.00024 8.00036 2.00024C7.11631 2.00024 6.26806 2.35071 5.64294 2.97583C5.01782 3.60095 4.66736 4.4492 4.66736 5.33325C4.66736 7.76481 4.14477 9.37693 3.58532 10.4026C3.53439 10.496 3.48098 10.5829 3.43005 10.6663H12.5707C12.5197 10.5829 12.4663 10.496 12.4154 10.4026C11.856 9.37693 11.3334 7.76481 11.3334 5.33325ZM12.6674 5.33325C12.6674 7.56817 13.1448 8.95621 13.5853 9.76392C13.8065 10.1694 14.0226 10.4361 14.1722 10.594C14.247 10.6729 14.3058 10.7256 14.3412 10.7551C14.3588 10.7698 14.3712 10.7787 14.3763 10.7825C14.3774 10.7832 14.3779 10.7841 14.3783 10.7844C14.6169 10.9487 14.7222 11.2486 14.6381 11.5266C14.5528 11.8076 14.2941 12.0002 14.0004 12.0002H2.00036C1.70667 12.0002 1.44788 11.8076 1.36267 11.5266C1.27851 11.2486 1.38384 10.9487 1.62243 10.7844C1.62285 10.7841 1.62334 10.7832 1.62439 10.7825C1.6295 10.7787 1.6419 10.7698 1.65954 10.7551C1.69495 10.7256 1.75371 10.6729 1.82849 10.594C1.97811 10.4361 2.19421 10.1694 2.4154 9.76392C2.85592 8.95621 3.33337 7.56817 3.33337 5.33325C3.33337 4.09557 3.82539 2.90862 4.70056 2.03345C5.57573 1.15828 6.76269 0.66626 8.00036 0.66626C9.23804 0.66626 10.425 1.15828 11.3002 2.03345C12.1753 2.90862 12.6674 4.09558 12.6674 5.33325Z" fill="#787878"/>
</svg>
