<svg width="25" height="24" viewBox="0 0 25 24" fill="currentColor" xmlns="http://www.w3.org/2000/svg">
<path d="M21.5415 11.9995C21.5415 10.0828 21.5394 8.75827 21.4053 7.76172C21.2755 6.79749 21.0412 6.30963 20.6992 5.96729C20.3577 5.62545 19.8706 5.39095 18.9063 5.26123C17.9094 5.12716 16.5843 5.125 14.667 5.125H10.6665C8.74984 5.125 7.42526 5.12711 6.42871 5.26123C5.46472 5.39101 4.97661 5.62541 4.63428 5.96729C4.2925 6.30877 4.05796 6.79621 3.92822 7.76025C3.79417 8.757 3.79199 10.0825 3.79199 11.9995V14.0005C3.79199 15.9172 3.7941 17.2417 3.92822 18.2383C4.058 19.2023 4.29241 19.6904 4.63428 20.0327C4.97577 20.3745 5.4632 20.609 6.42725 20.7388C7.42399 20.8728 8.74945 20.875 10.6665 20.875H14.667C16.5836 20.875 17.9082 20.8728 18.9048 20.7388C19.8686 20.609 20.3569 20.3745 20.6992 20.0327C21.041 19.6912 21.2755 19.2037 21.4053 18.2397C21.5393 17.243 21.5415 15.9175 21.5415 14.0005V11.9995ZM23.7915 14.0005C23.7915 15.8538 23.7936 17.3571 23.6348 18.5386C23.4715 19.7525 23.1201 20.7941 22.29 21.6235C21.4604 22.4525 20.419 22.8048 19.2051 22.9683C18.0236 23.1272 16.5205 23.125 14.667 23.125H10.6665C8.81323 23.125 7.30993 23.1271 6.12842 22.9683C4.91457 22.805 3.87284 22.4534 3.04346 21.6235C2.21451 20.7939 1.86216 19.7525 1.69873 18.5386C1.5397 17.3571 1.54199 15.854 1.54199 14.0005V11.9995C1.54199 10.1462 1.53986 8.64294 1.69873 7.46143C1.86199 6.24758 2.21356 5.20584 3.04346 4.37646C3.87311 3.54752 4.91449 3.19517 6.12842 3.03174C7.30987 2.8727 8.81296 2.875 10.6665 2.875H14.667C16.5207 2.875 18.0249 2.87281 19.2065 3.03174C20.4203 3.19505 21.4622 3.54646 22.2915 4.37646C23.1203 5.20609 23.4714 6.24756 23.6348 7.46143C23.7938 8.64289 23.7915 10.1459 23.7915 11.9995V14.0005Z" fill="currentColor"/>
<path d="M22.1675 7.87451C22.7884 7.87477 23.2922 8.37858 23.2925 8.99951C23.2925 9.62067 22.7886 10.1242 22.1675 10.1245H3.16699C2.54567 10.1245 2.04199 9.62083 2.04199 8.99951C2.04226 8.37842 2.54584 7.87451 3.16699 7.87451H22.1675ZM6.54199 4V2.5C6.54199 1.87868 7.04567 1.375 7.66699 1.375C8.28831 1.375 8.79199 1.87868 8.79199 2.5V4C8.79199 4.62132 8.28831 5.125 7.66699 5.125C7.04567 5.125 6.54199 4.62132 6.54199 4ZM16.5425 4V2.5C16.5425 1.87868 17.0462 1.375 17.6675 1.375C18.2886 1.37526 18.7925 1.87884 18.7925 2.5V4C18.7925 4.62116 18.2886 5.12474 17.6675 5.125C17.0462 5.125 16.5425 4.62132 16.5425 4Z" fill="currentColor"/>
<path d="M18.667 17C18.667 17.2652 18.5616 17.5196 18.3741 17.7071C18.1866 17.8946 17.9322 18 17.667 18C17.4018 18 17.1474 17.8946 16.9599 17.7071C16.7724 17.5196 16.667 17.2652 16.667 17C16.667 16.7348 16.7724 16.4804 16.9599 16.2929C17.1474 16.1054 17.4018 16 17.667 16C17.9322 16 18.1866 16.1054 18.3741 16.2929C18.5616 16.4804 18.667 16.7348 18.667 17ZM18.667 13C18.667 13.2652 18.5616 13.5196 18.3741 13.7071C18.1866 13.8946 17.9322 14 17.667 14C17.4018 14 17.1474 13.8946 16.9599 13.7071C16.7724 13.5196 16.667 13.2652 16.667 13C16.667 12.7348 16.7724 12.4804 16.9599 12.2929C17.1474 12.1054 17.4018 12 17.667 12C17.9322 12 18.1866 12.1054 18.3741 12.2929C18.5616 12.4804 18.667 12.7348 18.667 13ZM13.667 17C13.667 17.2652 13.5616 17.5196 13.3741 17.7071C13.1866 17.8946 12.9322 18 12.667 18C12.4018 18 12.1474 17.8946 11.9599 17.7071C11.7724 17.5196 11.667 17.2652 11.667 17C11.667 16.7348 11.7724 16.4804 11.9599 16.2929C12.1474 16.1054 12.4018 16 12.667 16C12.9322 16 13.1866 16.1054 13.3741 16.2929C13.5616 16.4804 13.667 16.7348 13.667 17ZM13.667 13C13.667 13.2652 13.5616 13.5196 13.3741 13.7071C13.1866 13.8946 12.9322 14 12.667 14C12.4018 14 12.1474 13.8946 11.9599 13.7071C11.7724 13.5196 11.667 13.2652 11.667 13C11.667 12.7348 11.7724 12.4804 11.9599 12.2929C12.1474 12.1054 12.4018 12 12.667 12C12.9322 12 13.1866 12.1054 13.3741 12.2929C13.5616 12.4804 13.667 12.7348 13.667 13ZM8.66699 17C8.66699 17.2652 8.56164 17.5196 8.3741 17.7071C8.18656 17.8946 7.93221 18 7.66699 18C7.40178 18 7.14742 17.8946 6.95989 17.7071C6.77235 17.5196 6.66699 17.2652 6.66699 17C6.66699 16.7348 6.77235 16.4804 6.95989 16.2929C7.14742 16.1054 7.40178 16 7.66699 16C7.93221 16 8.18656 16.1054 8.3741 16.2929C8.56164 16.4804 8.66699 16.7348 8.66699 17ZM8.66699 13C8.66699 13.2652 8.56164 13.5196 8.3741 13.7071C8.18656 13.8946 7.93221 14 7.66699 14C7.40178 14 7.14742 13.8946 6.95989 13.7071C6.77235 13.5196 6.66699 13.2652 6.66699 13C6.66699 12.7348 6.77235 12.4804 6.95989 12.2929C7.14742 12.1054 7.40178 12 7.66699 12C7.93221 12 8.18656 12.1054 8.3741 12.2929C8.56164 12.4804 8.66699 12.7348 8.66699 13Z" fill="currentColor"/>
</svg>
