<svg width="24" height="24" viewBox="0 0 24 24" fill="currentColor" xmlns="http://www.w3.org/2000/svg">
<path d="M21.1543 8.52585C21.2497 8.54963 21.3399 8.59145 21.419 8.64987C21.4981 8.70842 21.5655 8.78231 21.6162 8.86667C21.6669 8.95098 21.7003 9.04478 21.7149 9.14206C21.7294 9.2395 21.725 9.33942 21.7012 9.43503C21.3207 10.9539 20.5895 12.3514 19.5801 13.5249C19.5919 13.5393 19.6034 13.5543 19.6143 13.5698L20.4746 14.7983C20.7122 15.1376 20.6294 15.6056 20.2901 15.8432C19.9508 16.0806 19.4836 15.9979 19.2461 15.6587L18.5039 14.5991C18.3887 14.6977 18.2724 14.7955 18.1524 14.8891C17.6387 15.2899 17.0884 15.6345 16.5137 15.9253L16.961 17.1528C17.1026 17.542 16.9019 17.973 16.5127 18.1147C16.1237 18.2561 15.6935 18.0553 15.5518 17.6665L15.1279 16.5005C14.3603 16.7533 13.5625 16.914 12.75 16.9751V18.2505C12.7498 18.6644 12.414 19.0003 12 19.0005C11.5859 19.0005 11.2502 18.6645 11.25 18.2505V16.9751C10.4277 16.9139 9.63062 16.7525 8.87111 16.5024L8.44826 17.6665C8.30649 18.0553 7.87634 18.2561 7.48732 18.1147C7.09808 17.973 6.89741 17.542 7.03908 17.1528L7.48439 15.9282C6.73407 15.5483 6.03747 15.075 5.40822 14.5239L4.61427 15.6587C4.37669 15.998 3.90865 16.0808 3.56935 15.8432C3.23014 15.6056 3.1482 15.1376 3.38576 14.7983L4.24611 13.5698C4.27714 13.5255 4.31154 13.4851 4.34962 13.4497C3.3889 12.3115 2.67467 10.95 2.29689 9.44089C2.24856 9.24814 2.27891 9.04404 2.38087 8.8735C2.48304 8.70292 2.64898 8.57918 2.84181 8.53073C3.03476 8.48233 3.23951 8.51251 3.41017 8.61471C3.58073 8.71687 3.70352 8.88283 3.75197 9.07565C4.21496 10.9122 5.27833 12.5416 6.77247 13.7055C8.26656 14.8694 10.1061 15.5019 12 15.5014C13.894 15.501 15.734 14.8682 17.2276 13.7036C18.7211 12.5389 19.783 10.9085 20.2451 9.07174C20.269 8.9762 20.3116 8.88626 20.3701 8.8071C20.4287 8.72793 20.5025 8.66056 20.5869 8.60983C20.6713 8.55921 20.765 8.52574 20.8623 8.5112C20.9597 8.49666 21.0588 8.50206 21.1543 8.52585Z" fill="currentColor"/>
</svg>
