<svg viewBox="0 0 16 16" fill="none" xmlns="http://www.w3.org/2000/svg">
<path d="M10.9997 5.33336C11.1838 5.33336 11.333 5.18412 11.333 5.00003C11.333 4.81593 11.1838 4.66669 10.9997 4.66669C10.8156 4.66669 10.6663 4.81593 10.6663 5.00003C10.6663 5.18412 10.8156 5.33336 10.9997 5.33336Z" fill="currentColor"/>
<path d="M7.70117 1.40545C8.66015 0.803814 9.79501 0.545902 10.9199 0.673023C12.0448 0.800161 13.0931 1.30524 13.8936 2.10564C14.694 2.9061 15.2 3.95442 15.3271 5.07927C15.4543 6.20418 15.1953 7.33904 14.5938 8.29802C13.9921 9.25703 13.0828 9.98354 12.0146 10.3586C11.0813 10.6862 10.0754 10.7275 9.12305 10.4845L8.4707 11.1379C8.34577 11.2627 8.17664 11.3331 8 11.3332H7.33301V12.6662C7.33301 13.0344 7.03421 13.3332 6.66602 13.3332H5.33301V14.6662C5.33301 15.0344 5.03421 15.3332 4.66602 15.3332H2C1.6485 15.3332 1.30344 15.2128 1.04492 14.9543C0.786605 14.6958 0.666065 14.3515 0.666016 14.0002V12.0002C0.666016 11.8234 0.736372 11.6535 0.861328 11.5285L5.5127 6.87615C5.27002 5.92403 5.31304 4.91759 5.64062 3.98455C6.01567 2.91642 6.74221 2.00707 7.70117 1.40545ZM10.7705 1.99724C9.94558 1.904 9.11341 2.09416 8.41016 2.53533C7.70688 2.97654 7.17346 3.64359 6.89844 4.42693C6.62366 5.20994 6.62265 6.06317 6.89551 6.84685C6.97964 7.08837 6.91815 7.35742 6.7373 7.53826L2 12.2756V14.0002H4V12.6662C4.00023 12.2983 4.29812 12.0003 4.66602 12.0002H6V10.6662C6.00023 10.2983 6.29812 10.0003 6.66602 10.0002H7.72363L8.46191 9.26189L8.5332 9.19939C8.70901 9.06769 8.94106 9.03009 9.15234 9.10369C9.93635 9.37679 10.7899 9.37578 11.5732 9.10076C12.3565 8.82573 13.0236 8.29324 13.4648 7.59002C13.906 6.88684 14.0951 6.05452 14.002 5.22966C13.9087 4.4047 13.5382 3.63507 12.9512 3.04802C12.3642 2.46113 11.5953 2.0905 10.7705 1.99724ZM11 4.66619C10.8159 4.66619 10.666 4.81608 10.666 5.00017L10.6729 5.06755C10.7041 5.21927 10.839 5.33318 11 5.33318C11.1839 5.333 11.3329 5.18406 11.333 5.00017C11.333 4.83891 11.2186 4.70391 11.0664 4.67302L11 4.66619ZM12 5.00017C11.9999 5.55225 11.5521 6 11 6.00017C10.4821 6.00017 10.0559 5.60621 10.0049 5.10173L10 5.00017L10.0049 4.89763C10.0561 4.39342 10.4823 4.00017 11 4.00017L11.1016 4.00505C11.606 4.0561 12 4.48228 12 5.00017Z" fill="currentColor"/>
</svg>
