<svg viewBox="0 0 25 24" fill="currentColor" xmlns="http://www.w3.org/2000/svg">
<path d="M2.25 7L6.66 2.59C6.84606 2.40283 7.06732 2.25434 7.31103 2.15308C7.55474 2.05182 7.81609 1.99979 8.08 2H16.42C16.6839 1.99979 16.9453 2.05182 17.189 2.15308C17.4327 2.25434 17.6539 2.40283 17.84 2.59L22.25 7M2.25 7H22.25M2.25 7V10C2.25 10.5304 2.46071 11.0391 2.83579 11.4142C3.21086 11.7893 3.71957 12 4.25 12M22.25 7V10C22.25 10.5304 22.0393 11.0391 21.6642 11.4142C21.2891 11.7893 20.7804 12 20.25 12M4.25 12V20C4.25 20.5304 4.46071 21.0391 4.83579 21.4142C5.21086 21.7893 5.71957 22 6.25 22H18.25C18.7804 22 19.2891 21.7893 19.6642 21.4142C20.0393 21.0391 20.25 20.5304 20.25 20V12M4.25 12C4.83426 11.9678 5.39227 11.7467 5.84 11.37C5.95932 11.2838 6.10279 11.2374 6.25 11.2374C6.39721 11.2374 6.54068 11.2838 6.66 11.37C7.10773 11.7467 7.66574 11.9678 8.25 12C8.83426 11.9678 9.39227 11.7467 9.84 11.37C9.95932 11.2838 10.1028 11.2374 10.25 11.2374C10.3972 11.2374 10.5407 11.2838 10.66 11.37C11.1077 11.7467 11.6657 11.9678 12.25 12C12.8343 11.9678 13.3923 11.7467 13.84 11.37C13.9593 11.2838 14.1028 11.2374 14.25 11.2374C14.3972 11.2374 14.5407 11.2838 14.66 11.37C15.1077 11.7467 15.6657 11.9678 16.25 12C16.8343 11.9678 17.3923 11.7467 17.84 11.37C17.9593 11.2838 18.1028 11.2374 18.25 11.2374C18.3972 11.2374 18.5407 11.2838 18.66 11.37C19.1077 11.7467 19.6657 11.9678 20.25 12M15.25 22V18C15.25 17.4696 15.0393 16.9609 14.6642 16.5858C14.2891 16.2107 13.7804 16 13.25 16H11.25C10.7196 16 10.2109 16.2107 9.83579 16.5858C9.46071 16.9609 9.25 17.4696 9.25 18V22" stroke="currentColor" stroke-width="2" stroke-linecap="round" stroke-linejoin="round"/>
</svg>
