<svg width="16" height="16" viewBox="0 0 16 16" fill="none" xmlns="http://www.w3.org/2000/svg">
<path d="M6.66602 1.3335V2.66683" stroke="#787878" stroke-width="1.33333" stroke-linecap="round" stroke-linejoin="round"/>
<path d="M9.33398 1.3335V2.66683" stroke="#787878" stroke-width="1.33333" stroke-linecap="round" stroke-linejoin="round"/>
<path d="M10.6667 5.33325C10.8435 5.33325 11.013 5.40349 11.1381 5.52851C11.2631 5.65354 11.3333 5.82311 11.3333 5.99992V11.3333C11.3333 12.0405 11.0524 12.7188 10.5523 13.2189C10.0522 13.719 9.37391 13.9999 8.66667 13.9999H4.66667C3.95942 13.9999 3.28115 13.719 2.78105 13.2189C2.28095 12.7188 2 12.0405 2 11.3333V5.99992C2 5.82311 2.07024 5.65354 2.19526 5.52851C2.32029 5.40349 2.48986 5.33325 2.66667 5.33325H12C12.7072 5.33325 13.3855 5.6142 13.8856 6.1143C14.3857 6.6144 14.6667 7.29267 14.6667 7.99992C14.6667 8.70716 14.3857 9.38544 13.8856 9.88554C13.3855 10.3856 12.7072 10.6666 12 10.6666H11.3333" stroke="#787878" stroke-width="1.33333" stroke-linecap="round" stroke-linejoin="round"/>
<path d="M4 1.33325V2.66659" stroke="#787878" stroke-width="1.33333" stroke-linecap="round" stroke-linejoin="round"/>
</svg>
