<svg width="30" height="30" viewBox="0 0 30 30" fill="none" xmlns="http://www.w3.org/2000/svg">
<path d="M17.3333 22.6667C17.3333 22.313 17.1928 21.974 16.9427 21.724C16.6927 21.4739 16.3536 21.3333 16 21.3333H13.3333C12.9797 21.3333 12.6407 21.4739 12.3906 21.724C12.1406 21.974 12 22.313 12 22.6667V26.6667H17.3333V22.6667ZM9.10547 2.66667C8.92958 2.66655 8.75488 2.70074 8.59245 2.76823C8.43008 2.83573 8.28282 2.93519 8.15885 3.0599L4.55208 6.66667H24.7813L21.1745 3.0599C21.0505 2.93519 20.9033 2.83573 20.7409 2.76823C20.5785 2.70074 20.4038 2.66655 20.2279 2.66667H9.10547ZM26.6667 9.33333H2.66667V12C2.66667 12.3536 2.80724 12.6927 3.05729 12.9427C3.29965 13.1851 3.62564 13.3224 3.96745 13.3307C4.44306 13.2959 4.8963 13.1135 5.26172 12.806L5.33854 12.7461C5.72491 12.4669 6.18997 12.3164 6.66667 12.3164C7.08388 12.3164 7.49202 12.4312 7.84635 12.6471L7.99479 12.7461L8.07161 12.806C8.42868 13.1064 8.86964 13.2875 9.33333 13.3281C9.79702 13.2875 10.238 13.1064 10.5951 12.806L10.6719 12.7461C11.0582 12.4669 11.5233 12.3164 12 12.3164C12.4172 12.3164 12.8254 12.4312 13.1797 12.6471L13.3281 12.7461L13.4049 12.806C13.762 13.1064 14.203 13.2875 14.6667 13.3281C15.1304 13.2875 15.5713 13.1064 15.9284 12.806L16.0052 12.7461C16.3916 12.4669 16.8566 12.3164 17.3333 12.3164C17.7505 12.3164 18.1587 12.4312 18.513 12.6471L18.6615 12.7461L18.7383 12.806C19.0953 13.1064 19.5363 13.2875 20 13.3281C20.4637 13.2875 20.9047 13.1064 21.2617 12.806L21.3385 12.7461C21.7249 12.4669 22.19 12.3164 22.6667 12.3164C23.0839 12.3164 23.492 12.4312 23.8464 12.6471L23.9948 12.7461L24.0716 12.806C24.4367 13.1132 24.8894 13.2957 25.3646 13.3307C25.7069 13.3227 26.0334 13.1854 26.276 12.9427C26.5261 12.6927 26.6667 12.3536 26.6667 12V9.33333ZM20 26.6667H22.6667C23.0203 26.6667 23.3593 26.5261 23.6094 26.276C23.8594 26.026 24 25.687 24 25.3333V15.7578C23.5258 15.6028 23.0756 15.379 22.6667 15.0872C21.9079 15.6286 21.009 15.9459 20.0729 15.9974C20.0243 16.0001 19.9757 16.0001 19.9271 15.9974C18.991 15.9459 18.0921 15.6286 17.3333 15.0872C16.5745 15.6286 15.6757 15.9459 14.7396 15.9974C14.691 16.0001 14.6423 16.0001 14.5938 15.9974C13.6577 15.9459 12.7588 15.6286 12 15.0872C11.2412 15.6286 10.3423 15.9459 9.40625 15.9974C9.35765 16.0001 9.30901 16.0001 9.26042 15.9974C8.32435 15.9459 7.42547 15.6286 6.66667 15.0872C6.25776 15.379 5.80757 15.6028 5.33333 15.7578V25.3333C5.33333 25.687 5.47391 26.026 5.72396 26.276C5.97401 26.5261 6.31305 26.6667 6.66667 26.6667H9.33333V22.6667C9.33333 21.6058 9.75506 20.5887 10.5052 19.8385C11.2554 19.0884 12.2725 18.6667 13.3333 18.6667H16C17.0609 18.6667 18.078 19.0884 18.8281 19.8385C19.5783 20.5887 20 21.6058 20 22.6667V26.6667ZM29.3333 12C29.3333 13.0609 28.9116 14.078 28.1615 14.8281C27.736 15.2535 27.2232 15.5686 26.6667 15.7656V25.3333C26.6667 26.3942 26.2449 27.4113 25.4948 28.1615C24.7446 28.9116 23.7275 29.3333 22.6667 29.3333H6.66667C5.6058 29.3333 4.58869 28.9116 3.83854 28.1615C3.0884 27.4113 2.66667 26.3942 2.66667 25.3333V15.7656C2.11015 15.5686 1.5973 15.2535 1.17188 14.8281C0.42173 14.078 0 13.0609 0 12V8C1.68376e-07 7.64638 0.140577 7.30734 0.390625 7.05729L6.27083 1.17708C6.64233 0.804169 7.0842 0.507966 7.57031 0.30599C8.0573 0.103728 8.57945 0.00100975 9.10677 0.00130208V0H20.2266V0.00130208C20.7539 0.00100975 21.276 0.103728 21.763 0.30599C22.2491 0.507966 22.691 0.80417 23.0625 1.17708L28.9427 7.05729C29.1928 7.30734 29.3333 7.64638 29.3333 8V12Z" fill="#519C2C"/>
</svg>
