<svg width="16" height="16" viewBox="0 0 16 16" fill="none" xmlns="http://www.w3.org/2000/svg">
<path d="M14 7.33325C14 7.15644 13.9297 6.9866 13.8047 6.86157C13.6797 6.73655 13.5098 6.66626 13.333 6.66626H12.666V14.0002H13.333C13.5098 14.0002 13.6797 13.93 13.8047 13.8049C13.9297 13.6799 14 13.5101 14 13.3333V7.33325ZM9.33301 11.3333C9.7012 11.3333 10 11.6321 10 12.0002C9.99982 12.3683 9.70109 12.6663 9.33301 12.6663H6.66602C6.29808 12.6661 6.00018 12.3682 6 12.0002C6 11.6322 6.29798 11.3334 6.66602 11.3333H9.33301ZM9.33301 8.66626C9.7012 8.66626 10 8.96506 10 9.33325C10 9.70144 9.7012 10.0002 9.33301 10.0002H6.66602C6.29798 10.0001 6 9.70133 6 9.33325C6 8.96517 6.29798 8.66644 6.66602 8.66626H9.33301ZM9.33301 6.00024C9.70109 6.00024 9.99982 6.29822 10 6.66626C10 7.03445 9.7012 7.33325 9.33301 7.33325H6.66602C6.29798 7.33308 6 7.03434 6 6.66626C6.00018 6.29833 6.29808 6.00042 6.66602 6.00024H9.33301ZM9.33301 3.33325C9.7012 3.33325 10 3.63205 10 4.00024C9.99982 4.36828 9.70109 4.66626 9.33301 4.66626H6.66602C6.29808 4.66608 6.00018 4.36818 6 4.00024C6 3.63216 6.29798 3.33343 6.66602 3.33325H9.33301ZM2 13.3333C2 13.5101 2.07029 13.6799 2.19531 13.8049C2.32023 13.9297 2.48948 14.0002 2.66602 14.0002H3.33301V8.66626H2.66602C2.48948 8.66635 2.32023 8.73683 2.19531 8.86157C2.07029 8.9866 2 9.15644 2 9.33325V13.3333ZM11.333 2.66626C11.3329 2.48964 11.2625 2.32049 11.1377 2.19556C11.0127 2.07053 10.8428 2.00024 10.666 2.00024H5.33301C5.1562 2.00024 4.98635 2.07053 4.86133 2.19556C4.73658 2.32047 4.6661 2.48972 4.66602 2.66626V14.0002H11.333V2.66626ZM12.666 5.33325H13.333C13.8634 5.33325 14.372 5.54412 14.7471 5.91919C15.1221 6.29426 15.333 6.80282 15.333 7.33325V13.3333C15.333 13.8637 15.1221 14.3722 14.7471 14.7473C14.372 15.1224 13.8634 15.3333 13.333 15.3333H2.66602C2.1357 15.3332 1.62695 15.1223 1.25195 14.7473C0.876982 14.3723 0.666016 13.8636 0.666016 13.3333V9.33325C0.666016 8.8029 0.876982 8.29425 1.25195 7.91919C1.62695 7.54419 2.1357 7.33334 2.66602 7.33325H3.33301V2.66626C3.33309 2.13594 3.54395 1.62719 3.91895 1.2522C4.294 0.877226 4.80265 0.66626 5.33301 0.66626H10.666C11.1963 0.66626 11.705 0.877328 12.0801 1.2522C12.4551 1.62719 12.6659 2.13594 12.666 2.66626V5.33325Z" fill="#787878"/>
</svg>
