<svg viewBox="0 0 20 20" fill="none" xmlns="http://www.w3.org/2000/svg">
<path d="M14.9998 5.83314H5.00033V16.6654C5.00033 16.8111 5.08188 17.0265 5.27741 17.222C5.47295 17.4176 5.68839 17.4991 5.83403 17.4991H14.1661C14.3118 17.4991 14.5272 17.4176 14.7228 17.222C14.9183 17.0265 14.9998 16.8111 14.9998 16.6654V5.83314ZM7.5002 14.1655V9.16559C7.5002 8.70536 7.87369 8.33186 8.3339 8.33186C8.79394 8.33207 9.16638 8.70549 9.16638 9.16559V14.1655C9.16638 14.6256 8.79394 14.999 8.3339 14.9992C7.87369 14.9992 7.5002 14.6257 7.5002 14.1655ZM10.8338 14.1655V9.16559C10.8338 8.70549 11.2062 8.33207 11.6663 8.33186C12.1265 8.33186 12.5 8.70536 12.5 9.16559V14.1655C12.5 14.6257 12.1265 14.9992 11.6663 14.9992C11.2062 14.999 10.8338 14.6256 10.8338 14.1655ZM12.5 3.33198C12.4998 3.18634 12.4182 2.97071 12.2229 2.77535C12.0274 2.58009 11.8118 2.49947 11.6663 2.49947H8.3339C8.18837 2.49947 7.97271 2.58011 7.77729 2.77535C7.58194 2.97071 7.50036 3.18634 7.5002 3.33198V4.1657H12.5V3.33198ZM14.1661 4.1657H17.4997C17.9599 4.1657 18.3334 4.53919 18.3334 4.99942C18.3334 5.45965 17.9599 5.83314 17.4997 5.83314H16.666V16.6654C16.666 17.3531 16.3313 17.9718 15.9019 18.4012C15.4725 18.8307 14.8538 19.1654 14.1661 19.1654H5.83403C5.14637 19.1654 4.5277 18.8307 4.09827 18.4012C3.66884 17.9718 3.33415 17.3531 3.33415 16.6654V5.83314H2.50045C2.04023 5.83314 1.66675 5.45965 1.66675 4.99942C1.66675 4.53919 2.04023 4.1657 2.50045 4.1657H5.83403V3.33198C5.83416 2.64456 6.16889 2.02675 6.59815 1.5974C7.02758 1.16795 7.64624 0.832031 8.3339 0.832031H11.6663C12.3539 0.832031 12.9726 1.16795 13.402 1.5974C13.8313 2.02675 14.166 2.64458 14.1661 3.33198V4.1657Z" fill="currentColor"/>
</svg>
