<svg width="24" height="24" viewBox="0 0 24 24" fill="none" xmlns="http://www.w3.org/2000/svg">
<path d="M17.9997 7.0006H6.00029V19.9993C6.00029 20.1741 6.09815 20.4326 6.3328 20.6673C6.56744 20.9019 6.82597 20.9998 7.00073 20.9998H16.9993C17.174 20.9998 17.4326 20.9019 17.6672 20.6673C17.9018 20.4326 17.9997 20.1741 17.9997 19.9993V7.0006ZM9.00015 16.9994V10.9995C9.00015 10.4473 9.44833 9.99907 10.0006 9.99907C10.5526 9.99932 10.9996 10.4474 10.9996 10.9995V16.9994C10.9996 17.5515 10.5526 17.9996 10.0006 17.9999C9.44833 17.9999 9.00015 17.5517 9.00015 16.9994ZM13.0004 16.9994V10.9995C13.0004 10.4474 13.4474 9.99932 13.9994 9.99907C14.5517 9.99907 14.9999 10.4473 14.9999 10.9995V16.9994C14.9999 17.5517 14.5517 17.9999 13.9994 17.9999C13.4474 17.9996 13.0004 17.5515 13.0004 16.9994ZM14.9999 3.9992C14.9997 3.82444 14.9018 3.56568 14.6674 3.33125C14.4328 3.09694 14.1741 3.0002 13.9994 3.0002H10.0006C9.82595 3.0002 9.56716 3.09696 9.33265 3.33125C9.09823 3.56568 9.00033 3.82444 9.00015 3.9992V4.99967H14.9999V3.9992ZM16.9993 4.99967H20.9996C21.5518 4.99967 22 5.44786 22 6.00013C22 6.55241 21.5518 7.0006 20.9996 7.0006H19.9991V19.9993C19.9991 20.8245 19.5975 21.567 19.0822 22.0823C18.5669 22.5976 17.8245 22.9993 16.9993 22.9993H7.00073C6.17554 22.9993 5.43315 22.5976 4.91783 22.0823C4.40251 21.567 4.00088 20.8245 4.00088 19.9993V7.0006H3.00044C2.44818 7.0006 2 6.55241 2 6.00013C2 5.44786 2.44818 4.99967 3.00044 4.99967H7.00073V3.9992C7.00089 3.17431 7.40257 2.43293 7.91768 1.9177C8.433 1.40237 9.1754 0.999268 10.0006 0.999268H13.9994C14.8246 0.999268 15.567 1.40237 16.0823 1.9177C16.5974 2.43293 16.9991 3.17432 16.9993 3.9992V4.99967Z" fill="#222222"/>
</svg>
