<svg width="16" height="16" viewBox="0 0 16 16" fill="none" xmlns="http://www.w3.org/2000/svg">
<g clip-path="url(#clip0_1130_15666)">
<path d="M8.53846 13.9231H13.9231V2.07692H8.53846V13.9231ZM2.07692 13.9231H7.46154V2.07692H2.07692V13.9231ZM11.8772 7.67678C12.0557 7.43907 12.3931 7.39114 12.6309 7.56951C12.8686 7.74799 12.9166 8.08538 12.7382 8.32322L11.6613 9.75912C11.5596 9.89457 11.4002 9.97436 11.2308 9.97436C11.0614 9.97436 10.902 9.89457 10.8003 9.75912L9.72336 8.32322C9.54498 8.08538 9.59292 7.74799 9.83063 7.56951C10.0685 7.39114 10.4059 7.43907 10.5843 7.67678L11.2308 8.53846L11.8772 7.67678ZM4.76923 6.02564C4.93862 6.02564 5.09802 6.10543 5.19972 6.24089L6.27664 7.67678C6.45502 7.91462 6.40708 8.25201 6.16937 8.43049C5.93154 8.60886 5.59414 8.56093 5.41567 8.32322L4.76923 7.46084L4.1228 8.32322C3.94432 8.56093 3.60692 8.60886 3.36909 8.43049C3.13138 8.25201 3.08344 7.91462 3.26182 7.67678L4.33874 6.24089L4.37941 6.19251C4.48038 6.08657 4.62106 6.02564 4.76923 6.02564ZM15 14.031C14.9999 14.288 14.8977 14.5343 14.716 14.716C14.5343 14.8977 14.288 14.9999 14.031 15H1.96895C1.712 14.9999 1.46565 14.8977 1.28395 14.716C1.10225 14.5343 1.00007 14.288 1 14.031V1.96895C1.00007 1.712 1.10225 1.46565 1.28395 1.28395C1.46565 1.10225 1.712 1.00007 1.96895 1H14.031C14.288 1.00007 14.5343 1.10225 14.716 1.28395C14.8977 1.46565 14.9999 1.712 15 1.96895V14.031Z" fill="#787878"/>
<path d="M14.9004 1.96875C14.9003 1.73842 14.8084 1.51741 14.6455 1.35449C14.4826 1.19157 14.2616 1.09974 14.0312 1.09961H1.96875C1.73842 1.09974 1.51741 1.19157 1.35449 1.35449C1.19157 1.51741 1.09974 1.73842 1.09961 1.96875V14.0312C1.09974 14.2616 1.19157 14.4826 1.35449 14.6455C1.51741 14.8084 1.73842 14.9003 1.96875 14.9004H14.0312C14.2616 14.9003 14.4826 14.8084 14.6455 14.6455C14.8084 14.4826 14.9003 14.2616 14.9004 14.0312V1.96875ZM7.46191 1.97656C7.51697 1.97676 7.56152 2.02204 7.56152 2.07715V13.9229C7.56152 13.978 7.51697 14.0232 7.46191 14.0234H2.07715C2.02192 14.0234 1.97656 13.9781 1.97656 13.9229V2.07715C1.97656 2.02192 2.02192 1.97656 2.07715 1.97656H7.46191ZM13.9229 1.97656C13.9781 1.97656 14.0234 2.02192 14.0234 2.07715V13.9229C14.0234 13.9781 13.9781 14.0234 13.9229 14.0234H8.53809C8.48303 14.0232 8.43848 13.978 8.43848 13.9229V2.07715C8.43848 2.02204 8.48303 1.97676 8.53809 1.97656H13.9229ZM8.63867 13.8232H13.8232V2.17676H8.63867V13.8232ZM2.17676 13.8232H7.36133V2.17676H2.17676V13.8232ZM11.8848 7.52148C12.1069 7.3248 12.4438 7.30459 12.6904 7.48926C12.9721 7.70086 13.0295 8.10094 12.8184 8.38281L11.7412 9.81934C11.6207 9.97982 11.4313 10.0742 11.2305 10.0742C11.0298 10.0741 10.8412 9.97963 10.7207 9.81934L9.64355 8.38281C9.43224 8.10087 9.48865 7.70088 9.77051 7.48926C10.0173 7.30422 10.3549 7.32452 10.5771 7.52148L10.6641 7.61719L11.2305 8.37109L11.7969 7.61719L11.8848 7.52148ZM12.5713 7.64941C12.3776 7.50413 12.1023 7.54379 11.957 7.7373L11.9561 7.73633L11.3105 8.59863C11.2917 8.62368 11.2619 8.63867 11.2305 8.63867C11.1991 8.63858 11.1692 8.62373 11.1504 8.59863L10.5039 7.73633C10.3585 7.5433 10.0842 7.5043 9.89062 7.64941C9.69711 7.7947 9.65842 8.06995 9.80371 8.26367L10.8799 9.69922C10.9627 9.80948 11.0927 9.87393 11.2305 9.87402C11.3683 9.87402 11.4982 9.80943 11.5811 9.69922L12.6582 8.26367C12.8034 8.07003 12.7646 7.79475 12.5713 7.64941ZM4.76953 5.92578C4.9702 5.92588 5.1588 6.02037 5.2793 6.18066L6.35645 7.61719C6.56776 7.89913 6.51135 8.29912 6.22949 8.51074C5.94755 8.72216 5.54759 8.66471 5.33594 8.38281L4.76953 7.62695L4.20312 8.38281C3.99157 8.66458 3.59149 8.72182 3.30957 8.51074C3.0279 8.29914 2.97052 7.89906 3.18164 7.61719L4.26172 6.17676L4.30273 6.12793L4.30664 6.12305C4.42639 5.99743 4.5939 5.92578 4.76953 5.92578ZM4.76953 6.12598C4.64887 6.12598 4.53433 6.17553 4.45215 6.26172L4.41504 6.30566L3.3418 7.73633C3.19657 7.92997 3.2354 8.20525 3.42871 8.35059C3.59822 8.47772 3.82986 8.46327 3.98242 8.32812L4.04297 8.2627L4.68945 7.40039L4.72461 7.37109C4.73826 7.36431 4.75387 7.36035 4.76953 7.36035C4.80085 7.36045 4.83078 7.37535 4.84961 7.40039L5.49512 8.2627C5.64039 8.45619 5.91566 8.49584 6.10938 8.35059C6.30289 8.2053 6.34158 7.93005 6.19629 7.73633L5.12012 6.30078C5.03733 6.19052 4.9073 6.12607 4.76953 6.12598ZM15.0996 14.0312C15.0995 14.3147 14.9875 14.5867 14.7871 14.7871C14.5867 14.9875 14.3147 15.0995 14.0312 15.0996H1.96875C1.68532 15.0995 1.41328 14.9875 1.21289 14.7871C1.0125 14.5867 0.900518 14.3147 0.900391 14.0312V1.96875C0.900518 1.68532 1.0125 1.41328 1.21289 1.21289C1.41328 1.0125 1.68532 0.900518 1.96875 0.900391H14.0312C14.3147 0.900518 14.5867 1.0125 14.7871 1.21289C14.9875 1.41328 15.0995 1.68532 15.0996 1.96875V14.0312Z" fill="#787878"/>
</g>
<defs>
<clipPath id="clip0_1130_15666">
<rect width="16" height="16" fill="white"/>
</clipPath>
</defs>
</svg>
