<svg viewBox="0 0 16 16" fill="none" xmlns="http://www.w3.org/2000/svg">
<path d="M7.39444 12.9695V7.69682H4.12172C3.72005 7.69682 3.39444 7.37121 3.39444 6.96955C3.39457 6.568 3.72013 6.24228 4.12172 6.24228H4.8078C4.94578 5.61384 5.25979 5.03176 5.72186 4.56969C6.18406 4.10758 6.76585 3.7928 7.39444 3.65492V3.63645C7.39444 3.23479 7.72005 2.90918 8.12172 2.90918C8.52327 2.90931 8.84899 3.23487 8.84899 3.63645V3.65563C9.47746 3.7936 10.0595 4.1076 10.5216 4.56969C10.9837 5.03178 11.2977 5.6138 11.4356 6.24228H12.1217C12.5232 6.2424 12.8489 6.56808 12.849 6.96955C12.849 7.37113 12.5233 7.69669 12.1217 7.69682H8.84899V12.9695C8.84899 13.3711 8.52327 13.6967 8.12172 13.6968C7.72005 13.6968 7.39444 13.3712 7.39444 12.9695ZM14.0606 12.9695V10.3637H11.5152V12.9695C11.5152 13.3712 11.1896 13.6968 10.7879 13.6968C10.3864 13.6967 10.0606 13.3711 10.0606 12.9695V10.3034C10.0606 9.93372 10.2077 9.57896 10.469 9.31756L10.5713 9.22452C10.8193 9.02134 11.1314 8.90918 11.4548 8.90918H14.0606V3.63645C14.0606 3.23487 14.3864 2.90931 14.7879 2.90918C15.1896 2.90918 15.5152 3.23479 15.5152 3.63645V12.9695C15.5152 13.3712 15.1896 13.6968 14.7879 13.6968C14.3864 13.6967 14.0606 13.3711 14.0606 12.9695ZM8.12172 5.03063C7.60747 5.03063 7.11395 5.23454 6.75027 5.5981C6.56464 5.78372 6.42075 6.00357 6.32413 6.24228H9.91859C9.82197 6.0036 9.67877 5.7837 9.49316 5.5981C9.12951 5.23445 8.63599 5.03069 8.12172 5.03063ZM6.18208 12.9695C6.18208 13.3712 5.85647 13.6968 5.45481 13.6968C5.05315 13.6968 4.72754 13.3712 4.72754 12.9695V10.3637H2.18208V12.9695C2.18208 13.3712 1.85647 13.6968 1.45481 13.6968C1.05315 13.6968 0.727539 13.3712 0.727539 12.9695V3.63645C0.727539 3.23479 1.05315 2.90918 1.45481 2.90918C1.85647 2.90918 2.18208 3.23479 2.18208 3.63645V8.90918H4.78791C5.15318 8.90918 5.51436 9.03407 5.78578 9.30549C6.05719 9.5769 6.18208 9.93809 6.18208 10.3034V12.9695Z" fill="currentColor"/>
</svg>
