<svg width="24" height="24" viewBox="0 0 24 24" fill="none" xmlns="http://www.w3.org/2000/svg">
<path d="M11.3516 21.6004C11.9245 21.6004 12.4739 21.3728 12.879 20.9677C13.2841 20.5627 13.5116 20.0133 13.5116 19.4404V17.6375C13.3964 17.5594 13.287 17.4692 13.1833 17.3668L12.0716 16.2542V19.4404C12.0716 19.6313 11.9958 19.8145 11.8608 19.9495C11.7257 20.0845 11.5426 20.1604 11.3516 20.1604H5.59164C5.40068 20.1604 5.21755 20.0845 5.08252 19.9495C4.9475 19.8145 4.87164 19.6313 4.87164 19.4404V4.56039C4.87164 4.36943 4.9475 4.1863 5.08252 4.05127C5.21755 3.91625 5.40068 3.84039 5.59164 3.84039H11.3516C11.5426 3.84039 11.7257 3.91625 11.8608 4.05127C11.9958 4.1863 12.0716 4.36943 12.0716 4.56039V7.74663L13.1833 6.63303C13.2857 6.53063 13.3952 6.44103 13.5116 6.36423V4.56039C13.5116 3.98752 13.2841 3.43812 12.879 3.03304C12.4739 2.62796 11.9245 2.40039 11.3516 2.40039H5.59164C5.01877 2.40039 4.46937 2.62796 4.06429 3.03304C3.65921 3.43812 3.43164 3.98752 3.43164 4.56039V19.4404C3.43164 20.0133 3.65921 20.5627 4.06429 20.9677C4.46937 21.3728 5.01877 21.6004 5.59164 21.6004H11.3516Z" fill="#222222"/>
<path d="M19.0316 12.0004C19.0316 11.7834 18.9356 11.5895 18.784 11.457L14.9814 7.65159C14.915 7.58279 14.8356 7.5279 14.7478 7.49013C14.6599 7.45235 14.5655 7.43245 14.4699 7.43157C14.3743 7.4307 14.2795 7.44887 14.191 7.48503C14.1025 7.52119 14.022 7.57461 13.9544 7.64218C13.8868 7.70975 13.8333 7.79012 13.797 7.87859C13.7608 7.96705 13.7425 8.06186 13.7433 8.15746C13.7441 8.25306 13.7639 8.34754 13.8016 8.4354C13.8393 8.52327 13.8941 8.60274 13.9628 8.66919L16.5721 11.2804H10.8716C10.6807 11.2804 10.4975 11.3562 10.3625 11.4913C10.2275 11.6263 10.1516 11.8094 10.1516 12.0004C10.1516 12.1913 10.2275 12.3745 10.3625 12.5095C10.4975 12.6445 10.6807 12.7204 10.8716 12.7204H16.5721L13.9628 15.3316C13.8357 15.4681 13.7664 15.6486 13.7697 15.8351C13.773 16.0217 13.8486 16.1996 13.9805 16.3315C14.1124 16.4635 14.2904 16.539 14.4769 16.5423C14.6634 16.5456 14.844 16.4764 14.9804 16.3492L18.7859 12.5418C18.863 12.4743 18.9249 12.391 18.9673 12.2977C19.0096 12.2043 19.0316 12.1029 19.0316 12.0004Z" fill="#222222"/>
</svg>
