<svg width="24" height="24" viewBox="0 0 24 24" fill="none" xmlns="http://www.w3.org/2000/svg">
<path d="M1.99902 19.0002V4.99927C1.99921 4.20388 2.31549 3.44061 2.87793 2.87817C3.44041 2.31575 4.2036 1.9994 4.99902 1.99927H11.9995C12.5517 1.99927 12.9999 2.44758 13 2.99976C13 3.55204 12.5518 4.00024 11.9995 4.00024H4.99902C4.73404 4.00037 4.48038 4.10586 4.29297 4.29321C4.1056 4.48058 4.00019 4.73431 4 4.99927V19.0002C4.00007 19.2654 4.10549 19.5203 4.29297 19.7078C4.48033 19.8948 4.73428 19.9991 4.99902 19.9993H19C19.2647 19.9991 19.5187 19.8948 19.7061 19.7078C19.8935 19.5203 19.999 19.2654 19.999 19.0002V11.9998C19.9991 11.4476 20.4473 10.9993 20.9995 10.9993C21.5517 10.9993 21.9999 11.4476 22 11.9998V19.0002C21.9999 19.7957 21.6836 20.5588 21.1211 21.1213C20.5586 21.6838 19.7955 22.0001 19 22.0002H4.99902C4.20355 22.0001 3.44042 21.6838 2.87793 21.1213C2.31545 20.5588 1.99909 19.7957 1.99902 19.0002ZM20.9951 4.12476C20.9951 3.82745 20.8772 3.54251 20.667 3.33228C20.4567 3.12206 20.1719 3.00415 19.8745 3.00415C19.5772 3.00415 19.2923 3.12206 19.082 3.33228L9.90186 12.511L9.37305 14.6248L11.4854 14.0974L20.667 4.91724C20.8772 4.70696 20.9951 4.42209 20.9951 4.12476ZM22.9961 4.12476C22.9961 4.95253 22.6673 5.74693 22.082 6.33228L12.707 15.7073C12.5791 15.8353 12.4182 15.9255 12.2427 15.9695L8.24219 16.97C7.9017 17.0551 7.54133 16.9557 7.29297 16.7078C7.04459 16.4594 6.9441 16.0979 7.0293 15.7571L8.02979 11.7581L8.0708 11.6292C8.12092 11.5036 8.19576 11.3885 8.29199 11.2922L17.667 1.91724C18.2523 1.33195 19.0467 1.00317 19.8745 1.00317C20.7023 1.00317 21.4967 1.33195 22.082 1.91724C22.6673 2.50254 22.996 3.29701 22.9961 4.12476Z" fill="#222222"/>
</svg>
