<svg viewBox="0 0 16 16" fill="currentColor" xmlns="http://www.w3.org/2000/svg">
<path d="M14 11.333C13.9999 11.1565 13.9294 10.9872 13.8047 10.8623C13.6797 10.7373 13.5098 10.667 13.333 10.667H12C11.8232 10.667 11.6533 10.7373 11.5283 10.8623C11.4035 10.9872 11.3331 11.1564 11.333 11.333V12H14V11.333ZM2 4V4.66699C2.00009 4.84369 2.07036 5.01275 2.19531 5.1377C2.32026 5.26264 2.48932 5.33292 2.66602 5.33301H4C4.17669 5.33292 4.34576 5.26264 4.4707 5.1377C4.59565 5.01275 4.66593 4.84369 4.66602 4.66699V4H2ZM6 4.66699C5.99991 5.19731 5.78906 5.70606 5.41406 6.08105C5.03907 6.45605 4.53032 6.66691 4 6.66699V11.667C4.00009 12.1089 4.1758 12.5322 4.48828 12.8447C4.80076 13.1572 5.2241 13.3329 5.66602 13.333C6.10804 13.333 6.53217 13.1573 6.84473 12.8447C7.15711 12.5323 7.33292 12.1088 7.33301 11.667V4.33301C7.33309 3.53748 7.64938 2.77445 8.21191 2.21191C8.77451 1.64941 9.53743 1.33301 10.333 1.33301C11.1286 1.33301 11.8915 1.64941 12.4541 2.21191C13.0166 2.77445 13.3329 3.53748 13.333 4.33301V9.33301C13.8634 9.33301 14.372 9.54397 14.7471 9.91895C15.1221 10.2939 15.3329 10.8027 15.333 11.333V12C15.333 12.3535 15.1923 12.6923 14.9424 12.9424C14.8595 13.0253 14.7658 13.0947 14.666 13.1523V14C14.666 14.3681 14.368 14.6668 14 14.667C13.6318 14.667 13.333 14.3682 13.333 14V13.333H12V14C12 14.3682 11.7012 14.667 11.333 14.667C10.9648 14.667 10.666 14.3682 10.666 14V13.1523C10.5664 13.0947 10.4734 13.0251 10.3906 12.9424C10.1406 12.6923 10 12.3536 10 12V11.333C10.0001 10.8027 10.2109 10.2939 10.5859 9.91895C10.914 9.591 11.3441 9.38826 11.8018 9.34277L12 9.33301V4.33301C11.9999 3.89125 11.824 3.46773 11.5117 3.15527C11.1992 2.84271 10.775 2.66699 10.333 2.66699C9.89098 2.66699 9.46686 2.84271 9.1543 3.15527C8.84202 3.46773 8.6661 3.89125 8.66602 4.33301V11.667C8.66593 12.4624 8.35052 13.2256 7.78809 13.7881C7.22548 14.3507 6.46166 14.667 5.66602 14.667C4.87048 14.6669 4.10745 14.3506 3.54492 13.7881C2.98239 13.2256 2.6661 12.4625 2.66602 11.667V6.66699C2.1357 6.66691 1.62695 6.45605 1.25195 6.08105C0.876957 5.70606 0.666102 5.19731 0.666016 4.66699V4C0.666016 3.64653 0.806796 3.30763 1.05664 3.05762C1.13959 2.97467 1.23317 2.90439 1.33301 2.84668V2C1.33301 1.63181 1.63181 1.33301 2 1.33301C2.36804 1.33318 2.66602 1.63192 2.66602 2V2.66699H4V2C4 1.63192 4.29798 1.33318 4.66602 1.33301C5.03421 1.33301 5.33301 1.63181 5.33301 2V2.84668C5.43284 2.90439 5.52642 2.97467 5.60938 3.05762C5.85922 3.30763 6 3.64653 6 4V4.66699Z" stroke="currentColor"/>
</svg>
