<svg width="8" height="14" viewBox="0 0 8 14" fill="none" xmlns="http://www.w3.org/2000/svg">
<path d="M2.32499 13.3188V8.22717H0.380631C0.279682 8.22717 0.182867 8.18698 0.111484 8.11543C0.0401022 8.04389 0 7.94686 0 7.84568V5.83183C0 5.73066 0.0401022 5.63362 0.111484 5.56208C0.182867 5.49054 0.279682 5.45034 0.380631 5.45034H2.31731V3.5009C2.27098 3.0386 2.3262 2.57173 2.4791 2.1331C2.63199 1.69447 2.87884 1.29471 3.20232 0.961894C3.5258 0.629078 3.91806 0.37128 4.35155 0.206607C4.78504 0.0419346 5.24925 -0.0256196 5.71156 0.0086898H7.33187C7.43378 0.00848958 7.53168 0.0484498 7.60445 0.119949C7.67723 0.191449 7.71905 0.288757 7.72088 0.39088V2.09603C7.71869 2.19798 7.67674 2.295 7.60402 2.36631C7.5313 2.43763 7.4336 2.47755 7.33187 2.47752H6.31918C5.22547 2.47752 5.01525 2.99691 5.01525 3.76059V5.44965H7.61542C7.66946 5.44785 7.72324 5.45788 7.77303 5.47902C7.82281 5.50017 7.8674 5.53194 7.90369 5.57211C7.93998 5.61228 7.96711 5.6599 7.98318 5.71164C7.99925 5.76338 8.00388 5.81801 7.99675 5.87173L7.76139 7.89328C7.7496 7.98587 7.70435 8.07092 7.6342 8.13232C7.56406 8.19372 7.47388 8.22722 7.38075 8.22647H5.03132V13.3181C5.03264 13.4081 5.01592 13.4974 4.98216 13.5808C4.9484 13.6641 4.89828 13.7398 4.83477 13.8034C4.77126 13.867 4.69567 13.9172 4.61246 13.9509C4.52925 13.9847 4.44012 14.0013 4.35037 13.9999H2.99756C2.90851 14.0002 2.82029 13.9827 2.73806 13.9485C2.65582 13.9142 2.58122 13.8639 2.51861 13.8004C2.456 13.7369 2.40663 13.6616 2.37339 13.5788C2.34015 13.496 2.32369 13.4081 2.32499 13.3188Z" fill="#519C2C"/>
</svg>
