<svg viewBox="0 0 19 17" fill="none" xmlns="http://www.w3.org/2000/svg">
<path d="M9.2 16.6667C8.99043 16.6665 8.78951 16.5813 8.64142 16.43L1.50636 9.12419C0.540822 8.11855 0 6.76651 0 5.35833C0 3.95015 0.540822 2.59811 1.50636 1.59247C2.4847 0.593772 3.81157 0.0327159 5.19509 0.0327159C6.57861 0.0327159 7.90547 0.593772 8.88382 1.59247L9.2 1.87222L9.4951 1.57095C9.97883 1.07171 10.555 0.675706 11.1901 0.406011C11.8252 0.136316 12.5065 -0.00168206 13.1944 5.31363e-05C13.8815 -0.00308971 14.5623 0.133215 15.1974 0.401046C15.8325 0.668876 16.409 1.06289 16.8936 1.56019C17.8592 2.56583 18.4 3.91788 18.4 5.32605C18.4 6.73423 17.8592 8.08627 16.8936 9.09191L9.75858 16.3977C9.68792 16.4785 9.60205 16.544 9.50609 16.5902C9.41012 16.6364 9.30602 16.6624 9.2 16.6667Z" stroke="currentColor" stroke-width="1.5"/>
</svg>
