<svg viewBox="0 0 16 16" fill="currentColor" xmlns="http://www.w3.org/2000/svg">
<path d="M3.33398 6.6665H12.6673M10 4.66667V8.66667M3.33398 4.00016C3.33398 3.29292 3.61494 2.61464 4.11503 2.11454C4.61513 1.61445 5.29341 1.3335 6.00065 1.3335H10.0007C10.7079 1.3335 11.3862 1.61445 11.8863 2.11454C12.3864 2.61464 12.6673 3.29292 12.6673 4.00016V13.3335C12.6673 13.6871 12.5268 14.0263 12.2768 14.2763C12.0267 14.5264 11.6876 14.6668 11.334 14.6668H4.66732C4.3137 14.6668 3.97456 14.5264 3.72451 14.2763C3.47446 14.0263 3.33398 13.6871 3.33398 13.3335V4.00016Z" stroke="currentColor" stroke-width="1.33333" stroke-linecap="round" stroke-linejoin="round"/>
</svg>
