<svg viewBox="0 0 20 20" fill="none" xmlns="http://www.w3.org/2000/svg">
<path d="M11.1009 12.8909C11.7485 12.8909 12.3699 13.1338 12.8278 13.5659C13.1348 13.8556 13.3496 14.2153 13.4593 14.6049H17.7082C18.0532 14.6049 18.333 14.8691 18.3332 15.1947C18.3332 15.5204 18.0533 15.7844 17.7082 15.7844H13.4593C13.3497 16.1745 13.1351 16.5349 12.8278 16.825C12.3699 17.2571 11.7485 17.4999 11.1009 17.5C10.4526 17.5 9.83141 17.2558 9.37402 16.8242C9.06674 16.5342 8.85276 16.1741 8.74333 15.7844H2.2915C1.94633 15.7844 1.6665 15.5204 1.6665 15.1947C1.6667 14.8691 1.94645 14.6049 2.2915 14.6049H8.74333C8.85282 14.2155 9.06693 13.8557 9.37402 13.5659C9.83192 13.1338 10.4533 12.8909 11.1009 12.8909ZM11.1009 14.0704C10.7849 14.0704 10.4813 14.189 10.2578 14.3999C10.0345 14.6107 9.90879 14.8966 9.90869 15.1947C9.90869 15.4929 10.0344 15.7794 10.2578 15.9902C10.4818 16.2016 10.7856 16.3205 11.1009 16.3205C11.4168 16.3204 11.7197 16.2017 11.9432 15.991C12.1669 15.7799 12.2931 15.4928 12.2931 15.1947C12.293 14.8969 12.167 14.6111 11.9432 14.3999C11.7197 14.1891 11.4169 14.0705 11.1009 14.0704ZM5.59473 7.69582C6.24229 7.69582 6.86371 7.93798 7.32161 8.37007C7.62888 8.66001 7.84285 9.02021 7.95231 9.40984H17.7082C18.0533 9.40984 18.3332 9.67389 18.3332 9.99962C18.3331 10.3253 18.0533 10.5894 17.7082 10.5894H7.95231C7.84287 10.9788 7.62868 11.3385 7.32161 11.6284C6.86371 12.0605 6.2423 12.3034 5.59473 12.3034C4.9472 12.3034 4.32653 12.0605 3.86865 11.6284C3.56147 11.3385 3.34745 10.9789 3.23796 10.5894H2.2915C1.94636 10.5894 1.66655 10.3253 1.6665 9.99962C1.6665 9.67389 1.94633 9.40984 2.2915 9.40984H3.23714C3.3466 9.02019 3.56137 8.66002 3.86865 8.37007C4.3265 7.93818 4.94734 7.69585 5.59473 7.69582ZM5.59473 8.87536C5.27886 8.87539 4.97587 8.99336 4.75244 9.20404C4.52896 9.41492 4.40332 9.70138 4.40332 9.99962C4.40334 10.2978 4.52899 10.5836 4.75244 10.7944C4.9759 11.0053 5.27872 11.1238 5.59473 11.1239C5.91078 11.1239 6.21434 11.0053 6.43783 10.7944C6.66109 10.5836 6.78611 10.2977 6.78613 9.99962C6.78613 9.70138 6.66131 9.41492 6.43783 9.20404C6.21435 8.99316 5.91077 8.87536 5.59473 8.87536ZM13.3031 2.5C13.6236 2.5 13.9412 2.55938 14.2373 2.67509C14.5335 2.79088 14.8032 2.96106 15.0299 3.17501C15.2565 3.38889 15.4363 3.64281 15.5589 3.92221C15.6006 4.01713 15.6329 4.11514 15.6606 4.21402H17.7082C18.0533 4.21402 18.333 4.47818 18.3332 4.80379C18.3332 5.12952 18.0533 5.39356 17.7082 5.39356H15.6606C15.6329 5.4925 15.6006 5.5904 15.5589 5.68538C15.4362 5.96489 15.2566 6.21941 15.0299 6.43334C14.8032 6.64729 14.5335 6.81671 14.2373 6.9325C13.9411 7.04825 13.6237 7.10836 13.3031 7.10836C12.6556 7.10833 12.0348 6.86528 11.577 6.43334C11.2697 6.14335 11.0549 5.78327 10.9455 5.39356H2.2915C1.94633 5.39356 1.6665 5.12952 1.6665 4.80379C1.66664 4.47818 1.94641 4.21402 2.2915 4.21402H10.9463C11.0558 3.82456 11.2698 3.46485 11.577 3.17501C12.0349 2.74299 12.6556 2.50003 13.3031 2.5ZM13.3031 3.67954C12.9871 3.67957 12.6842 3.79817 12.4608 4.00898C12.2374 4.21981 12.1117 4.50565 12.1117 4.80379C12.1117 5.10203 12.2373 5.38849 12.4608 5.59937C12.6842 5.8101 12.9872 5.92879 13.3031 5.92881C13.4596 5.92881 13.615 5.89932 13.7596 5.8428C13.904 5.7863 14.0356 5.7037 14.1462 5.59937C14.2567 5.49502 14.3443 5.37092 14.4041 5.2346C14.464 5.09817 14.4945 4.95147 14.4945 4.80379C14.4944 4.65622 14.464 4.51009 14.4041 4.37375C14.3443 4.23741 14.2567 4.11336 14.1462 4.00898C14.0356 3.90462 13.9041 3.82129 13.7596 3.76478C13.615 3.70827 13.4596 3.67954 13.3031 3.67954Z" fill="#222222"/>
</svg>
