<svg viewBox="0 0 16 16" xmlns="http://www.w3.org/2000/svg" fill-rule="evenodd">
<path d="M7.99989 14.6666C7.83224 14.6665 7.6715 14.5984 7.55303 14.4773L1.84498 8.63266C1.07255 7.82815 0.639893 6.74652 0.639893 5.61998C0.639893 4.49344 1.07255 3.4118 1.84498 2.60729C2.62766 1.80833 3.68915 1.35949 4.79596 1.35949C5.90278 1.35949 6.96427 1.80833 7.74695 2.60729L7.99989 2.83109L8.23597 2.59008C8.62295 2.19068 9.08391 1.87388 9.59198 1.65812C10.1001 1.44237 10.6451 1.33197 11.1954 1.33336C11.7451 1.33084 12.2898 1.43988 12.7978 1.65415C13.3059 1.86841 13.7671 2.18363 14.1548 2.58147C14.9272 3.38598 15.3599 4.46761 15.3599 5.59416C15.3599 6.7207 14.9272 7.80233 14.1548 8.60684L8.44676 14.4515C8.39023 14.5161 8.32153 14.5685 8.24476 14.6055C8.16799 14.6424 8.08471 14.6632 7.99989 14.6666ZM4.8044 2.6159C4.42147 2.61305 4.04178 2.68765 3.68723 2.83539C3.33269 2.98313 3.01032 3.20108 2.73871 3.47667C2.1914 4.03802 1.88414 4.79782 1.88414 5.58985C1.88414 6.38189 2.1914 7.14168 2.73871 7.70304L7.99989 13.1087L13.2526 7.72025C13.5247 7.44285 13.7405 7.11344 13.8877 6.75084C14.0349 6.38825 14.1107 5.99958 14.1107 5.60707C14.1107 5.21455 14.0349 4.82589 13.8877 4.46329C13.7405 4.10069 13.5247 3.77128 13.2526 3.49388C12.9832 3.21777 12.6624 2.9994 12.3091 2.85159C11.9558 2.70378 11.5772 2.6295 11.1954 2.63311C10.8125 2.63027 10.4328 2.70487 10.0782 2.8526C9.72368 3.00034 9.40131 3.21829 9.1297 3.49388L8.44676 4.1911C8.32613 4.30795 8.16618 4.3731 7.99989 4.3731C7.8336 4.3731 7.67366 4.30795 7.55303 4.1911L6.87009 3.49388C6.59987 3.21518 6.27812 2.99406 5.92351 2.84334C5.56891 2.69262 5.18851 2.61531 4.8044 2.6159Z" fill="currentColor"/>
</svg>
