<svg width="11" height="14" viewBox="0 0 11 14" fill="none" xmlns="http://www.w3.org/2000/svg">
<path d="M0.571429 0C0.419876 0 0.274531 0.0585315 0.167367 0.162718C0.0602038 0.266905 0 0.408213 0 0.555556C0 0.702898 0.0602038 0.844206 0.167367 0.948393C0.274531 1.05258 0.419876 1.11111 0.571429 1.11111H10.0952C10.2468 1.11111 10.3921 1.05258 10.4993 0.948393C10.6065 0.844206 10.6667 0.702898 10.6667 0.555556C10.6667 0.408213 10.6065 0.266905 10.4993 0.162718C10.3921 0.0585315 10.2468 0 10.0952 0H0.571429ZM3.21676 8.31037C3.31352 8.21628 3.44178 8.15908 3.57825 8.14915C3.71471 8.13923 3.85031 8.17725 3.96038 8.2563L4.02438 8.31037L4.9539 9.21481V6.94074L4.95238 6.92148V4.11852L4.02286 5.02296L3.95886 5.07704C3.84877 5.15668 3.71287 5.19515 3.57601 5.18541C3.43915 5.17567 3.31046 5.11837 3.21347 5.02399C3.11648 4.9296 3.05767 4.80444 3.04778 4.67137C3.0379 4.5383 3.07759 4.40622 3.15962 4.29926L3.21524 4.23704L5.01867 2.48148C5.07324 2.3999 5.14837 2.33324 5.23693 2.28786C5.32548 2.24248 5.4245 2.21989 5.52457 2.22222C5.71657 2.22222 5.88648 2.30296 5.9901 2.42667L6.03048 2.48222L7.8339 4.23778L7.88952 4.3C7.96129 4.39439 8.00046 4.50845 8.00142 4.62582C8.00238 4.7432 7.96507 4.85785 7.89486 4.95333L7.8339 5.02296L7.7699 5.07704C7.67275 5.14698 7.55528 5.18516 7.43439 5.18609C7.3135 5.18702 7.19543 5.15066 7.09714 5.08222L7.02552 5.02296L6.09524 4.11852V6.39259L6.09676 6.41185V9.21481L7.02705 8.31037C7.12384 8.21609 7.25226 8.15876 7.3889 8.14884C7.52554 8.13891 7.66129 8.17705 7.77143 8.2563L7.83543 8.31037C7.93209 8.40453 7.99079 8.52928 8.00086 8.66195C8.01092 8.79463 7.97169 8.9264 7.89029 9.03333L7.83543 9.0963L6.032 10.8519C5.97743 10.9334 5.90229 11.0001 5.81374 11.0455C5.72519 11.0909 5.62617 11.1134 5.5261 11.1111C5.42602 11.1134 5.327 11.0909 5.23845 11.0455C5.1499 11.0001 5.07476 10.9334 5.02019 10.8519L3.21676 9.0963C3.16366 9.0447 3.12154 8.98344 3.0928 8.91602C3.06406 8.84859 3.04926 8.77632 3.04926 8.70333C3.04926 8.63035 3.06406 8.55808 3.0928 8.49065C3.12154 8.42322 3.16366 8.36196 3.21676 8.31037ZM0 12.7778C0 12.6304 0.0602038 12.4891 0.167367 12.3849C0.274531 12.2808 0.419876 12.2222 0.571429 12.2222H10.0952C10.2468 12.2222 10.3921 12.2808 10.4993 12.3849C10.6065 12.4891 10.6667 12.6304 10.6667 12.7778C10.6667 12.9251 10.6065 13.0664 10.4993 13.1706C10.3921 13.2748 10.2468 13.3333 10.0952 13.3333H0.571429C0.419876 13.3333 0.274531 13.2748 0.167367 13.1706C0.0602038 13.0664 0 12.9251 0 12.7778Z" fill="#222222"/>
</svg>
