<svg width="16" height="16" viewBox="0 0 16 16" fill="currentColor" xmlns="http://www.w3.org/2000/svg">
<path d="M13.4444 5.74976V3.49976C13.4444 3.10193 13.2806 2.7204 12.9888 2.4391C12.6971 2.15779 12.3014 1.99976 11.8889 1.99976H4.11111C3.69855 1.99976 3.30289 2.15779 3.01117 2.4391C2.71944 2.7204 2.55556 3.10193 2.55556 3.49976V5.74976M13.4444 5.74976C13.857 5.74976 14.2527 5.90779 14.5444 6.1891C14.8361 6.4704 15 6.85193 15 7.24976V10.9998C15 11.3976 14.8361 11.7791 14.5444 12.0604C14.2527 12.3417 13.857 12.4998 13.4444 12.4998M13.4444 5.74976C13.0319 5.74976 12.6362 5.90779 12.3445 6.1891C12.0528 6.4704 11.8889 6.85193 11.8889 7.24976V8.74976H4.11111V7.24976C4.11111 6.85193 3.94722 6.4704 3.6555 6.1891C3.36378 5.90779 2.96811 5.74976 2.55556 5.74976M2.55556 5.74976C2.143 5.74976 1.74733 5.90779 1.45561 6.1891C1.16389 6.4704 1 6.85193 1 7.24976V10.9998C1 11.3976 1.16389 11.7791 1.45561 12.0604C1.74733 12.3417 2.143 12.4998 2.55556 12.4998M2.55556 12.4998H13.4444M2.55556 12.4998L2.55556 13.9998M13.4444 12.4998V13.9998" stroke="currentColor" stroke-width="1.33333" stroke-linecap="round" stroke-linejoin="round"/>
</svg>
