<svg width="25" height="24" viewBox="0 0 25 24" fill="currentColor" xmlns="http://www.w3.org/2000/svg">
<path d="M12.5 22C12.238 21.9998 11.9869 21.8976 11.8018 21.7159L2.88295 12.949C1.67603 11.7423 1 10.1198 1 8.43C1 6.74019 1.67603 5.11773 2.88295 3.91097C4.10588 2.71253 5.76446 2.03926 7.49386 2.03926C9.22326 2.03926 10.8818 2.71253 12.1048 3.91097L12.5 4.24667L12.8689 3.88514C13.4735 3.28605 14.1938 2.81085 14.9876 2.48721C15.7815 2.16358 16.6332 1.99798 17.493 2.00006C18.3518 1.99629 19.2029 2.15986 19.9967 2.48125C20.7906 2.80265 21.5113 3.27547 22.1171 3.87223C23.324 5.079 24 6.70145 24 8.39126C24 10.0811 23.324 11.7035 22.1171 12.9103L13.1982 21.6772C13.1099 21.7742 13.0026 21.8528 12.8826 21.9082C12.7627 21.9637 12.6325 21.9949 12.5 22ZM7.50704 3.92388C6.90871 3.91961 6.31545 4.03151 5.76147 4.25311C5.2075 4.47472 4.70379 4.80165 4.2794 5.21503C3.42423 6.05706 2.94414 7.19676 2.94414 8.38481C2.94414 9.57286 3.42423 10.7126 4.2794 11.5546L12.5 19.663L20.7074 11.5804C21.1325 11.1643 21.4696 10.6702 21.6997 10.1263C21.9297 9.5824 22.0481 8.9994 22.0481 8.41063C22.0481 7.82186 21.9297 7.23886 21.6997 6.69497C21.4696 6.15107 21.1325 5.65695 20.7074 5.24085C20.2864 4.82669 19.7851 4.49914 19.2331 4.27742C18.6811 4.0557 18.0895 3.94428 17.493 3.9497C16.8946 3.94543 16.3014 4.05733 15.7474 4.27894C15.1934 4.50054 14.6897 4.82747 14.2653 5.24085L13.1982 6.28669C13.0097 6.46196 12.7598 6.55968 12.5 6.55968C12.2402 6.55968 11.9903 6.46196 11.8018 6.28669L10.7347 5.24085C10.3125 4.82281 9.80973 4.49112 9.25566 4.26504C8.70158 4.03896 8.10721 3.923 7.50704 3.92388Z" fill="currentColor"/>
</svg>
