<svg viewBox="0 0 16 16" fill="none" xmlns="http://www.w3.org/2000/svg">
<path d="M7.99989 14.6667C7.83224 14.6666 7.6715 14.5984 7.55303 14.4773L1.84498 8.63273C1.07255 7.82821 0.639893 6.74658 0.639893 5.62004C0.639893 4.4935 1.07255 3.41186 1.84498 2.60735C2.62766 1.80839 3.68915 1.35955 4.79596 1.35955C5.90278 1.35955 6.96427 1.80839 7.74695 2.60735L7.99989 2.83115L8.23597 2.59014C8.62295 2.19074 9.08391 1.87394 9.59198 1.65818C10.1001 1.44243 10.6451 1.33203 11.1954 1.33342C11.7451 1.3309 12.2898 1.43995 12.7978 1.65421C13.3059 1.86848 13.7671 2.18369 14.1548 2.58153C14.9272 3.38604 15.3599 4.46767 15.3599 5.59422C15.3599 6.72076 14.9272 7.80239 14.1548 8.6069L8.44676 14.4515C8.39023 14.5162 8.32153 14.5685 8.24476 14.6055C8.16799 14.6425 8.08471 14.6633 7.99989 14.6667Z"/>
</svg>
