<svg width="16" height="16" viewBox="0 0 16 16" fill="none" xmlns="http://www.w3.org/2000/svg">
<g clip-path="url(#clip0_1757_26745)">
<path d="M0.670898 11.4952C0.670872 10.9784 0.875886 10.4826 1.24121 10.1172C1.41825 9.94006 1.626 9.80049 1.85179 9.70371C1.71621 9.54659 1.60572 9.36896 1.52607 9.17666C1.42818 8.94026 1.37763 8.68674 1.37763 8.43087C1.37766 8.17499 1.42815 7.92148 1.52607 7.68508C1.62401 7.44867 1.7676 7.23381 1.94854 7.05287C2.12951 6.87191 2.34432 6.72833 2.58075 6.63039C2.81718 6.53246 3.07064 6.48197 3.32655 6.48195C3.58244 6.48195 3.83592 6.53248 4.07234 6.63039C4.30874 6.72831 4.5236 6.87196 4.70455 7.05287L6.39085 8.73916L8.73941 6.39061L7.05311 4.70431C6.8722 4.52336 6.72855 4.30849 6.63063 4.0721C6.53273 3.83568 6.4822 3.58219 6.4822 3.3263C6.48221 3.07039 6.5327 2.81694 6.63063 2.58051C6.72857 2.34408 6.87216 2.12926 7.05311 1.9483C7.23405 1.76736 7.44892 1.62377 7.68532 1.52582C7.92172 1.4279 8.17524 1.37741 8.43111 1.37738C8.68699 1.37738 8.9405 1.42793 9.17691 1.52582C9.3692 1.60547 9.54683 1.71597 9.70395 1.85154C9.80073 1.62575 9.9403 1.41801 10.1174 1.24097C10.4829 0.875642 10.9787 0.670628 11.4954 0.670654C12.0122 0.670746 12.508 0.87611 12.8734 1.24157L13.3806 1.74878L13.8987 1.23135C14.139 0.99126 14.5286 0.991187 14.7689 1.23135C15.0092 1.47167 15.0092 1.86182 14.7689 2.10214L14.2514 2.61957L14.7586 3.12678C14.9396 3.3077 15.0831 3.5226 15.1811 3.759C15.2791 3.99541 15.3295 4.24887 15.3296 4.50479C15.3296 4.76068 15.2796 5.01415 15.1817 5.25058C15.0838 5.48702 14.9402 5.70181 14.7592 5.88279C14.5838 6.05833 14.3761 6.19797 14.1481 6.29565C14.4529 6.64846 14.6228 7.09972 14.6228 7.56909C14.6228 8.08599 14.4174 8.58159 14.0519 8.94709C13.6864 9.31257 13.1908 9.51801 12.6739 9.51801C12.157 9.51799 11.6614 9.31258 11.2959 8.94709L9.6096 7.2608L7.26104 9.60935L8.94734 11.2957C9.31283 11.6611 9.51823 12.1568 9.51825 12.6737C9.51825 13.1905 9.31281 13.6862 8.94734 14.0517C8.58184 14.4172 8.08623 14.6226 7.56933 14.6226C7.09996 14.6226 6.64871 14.4526 6.2959 14.1478C6.19822 14.3758 6.05857 14.5835 5.88304 14.759C5.70205 14.9399 5.48727 15.0836 5.25083 15.1815C5.01439 15.2794 4.76092 15.3293 4.50503 15.3293C3.98819 15.3292 3.49243 15.1239 3.12703 14.7584L2.61982 14.2512L2.10239 14.7686C1.86207 15.0089 1.47192 15.0089 1.2316 14.7686C0.991432 14.5283 0.991504 14.1387 1.2316 13.8984L1.74902 13.3804L1.24181 12.8732C0.876355 12.5078 0.67099 12.012 0.670898 11.4952ZM2.6084 8.43087C2.6084 8.52519 2.62699 8.61897 2.66309 8.70611C2.69915 8.79312 2.75215 8.87206 2.81873 8.93868L3.99722 10.1166C4.23757 10.3568 4.23807 10.747 3.99782 10.9874C3.75756 11.2277 3.36741 11.2276 3.12703 10.9874C2.99243 10.8529 2.8101 10.7771 2.61982 10.777C2.42945 10.7771 2.24662 10.8528 2.112 10.9874C1.97739 11.122 1.90164 11.3048 1.90167 11.4952C1.9017 11.6856 1.97733 11.8684 2.112 12.003L3.99722 13.8882H3.99782C4.1324 14.0228 4.3147 14.0985 4.50503 14.0985C4.59927 14.0986 4.6926 14.0799 4.77967 14.0438C4.86671 14.0078 4.9462 13.9554 5.01285 13.8888C5.07951 13.8222 5.1324 13.7427 5.16849 13.6556C5.20458 13.5686 5.22315 13.4752 5.22318 13.381C5.2232 13.2868 5.20452 13.1934 5.16849 13.1063C5.13243 13.0192 5.0795 12.9399 5.01285 12.8732C4.77266 12.6328 4.7731 12.2432 5.01345 12.003C5.23881 11.7777 5.5951 11.7637 5.83676 11.9609L5.88364 12.003L7.06152 13.1815L7.11441 13.2295C7.24217 13.3341 7.40278 13.3918 7.56933 13.3918C7.75981 13.3918 7.94246 13.3162 8.07715 13.1815C8.21181 13.0468 8.28748 12.8641 8.28748 12.6737C8.28746 12.4832 8.21182 12.3005 8.07715 12.1658L3.83436 7.92306C3.76775 7.85649 3.68878 7.80347 3.60179 7.76741C3.51465 7.73131 3.42087 7.71272 3.32655 7.71272C3.23231 7.71273 3.13898 7.73136 3.05191 7.76741C2.96479 7.80349 2.88542 7.85639 2.81873 7.92306C2.75204 7.98975 2.69918 8.06909 2.66309 8.15623C2.62702 8.2433 2.60842 8.33663 2.6084 8.43087ZM7.71297 3.3263C7.71297 3.42062 7.73156 3.51441 7.76765 3.60154C7.80372 3.68853 7.85673 3.76751 7.9233 3.83412L12.1661 8.0769C12.3008 8.21158 12.4834 8.28722 12.6739 8.28724C12.8644 8.28724 13.047 8.21157 13.1817 8.0769C13.3164 7.94222 13.392 7.75957 13.3921 7.56909C13.3921 7.40254 13.3344 7.24192 13.2298 7.11416L13.1817 7.06128L12.0032 5.88339C11.7629 5.64313 11.763 5.25357 12.0032 5.0132C12.2285 4.78787 12.5848 4.77351 12.8265 4.97053L12.8734 5.0126L12.9263 5.06068C13.0541 5.16522 13.2147 5.22297 13.3812 5.22294C13.4755 5.2229 13.5688 5.20433 13.6559 5.16825C13.743 5.13215 13.8224 5.07927 13.889 5.0126C13.9556 4.94596 14.0081 4.86647 14.0441 4.77943C14.0801 4.69236 14.0988 4.59902 14.0988 4.50479C14.0987 4.41055 14.0802 4.3172 14.0441 4.23015C14.008 4.14311 13.9551 4.06419 13.8884 3.99758V3.99698L12.0032 2.11176C11.8686 1.97709 11.6858 1.90146 11.4954 1.90142C11.305 1.9014 11.1223 1.97714 10.9876 2.11176C10.853 2.24637 10.7773 2.42921 10.7773 2.61957C10.7773 2.80985 10.8531 2.99219 10.9876 3.12678C11.2278 3.36717 11.228 3.75732 10.9876 3.99758C10.7472 4.23783 10.3571 4.23733 10.1168 3.99698L8.93893 2.81849C8.8723 2.75191 8.79336 2.69891 8.70635 2.66284C8.61922 2.62675 8.52543 2.60815 8.43111 2.60815C8.33687 2.60818 8.24355 2.62678 8.15647 2.66284C8.06934 2.69894 7.98999 2.7518 7.9233 2.81849C7.85663 2.88517 7.80374 2.96455 7.76765 3.05166C7.73161 3.13873 7.71298 3.23207 7.71297 3.3263Z" fill="#787878"/>
</g>
<defs>
<clipPath id="clip0_1757_26745">
<rect width="16" height="16" fill="white"/>
</clipPath>
</defs>
</svg>
