<svg width="16" height="16" viewBox="0 0 16 16" fill="none" xmlns="http://www.w3.org/2000/svg">
<path d="M1 9.64258C1 8.82665 1.18288 8.02001 1.54865 7.22266C1.91441 6.42531 2.37477 5.66285 2.92973 4.93529C3.48468 4.20773 4.08706 3.52361 4.73686 2.88291C5.38666 2.24222 5.98879 1.67735 6.54324 1.18829C6.61892 1.12553 6.7009 1.07858 6.78919 1.04745C6.87747 1.01632 6.96576 1.0005 7.05405 1C7.15495 1 7.24627 1.01582 7.328 1.04745C7.40973 1.07908 7.48237 1.12603 7.54594 1.18829C8.03783 1.61509 8.53603 2.07025 9.04054 2.55378C9.54504 3.03731 10.0243 3.54871 10.4784 4.08798C10.7685 4.42691 11.0459 4.77537 11.3108 5.13338C11.5757 5.49138 11.8153 5.85842 12.0297 6.2345C12.1306 6.41024 12.1495 6.59226 12.0865 6.78055C12.0234 6.96884 11.8973 7.1132 11.7081 7.21362C11.5189 7.31404 11.3234 7.33287 11.1216 7.27011C10.9198 7.20734 10.7685 7.08809 10.6676 6.91235C10.2892 6.28472 9.80057 5.62243 9.20173 4.9255C8.60288 4.22857 7.88699 3.50377 7.05405 2.75111C5.55315 4.11936 4.4213 5.38092 3.65848 6.53577C2.89567 7.69063 2.51402 8.72623 2.51351 9.64258C2.51351 10.8602 2.87625 11.8928 3.60173 12.7404C4.32721 13.5879 5.24465 14.0993 6.35405 14.2746C6.61892 14.3122 6.8081 14.4159 6.92162 14.5856C7.03513 14.7553 7.07928 14.9341 7.05405 15.1219C7.02883 15.3097 6.95012 15.4728 6.81794 15.6114C6.68576 15.75 6.50591 15.8065 6.27838 15.7809C4.71441 15.5926 3.44382 14.9243 2.46659 13.776C1.48937 12.6276 1.0005 11.2498 1 9.64258ZM9.68378 15.9503C9.54504 16.0131 9.40327 16.0164 9.25848 15.9601C9.11369 15.9039 9.00951 15.8065 8.94594 15.6679L8.85135 15.4608C8.75045 15.2474 8.6778 15.0247 8.6334 14.7927C8.589 14.5608 8.56706 14.3253 8.56756 14.0863C8.56756 13.8101 8.59909 13.5372 8.66216 13.2676C8.72522 12.9979 8.81982 12.7373 8.94594 12.4858C9.04684 12.2724 9.13513 12.056 9.21081 11.8366C9.28648 11.6171 9.32432 11.3879 9.32432 11.1489C9.32432 10.9606 9.30212 10.7786 9.25772 10.6029C9.21333 10.4271 9.15354 10.2514 9.07837 10.0757L9.05945 10.038C8.99639 9.89991 8.99311 9.75556 9.04962 9.60492C9.10612 9.45429 9.20399 9.34759 9.34324 9.28483C9.48248 9.22206 9.62425 9.21905 9.76854 9.27579C9.91282 9.33253 10.017 9.42969 10.0811 9.56726L10.1757 9.73673C10.2766 9.95012 10.3492 10.1761 10.3936 10.4146C10.438 10.6531 10.46 10.8979 10.4595 11.1489C10.4595 11.4251 10.4279 11.695 10.3649 11.9586C10.3018 12.2222 10.2072 12.4795 10.0811 12.7306C9.98018 12.944 9.89189 13.1636 9.81621 13.3896C9.74053 13.6155 9.7027 13.8478 9.7027 14.0863C9.7027 14.262 9.72162 14.4347 9.75945 14.6044C9.79729 14.7742 9.85405 14.9403 9.92972 15.103L9.96756 15.1972C10.0306 15.3353 10.0339 15.4796 9.9774 15.6302C9.9209 15.7809 9.82302 15.8876 9.68378 15.9503ZM11.954 15.9503C11.8153 16.0131 11.6735 16.0164 11.5288 15.9601C11.384 15.9039 11.2798 15.8065 11.2162 15.6679L11.1216 15.4608C11.0207 15.2474 10.9481 15.0247 10.9037 14.7927C10.8593 14.5608 10.8373 14.3253 10.8378 14.0863C10.8378 13.8101 10.8694 13.5372 10.9324 13.2676C10.9955 12.9979 11.0901 12.7373 11.2162 12.4858C11.3171 12.2724 11.4054 12.056 11.4811 11.8366C11.5568 11.6171 11.5946 11.3879 11.5946 11.1489C11.5946 10.9606 11.5724 10.7786 11.528 10.6029C11.4836 10.4271 11.4238 10.2514 11.3486 10.0757L11.3297 10.038C11.2667 9.89991 11.2636 9.75556 11.3206 9.60492C11.3777 9.45429 11.4753 9.34759 11.6135 9.28483C11.7517 9.22206 11.8938 9.21905 12.0396 9.27579C12.1854 9.33253 12.2893 9.42969 12.3513 9.56726L12.4459 9.73673C12.5468 9.96268 12.6195 10.1919 12.6639 10.4244C12.7083 10.6568 12.7302 10.8984 12.7297 11.1489C12.7297 11.4251 12.6982 11.695 12.6351 11.9586C12.5721 12.2222 12.4775 12.4795 12.3513 12.7306C12.2504 12.944 12.1622 13.1636 12.0865 13.3896C12.0108 13.6155 11.973 13.8478 11.973 14.0863C11.973 14.262 11.9919 14.4347 12.0297 14.6044C12.0676 14.7742 12.1243 14.9403 12.2 15.103L12.2378 15.1972C12.3009 15.3353 12.3042 15.4796 12.2477 15.6302C12.1912 15.7809 12.0933 15.8876 11.954 15.9503ZM13.8838 9.28483C14.0225 9.22206 14.1645 9.21905 14.3098 9.27579C14.4551 9.33253 14.5591 9.42969 14.6216 9.56726L14.7162 9.73673C14.8171 9.95012 14.8898 10.1761 14.9342 10.4146C14.9785 10.6531 15.0005 10.8979 15 11.1489C15 11.4251 14.9685 11.6982 14.9054 11.9684C14.8423 12.2385 14.7477 12.4988 14.6216 12.7494C14.5207 12.9628 14.4324 13.1794 14.3567 13.3994C14.2811 13.6193 14.2432 13.8483 14.2432 14.0863C14.2432 14.262 14.2622 14.4347 14.3 14.6044C14.3378 14.7742 14.3946 14.9403 14.4703 15.103L14.5081 15.1972C14.5459 15.2725 14.5649 15.3478 14.5649 15.4231C14.5649 15.4984 14.5522 15.5675 14.527 15.6302C14.5018 15.693 14.464 15.7528 14.4135 15.8095C14.3631 15.8662 14.3 15.9132 14.2243 15.9503C14.0856 16.0131 13.9438 16.0164 13.799 15.9601C13.6542 15.9039 13.55 15.8065 13.4865 15.6679L13.3919 15.4608C13.291 15.2474 13.2183 15.0247 13.1739 14.7927C13.1295 14.5608 13.1076 14.3253 13.1081 14.0863C13.1081 13.8101 13.1396 13.5372 13.2027 13.2676C13.2658 12.9979 13.3604 12.7373 13.4865 12.4858C13.5874 12.2724 13.6757 12.056 13.7513 11.8366C13.827 11.6171 13.8649 11.3879 13.8649 11.1489C13.8649 10.9606 13.8427 10.7786 13.7983 10.6029C13.7539 10.4271 13.6941 10.2514 13.6189 10.0757L13.6 10.038C13.5369 9.89991 13.5339 9.75556 13.5909 9.60492C13.6479 9.45429 13.7455 9.34759 13.8838 9.28483Z" fill="#787878"/>
</svg>
