<svg width="16" height="16" viewBox="0 0 16 16" fill="currentColor" xmlns="http://www.w3.org/2000/svg">
<path d="M9.33399 2.66683V9.6935C9.84236 9.98701 10.2397 10.4401 10.4643 10.9824C10.689 11.5247 10.7284 12.1261 10.5765 12.6931C10.4245 13.2601 10.0897 13.7611 9.62402 14.1185C9.1583 14.4759 8.58768 14.6696 8.00065 14.6696C7.41363 14.6696 6.84301 14.4759 6.37729 14.1185C5.91157 13.7611 5.57678 13.2601 5.42485 12.6931C5.27292 12.1261 5.31233 11.5247 5.53697 10.9824C5.76162 10.4401 6.15894 9.98701 6.66732 9.6935V2.66683C6.66732 2.31321 6.8078 1.97407 7.05784 1.72402C7.30789 1.47397 7.64703 1.3335 8.00065 1.3335C8.35427 1.3335 8.69341 1.47397 8.94346 1.72402C9.19351 1.97407 9.33399 2.31321 9.33399 2.66683Z" stroke="currentColor" stroke-width="1.33333" stroke-linecap="round" stroke-linejoin="round"/>
</svg>
