<svg  viewBox="0 0 27 30" fill="none" xmlns="http://www.w3.org/2000/svg">
<path d="M17.3333 13.3329C18.0697 13.3329 18.6667 13.9299 18.6667 14.6663V26.6663H22.6667C23.0203 26.6663 23.3593 26.5257 23.6094 26.2757C23.8594 26.0256 24 25.6866 24 25.3329V11.3173L13.3333 3.02175L2.66667 11.3173V25.3329C2.66667 25.6866 2.80724 26.0256 3.05729 26.2757C3.30734 26.5257 3.64638 26.6663 4 26.6663H8V14.6663C8 13.9299 8.59695 13.3329 9.33333 13.3329H17.3333ZM10.6667 26.6663H16V15.9996H10.6667V26.6663ZM26.6667 25.3329C26.6667 26.3938 26.2449 27.4109 25.4948 28.1611C24.7446 28.9112 23.7275 29.3329 22.6667 29.3329H4C2.93913 29.3329 1.92202 28.9112 1.17187 28.1611C0.42173 27.4109 0 26.3938 0 25.3329V10.6663C0 10.255 0.189816 9.86681 0.514323 9.6142L12.5143 0.280864C12.9958 -0.0936212 13.6709 -0.0936212 14.1523 0.280864L26.1523 9.6142C26.4768 9.86681 26.6667 10.255 26.6667 10.6663V25.3329Z" fill="519C2C"/>
</svg>
