<svg width="14" height="14" viewBox="0 0 14 14" fill="none" xmlns="http://www.w3.org/2000/svg">
<path d="M12.8947 3.77618C12.8946 2.30107 11.699 1.10528 10.2238 1.10528H3.77618C2.30113 1.10537 1.10537 2.30113 1.10528 3.77618V10.2238C1.10528 11.699 2.30107 12.8946 3.77618 12.8947H10.2238C11.699 12.8947 12.8947 11.699 12.8947 10.2238V3.77618ZM5.58575 4.19228C6.17038 3.88897 6.8361 3.7778 7.48761 3.87441C8.15209 3.973 8.7671 4.28288 9.24213 4.75787C9.71723 5.23297 10.027 5.84831 10.1256 6.51293C10.2222 7.16448 10.1111 7.83014 9.80772 8.41479C9.50434 8.99937 9.02414 9.47329 8.43584 9.7694C7.84748 10.0655 7.18051 10.1687 6.5302 10.0641C5.87997 9.95938 5.27917 9.65225 4.81346 9.18654C4.34776 8.7208 4.04058 8.12007 3.93593 7.4698C3.83128 6.81947 3.93446 6.15253 4.2306 5.56417C4.52674 4.97581 5.00109 4.49565 5.58575 4.19228ZM7.32516 4.96781C6.90358 4.90531 6.47297 4.97715 6.09468 5.17343C5.71638 5.36972 5.40985 5.68053 5.21823 6.06122C5.02665 6.44184 4.95954 6.87315 5.02718 7.29386C5.09488 7.71462 5.2936 8.10371 5.59493 8.40507C5.89631 8.70645 6.28534 8.90511 6.70614 8.97282C7.12683 9.0405 7.55816 8.97384 7.93878 8.78231C8.31949 8.59069 8.63027 8.28364 8.82657 7.90532C9.02283 7.52703 9.0947 7.09641 9.03219 6.67484C8.96839 6.24485 8.76804 5.84672 8.46066 5.53934C8.15326 5.23197 7.75517 5.03158 7.32516 4.96781ZM10.5525 2.90135C10.8577 2.90135 11.1051 3.14878 11.1051 3.45399C11.1051 3.75921 10.8577 4.00663 10.5525 4.00663H10.546C10.2409 4.00653 9.99337 3.75915 9.99337 3.45399C9.99337 3.14884 10.2409 2.90145 10.546 2.90135H10.5525ZM14 10.2238C14 12.3094 12.3094 14 10.2238 14H3.77618C1.69064 13.9999 0 12.3094 0 10.2238V3.77618C9.74082e-05 1.6907 1.6907 9.74064e-05 3.77618 0H10.2238C12.3094 0 13.9999 1.69064 14 3.77618V10.2238Z" fill="#519C2C"/>
</svg>
