<svg  viewBox="0 0 16 16" fill="currentColor" xmlns="http://www.w3.org/2000/svg">
<g clip-path="url(#clip0_1757_28663)">
<path d="M14.0003 2.66675C14.0003 2.29856 13.7018 2.00008 13.3337 2.00008H2.66699C2.2988 2.00008 2.00033 2.29856 2.00033 2.66675V13.3334C2.00033 13.7016 2.2988 14.0001 2.66699 14.0001H13.3337C13.7018 14.0001 14.0003 13.7016 14.0003 13.3334V2.66675ZM15.3337 13.3334C15.3337 14.438 14.4382 15.3334 13.3337 15.3334H2.66699C1.56242 15.3334 0.666992 14.438 0.666992 13.3334V2.66675C0.666992 1.56218 1.56242 0.666748 2.66699 0.666748H13.3337C14.4382 0.666748 15.3337 1.56218 15.3337 2.66675V13.3334Z" stroke="currentColor"/>
<path d="M6.00033 12.0001V4.00008C6.00033 3.63189 6.2988 3.33341 6.66699 3.33341C7.03518 3.33341 7.33366 3.63189 7.33366 4.00008V12.0001C7.33366 12.3683 7.03518 12.6667 6.66699 12.6667C6.2988 12.6667 6.00033 12.3683 6.00033 12.0001ZM8.66699 12.0001V4.00008C8.66699 3.63189 8.96547 3.33341 9.33366 3.33341C9.70185 3.33341 10.0003 3.63189 10.0003 4.00008V12.0001C10.0003 12.3683 9.70185 12.6667 9.33366 12.6667C8.96547 12.6667 8.66699 12.3683 8.66699 12.0001ZM3.33366 10.0001V6.00008C3.33366 5.63189 3.63214 5.33342 4.00033 5.33342C4.36852 5.33342 4.66699 5.63189 4.66699 6.00008V10.0001C4.66699 10.3683 4.36852 10.6667 4.00033 10.6667C3.63214 10.6667 3.33366 10.3683 3.33366 10.0001ZM11.3337 10.0001V6.00008C11.3337 5.63189 11.6321 5.33342 12.0003 5.33342C12.3685 5.33342 12.667 5.63189 12.667 6.00008V10.0001C12.667 10.3683 12.3685 10.6667 12.0003 10.6667C11.6321 10.6667 11.3337 10.3683 11.3337 10.0001Z" stroke="currentColor"/>
</g>
<defs>
<clipPath id="clip0_1757_28663">
<rect width="16" height="16" fill="currentColor"/>
</clipPath>
</defs>
</svg>
