<svg width="16" height="16" viewBox="0 0 16 16" fill="none" xmlns="http://www.w3.org/2000/svg">
<path d="M4 11.3333H12M11.3328 13.9998C11.5096 13.9998 11.6792 13.9295 11.8042 13.8045C11.9292 13.6795 11.9994 13.5099 11.9994 13.3331V9.76644C11.9994 9.46177 12.2101 9.20378 12.4841 9.07244C13.0514 8.80181 13.5049 8.33948 13.7645 7.76703C14.0241 7.19459 14.0732 6.54884 13.9031 5.94375C13.7329 5.33865 13.3545 4.81311 12.8346 4.45987C12.3147 4.10663 11.6867 3.9484 11.0614 4.01311C10.804 3.41458 10.3767 2.90464 9.83249 2.54633C9.28829 2.18803 8.65101 1.99707 7.99944 1.99707C7.34788 1.99707 6.7106 2.18803 6.1664 2.54633C5.6222 2.90464 5.19494 3.41458 4.93744 4.01311C4.3125 3.94886 3.68494 4.10731 3.1654 4.46053C2.64586 4.81376 2.26772 5.33907 2.09763 5.94384C1.92755 6.54862 1.97645 7.19403 2.23571 7.76628C2.49498 8.33852 2.94795 8.80086 3.51478 9.07177C3.78878 9.20377 3.99944 9.46178 3.99944 9.76578V13.3331C3.99944 13.5099 4.06968 13.6795 4.19471 13.8045C4.31973 13.9295 4.4893 13.9998 4.66611 13.9998H11.3328Z" stroke="white" stroke-width="1.33333" stroke-linecap="round" stroke-linejoin="round"/>
</svg>
