<svg viewBox="0 0 16 16" fill="none" xmlns="http://www.w3.org/2000/svg">
<g clip-path="url(#clip0_1999_30262)">
<path d="M12.1679 5.55578C12.5068 5.55578 12.8318 5.42701 13.0715 5.1978C13.3111 4.96859 13.4458 4.65771 13.4458 4.33355C13.4458 4.0094 13.3111 3.69852 13.0715 3.46931C12.8318 3.2401 12.5068 3.11133 12.1679 3.11133C11.829 3.11133 11.5039 3.2401 11.2643 3.46931C11.0246 3.69852 10.89 4.0094 10.89 4.33355C10.89 4.65771 11.0246 4.96859 11.2643 5.1978C11.5039 5.42701 11.829 5.55578 12.1679 5.55578Z" fill="#222222"/>
<path d="M7.69532 12.8892V12.2781H8.97319C9.14265 12.2781 9.30517 12.2137 9.42499 12.0991C9.54482 11.9845 9.61213 11.8291 9.61213 11.667V10.4448H10.89C11.9633 10.4445 13.0094 10.1211 13.8798 9.52044C14.7502 8.91974 15.4008 8.07223 15.7394 7.09805C16.0779 6.12388 16.0873 5.07248 15.7661 4.09294C15.4449 3.11339 14.8095 2.2554 13.9499 1.64061C13.0903 1.02583 12.0502 0.685442 10.9771 0.667721C9.90388 0.65 8.8521 0.955842 7.97085 1.54188C7.08959 2.12792 6.42358 2.96442 6.06723 3.93278C5.71089 4.90114 5.6823 5.95222 5.98552 6.93699L1.04013 11.667C0.800936 11.8963 0.666726 12.2072 0.666993 12.5311V14.1114C0.666993 14.4356 0.801626 14.7465 1.04127 14.9757C1.28092 15.2049 1.60596 15.3337 1.94487 15.3337H4.50062C4.83954 15.3337 5.16457 15.2049 5.40422 14.9757C5.64387 14.7465 5.7785 14.4356 5.7785 14.1114V13.5003H7.05638C7.22583 13.5003 7.38835 13.4359 7.50817 13.3213C7.628 13.2067 7.69532 13.0513 7.69532 12.8892ZM7.05638 5.55588C7.05638 4.83068 7.28122 4.12177 7.70246 3.51879C8.12371 2.91581 8.72244 2.44584 9.42294 2.16832C10.1234 1.8908 10.8943 1.81819 11.6379 1.95967C12.3816 2.10115 13.0647 2.45036 13.6008 2.96316C14.1369 3.47595 14.5021 4.12929 14.65 4.84055C14.7979 5.55181 14.722 6.28906 14.4318 6.95905C14.1417 7.62905 13.6503 8.2017 13.0199 8.6046C12.3894 9.0075 11.6482 9.22255 10.89 9.22255H8.97319C8.80374 9.22255 8.64122 9.28693 8.52139 9.40154C8.40157 9.51614 8.33425 9.67158 8.33425 9.83366V11.0559H7.05638C6.88692 11.0559 6.7244 11.1203 6.60458 11.2349C6.48476 11.3495 6.41744 11.5049 6.41744 11.667V12.2781H5.13956C4.9701 12.2781 4.80759 12.3425 4.68776 12.4571C4.56794 12.5717 4.50062 12.7271 4.50062 12.8892V14.1114H1.94487V12.5311L7.17011 7.53344C7.25771 7.44973 7.318 7.34348 7.34364 7.22761C7.36927 7.11174 7.35915 6.99124 7.31451 6.88077C7.14838 6.4701 7.05638 6.02521 7.05638 5.55588Z" fill="#222222"/>
</g>
<defs>
<clipPath id="clip0_1999_30262">
<rect width="16" height="16" fill="white"/>
</clipPath>
</defs>
</svg>
