<svg width="30" height="27" viewBox="0 0 30 27" fill="none" xmlns="http://www.w3.org/2000/svg">
<path d="M9.23796 0.00337732C9.77589 -0.034852 10.2845 0.254101 10.5257 0.73645L15.0309 9.74817L20.3903 4.3901L20.5192 4.27681C20.8346 4.03368 21.2456 3.94189 21.639 4.03463C22.0886 4.14077 22.4511 4.47273 22.5973 4.91093L29.264 24.9109C29.3995 25.3175 29.3323 25.7651 29.0817 26.1128C28.8311 26.4604 28.4283 26.6661 27.9997 26.6661H1.33301C0.904438 26.6661 0.501585 26.4604 0.250981 26.1128C0.000379205 25.7651 -0.0668432 25.3175 0.0686893 24.9109L8.06869 0.910929L8.14551 0.727336C8.35539 0.315445 8.76739 0.037021 9.23796 0.00337732ZM3.18197 23.9995H26.1507L20.7497 7.80025L15.6091 12.9422C15.306 13.2452 14.8758 13.3845 14.4528 13.3159C14.0297 13.2472 13.6653 12.9792 13.4736 12.5958L9.57911 4.80676L3.18197 23.9995Z" fill="#519C2C"/>
</svg>
