<svg viewBox="0 0 32 32" fill="currentColor" xmlns="http://www.w3.org/2000/svg">
<path d="M15.9999 16.0001C16.7333 16.0001 17.3613 15.7392 17.8839 15.2174C18.4066 14.6956 18.6675 14.0676 18.6666 13.3334C18.6657 12.5992 18.4048 11.9716 17.8839 11.4507C17.363 10.9299 16.735 10.6685 15.9999 10.6667C15.2648 10.665 14.6373 10.9263 14.1173 11.4507C13.5973 11.9752 13.3359 12.6027 13.3333 13.3334C13.3306 14.0641 13.5919 14.6921 14.1173 15.2174C14.6426 15.7427 15.2701 16.0036 15.9999 16.0001ZM15.9999 25.8001C18.711 23.3112 20.7221 21.0503 22.0333 19.0174C23.3444 16.9845 23.9999 15.1787 23.9999 13.6001C23.9999 11.1779 23.2279 9.19475 21.6839 7.65075C20.1399 6.10675 18.2453 5.3343 15.9999 5.33341C13.7546 5.33253 11.8604 6.10497 10.3173 7.65075C8.77414 9.19653 8.0017 11.1796 7.99992 13.6001C7.99992 15.1779 8.65547 16.9836 9.96659 19.0174C11.2777 21.0512 13.2888 23.3121 15.9999 25.8001ZM15.9999 29.3334C12.4221 26.289 9.75014 23.4614 7.98392 20.8507C6.2177 18.2401 5.33414 15.8232 5.33325 13.6001C5.33325 10.2667 6.4057 7.61119 8.55059 5.63341C10.6955 3.65564 13.1786 2.66675 15.9999 2.66675C18.8213 2.66675 21.3048 3.65564 23.4506 5.63341C25.5964 7.61119 26.6684 10.2667 26.6666 13.6001C26.6666 15.8223 25.7835 18.2392 24.0173 20.8507C22.251 23.4623 19.5786 26.2899 15.9999 29.3334Z" fill="currentColor"/>
</svg>
