<svg viewBox="0 0 24 24" fill="none" xmlns="http://www.w3.org/2000/svg">
<path d="M2.01074 18C2.56303 18 3.01074 18.4477 3.01074 19C3.01074 19.5523 2.56303 20 2.01074 20H2C1.44772 20 1 19.5523 1 19C1 18.4477 1.44772 18 2 18H2.01074ZM22 18C22.5523 18 23 18.4477 23 19C23 19.5523 22.5523 20 22 20H7.55566C7.00338 20 6.55566 19.5523 6.55566 19C6.55566 18.4477 7.00338 18 7.55566 18H22ZM2.01074 11C2.56303 11 3.01074 11.4477 3.01074 12C3.01074 12.5523 2.56303 13 2.01074 13H2C1.44772 13 1 12.5523 1 12C1 11.4477 1.44772 11 2 11H2.01074ZM22 11C22.5523 11 23 11.4477 23 12C23 12.5523 22.5523 13 22 13H7.55566C7.00338 13 6.55566 12.5523 6.55566 12C6.55566 11.4477 7.00338 11 7.55566 11H22ZM2.01074 4L2.11328 4.00488C2.61759 4.05605 3.01074 4.4822 3.01074 5C3.01074 5.5178 2.61759 5.94395 2.11328 5.99512L2.01074 6H2C1.44772 6 1 5.55228 1 5C1 4.44772 1.44772 4 2 4H2.01074ZM22 4L22.1025 4.00488C22.6067 4.05621 23 4.48232 23 5C23 5.51768 22.6067 5.94379 22.1025 5.99512L22 6H7.55566C7.00338 6 6.55566 5.55228 6.55566 5C6.55566 4.44772 7.00338 4 7.55566 4H22Z" fill="#222222"/>
</svg>
