<svg viewBox="0 0 15 12" fill="none" xmlns="http://www.w3.org/2000/svg">
<path d="M13.7142 3.19661L7.76367 7.16406C7.56776 7.29452 7.31239 7.29464 7.11654 7.16406L1.16667 3.19661V9.72591C1.16667 9.97534 1.26569 10.2149 1.44206 10.3913C1.61842 10.5676 1.85803 10.6667 2.10742 10.6667H12.7734C13.0228 10.6667 13.2624 10.5676 13.4388 10.3913C13.6152 10.2149 13.7142 9.97534 13.7142 9.72591V3.19661ZM2.10742 1.16667C1.858 1.16667 1.61843 1.26569 1.44206 1.44206C1.33434 1.54978 1.25538 1.68096 1.21029 1.82357L7.4401 5.97721L13.6699 1.82422C13.6249 1.68146 13.5466 1.54988 13.4388 1.44206C13.2624 1.26569 13.0229 1.16667 12.7734 1.16667H2.10742ZM14.8809 9.72591C14.8809 10.2848 14.6588 10.821 14.2637 11.2161C13.8685 11.6113 13.3323 11.8333 12.7734 11.8333H2.10742C1.54861 11.8333 1.01234 11.6113 0.617188 11.2161C0.222026 10.821 0 10.2848 0 9.72591V2.10742C0 1.54858 0.222025 1.01235 0.617188 0.617188C1.01235 0.222025 1.54858 0 2.10742 0H12.7734C13.3323 0 13.8685 0.222025 14.2637 0.617188C14.6588 1.01235 14.8809 1.5486 14.8809 2.10742V9.72591Z" fill="#222222"/>
</svg>
