<svg viewBox="0 0 16 16" fill="none" xmlns="http://www.w3.org/2000/svg">
<path d="M14.001 7.3335C14.001 7.15672 13.9306 6.98683 13.8057 6.86182C13.6806 6.73679 13.5108 6.6665 13.334 6.6665C13.1572 6.6665 12.9873 6.73679 12.8623 6.86182C12.7373 6.98683 12.667 7.15672 12.667 7.3335V8.6665C12.667 9.03459 12.369 9.33332 12.001 9.3335H4.00098C3.63279 9.3335 3.33398 9.03469 3.33398 8.6665V7.3335C3.33398 7.15668 3.2637 6.98684 3.13867 6.86182C3.01366 6.73684 2.84376 6.6665 2.66699 6.6665C2.49041 6.66659 2.32121 6.73702 2.19629 6.86182C2.07126 6.98684 2.00098 7.15668 2.00098 7.3335V10.6665C2.00098 10.8433 2.07126 11.0132 2.19629 11.1382C2.29015 11.2319 2.40888 11.2953 2.53711 11.3208L2.66699 11.3335H13.334C13.5108 11.3335 13.6806 11.2632 13.8057 11.1382C13.9306 11.0132 14.001 10.8433 14.001 10.6665V7.3335ZM12.666 3.99951C12.6659 3.8229 12.5955 3.65374 12.4707 3.52881C12.3457 3.40378 12.1758 3.3335 11.999 3.3335H8.66699V8.00049H11.334V7.3335C11.334 6.8031 11.5449 6.2945 11.9199 5.91943C12.1324 5.70695 12.3881 5.54827 12.666 5.44971V3.99951ZM3.33301 5.44971C3.61167 5.54819 3.86807 5.70648 4.08105 5.91943C4.45613 6.29451 4.66699 6.80306 4.66699 7.3335V8.00049H7.33301V3.3335H3.99902C3.82233 3.33358 3.65327 3.40386 3.52832 3.52881C3.40337 3.65376 3.33309 3.82282 3.33301 3.99951V5.44971ZM13.999 5.44873C14.2781 5.5472 14.5348 5.70621 14.748 5.91943C15.1231 6.2945 15.334 6.8031 15.334 7.3335V10.6665C15.334 11.1969 15.1231 11.7055 14.748 12.0806C14.5354 12.2932 14.2791 12.4508 14.001 12.5493V13.3335C14.0009 13.7016 13.7021 14.0005 13.334 14.0005C12.9658 14.0005 12.6671 13.7016 12.667 13.3335V12.6665H3.33301V13.3335C3.33292 13.7016 3.03415 14.0005 2.66602 14.0005C2.29788 14.0005 1.99911 13.7016 1.99902 13.3335V12.5483C1.72146 12.4498 1.46518 12.2928 1.25293 12.0806C0.878009 11.7055 0.666992 11.1968 0.666992 10.6665V7.3335C0.666992 6.80318 0.878009 6.29448 1.25293 5.91943C1.46526 5.7071 1.72134 5.54926 1.99902 5.45068V3.99951C1.99911 3.4692 2.20996 2.96045 2.58496 2.58545C2.95996 2.21045 3.46871 1.9996 3.99902 1.99951H11.999C12.5293 1.99951 13.038 2.21058 13.4131 2.58545C13.7881 2.96044 13.9989 3.4692 13.999 3.99951V5.44873Z" fill="currentColor"/>
</svg>
