<svg width="16" height="16" viewBox="0 0 16 16" fill="none" xmlns="http://www.w3.org/2000/svg">
<path d="M13.334 2.6665H2.66732C1.93094 2.6665 1.33398 3.26346 1.33398 3.99984V11.3332C1.33398 12.0696 1.93094 12.6665 2.66732 12.6665H13.334C14.0704 12.6665 14.6673 12.0696 14.6673 11.3332V3.99984C14.6673 3.26346 14.0704 2.6665 13.334 2.6665Z" stroke="#787878" stroke-width="1.33333" stroke-linecap="round" stroke-linejoin="round"/>
<path d="M8.66667 5.33325H4.66667C4.29848 5.33325 4 5.63173 4 5.99992V9.33325C4 9.70144 4.29848 9.99992 4.66667 9.99992H8.66667C9.03486 9.99992 9.33333 9.70144 9.33333 9.33325V5.99992C9.33333 5.63173 9.03486 5.33325 8.66667 5.33325Z" stroke="#787878" stroke-width="1.33333" stroke-linecap="round" stroke-linejoin="round"/>
<path d="M12 5.33325V9.99992" stroke="#787878" stroke-width="1.33333" stroke-linecap="round" stroke-linejoin="round"/>
<path d="M4 12.6667V14.0001" stroke="#787878" stroke-width="1.33333" stroke-linecap="round" stroke-linejoin="round"/>
<path d="M12 12.6667V14.0001" stroke="#787878" stroke-width="1.33333" stroke-linecap="round" stroke-linejoin="round"/>
</svg>
