<svg width="65" height="64" viewBox="0 0 65 64" fill="none" xmlns="http://www.w3.org/2000/svg">
<path d="M62.4728 0.325181C62.9062 -0.108231 63.6087 -0.108231 64.0421 0.325181C64.4755 0.758594 64.4755 1.46113 64.0421 1.89454L58.1679 7.76879L64.0421 13.643C64.4755 14.0765 64.4755 14.779 64.0421 15.2124C63.6087 15.6458 62.9062 15.6458 62.4728 15.2124L56.5985 9.33815L50.7243 15.2124C50.2909 15.6458 49.5883 15.6458 49.1549 15.2124C48.7215 14.779 48.7215 14.0765 49.1549 13.643L55.0292 7.76879L49.1549 1.89454C48.7215 1.46113 48.7215 0.758594 49.1549 0.325181C49.5883 -0.108231 50.2909 -0.108231 50.7243 0.325181L56.5985 6.19943L62.4728 0.325181Z" fill="#A7A7A7"/>
<path d="M47.7199 31.4446C47.7197 20.0033 38.4443 10.7287 27.0029 10.7287C15.5617 10.7289 6.28716 20.0034 6.28696 31.4446C6.28696 42.886 15.5616 52.1615 27.0029 52.1617C38.4444 52.1617 47.7199 42.8861 47.7199 31.4446ZM53.6386 31.4446C53.6386 37.7335 51.458 43.5125 47.8132 48.0692L58.6914 58.9474C59.8471 60.1032 59.8471 61.9773 58.6914 63.1331C57.5356 64.2888 55.6615 64.2888 54.5057 63.1331L43.6275 52.2549C39.0708 55.8998 33.2918 58.0803 27.0029 58.0803C12.2926 58.0802 0.367188 46.155 0.367188 31.4446C0.367383 16.7344 12.2927 4.8091 27.0029 4.80891C41.7133 4.80891 53.6384 16.7343 53.6386 31.4446Z" fill="#A7A7A7"/>
</svg>
