<svg viewBox="0 0 24 24" fill="none" xmlns="http://www.w3.org/2000/svg">
<path d="M9.81842 20.123C10.3023 19.8576 10.9104 20.0348 11.1763 20.5186C11.2574 20.6657 11.376 20.7889 11.5206 20.8745C11.6655 20.9602 11.8312 21.0049 11.9996 21.0049C12.1679 21.0049 12.3337 20.9602 12.4786 20.8745C12.6232 20.7889 12.7418 20.6657 12.8228 20.5186C13.0888 20.0348 13.6969 19.8576 14.1807 20.123C14.6647 20.3891 14.8423 20.9985 14.5762 21.4824C14.3227 21.9435 13.9495 22.3278 13.4966 22.5957C13.0435 22.8637 12.5261 23.0059 11.9996 23.0059C11.4731 23.0059 10.9557 22.8637 10.5025 22.5957C10.0496 22.3278 9.67647 21.9435 9.42291 21.4824C9.15682 20.9985 9.33445 20.3891 9.81842 20.123ZM16.9991 8C16.9991 6.67392 16.4734 5.40155 15.5357 4.46387C14.598 3.52619 13.3257 3.00049 11.9996 3.00049C10.6735 3.00049 9.40112 3.52619 8.46344 4.46387C7.52575 5.40155 7.00006 6.67392 7.00006 8C7.00006 11.6473 6.21618 14.0655 5.37701 15.604C5.30061 15.7441 5.22049 15.8744 5.1441 15.9995H18.855C18.7786 15.8744 18.6985 15.7441 18.6221 15.604C17.783 14.0655 16.9991 11.6473 16.9991 8ZM19.0074 8.61377C19.0886 11.6092 19.7575 13.5102 20.377 14.646C20.7088 15.2542 21.033 15.6527 21.2574 15.8896C21.3699 16.0084 21.4576 16.0885 21.5108 16.1328C21.5373 16.1549 21.5559 16.1681 21.5635 16.1738C21.5651 16.1749 21.5658 16.1763 21.5665 16.1768C21.9244 16.4231 22.0824 16.8731 21.9561 17.29C21.8283 17.7116 21.4401 18.0005 20.9996 18.0005H2.99957C2.55904 18.0005 2.17084 17.7116 2.04302 17.29C1.91678 16.8731 2.07478 16.4231 2.43267 16.1768C2.4333 16.1763 2.43404 16.175 2.4356 16.1738C2.44327 16.1681 2.46188 16.1549 2.48834 16.1328C2.54155 16.0885 2.62928 16.0084 2.74176 15.8896C2.96618 15.6527 3.29037 15.2542 3.62213 14.646C4.24161 13.5102 4.91057 11.6092 4.99176 8.61377L4.99908 8C4.99908 6.14348 5.73711 4.36305 7.04986 3.05029C8.36262 1.73754 10.1431 0.999512 11.9996 0.999512L12.3467 1.0083C14.0769 1.09414 15.7186 1.8196 16.9493 3.05029C18.262 4.36305 19.0001 6.14349 19.0001 8L19.0074 8.61377Z" fill="currentColor"/>
</svg>
