<svg width="24" height="24" viewBox="0 0 24 24" fill="currentColor" xmlns="http://www.w3.org/2000/svg">
<path d="M11.9997 9.005C13.0606 9.005 14.078 9.42643 14.8281 10.1766C15.5783 10.9267 15.9997 11.9441 15.9997 13.005C15.9997 14.0659 15.5783 15.0833 14.8281 15.8334C14.078 16.5836 13.0606 17.005 11.9997 17.005C10.9388 17.005 9.92142 16.5836 9.17127 15.8334C8.42113 15.0833 7.9997 14.0659 7.9997 13.005C7.9997 11.9441 8.42113 10.9267 9.17127 10.1766C9.92142 9.42643 10.9388 9.005 11.9997 9.005ZM11.9997 10.505C11.3367 10.505 10.7008 10.7684 10.2319 11.2372C9.76309 11.7061 9.4997 12.342 9.4997 13.005C9.4997 13.668 9.76309 14.3039 10.2319 14.7728C10.7008 15.2416 11.3367 15.505 11.9997 15.505C12.6627 15.505 13.2986 15.2416 13.7675 14.7728C14.2363 14.3039 14.4997 13.668 14.4997 13.005C14.4997 12.342 14.2363 11.7061 13.7675 11.2372C13.2986 10.7684 12.6627 10.505 11.9997 10.505ZM11.9997 5.5C16.6127 5.5 20.5957 8.65 21.7007 13.064C21.7491 13.2569 21.7189 13.4612 21.6167 13.6319C21.5145 13.8025 21.3486 13.9256 21.1557 13.974C20.9628 14.0224 20.7585 13.9922 20.5878 13.89C20.4172 13.7878 20.2941 13.6219 20.2457 13.429C19.7827 11.5925 18.7199 9.96306 17.2257 8.79913C15.7316 7.6352 13.8916 7.00338 11.9976 7.00384C10.1036 7.0043 8.26401 7.63702 6.77043 8.80167C5.27684 9.96632 4.2148 11.5962 3.7527 13.433C3.72886 13.5286 3.68643 13.6186 3.62783 13.6978C3.56922 13.777 3.49559 13.8439 3.41113 13.8946C3.32668 13.9454 3.23305 13.979 3.13561 13.9935C3.03816 14.0081 2.9388 14.0033 2.8432 13.9795C2.7476 13.9557 2.65762 13.9132 2.57842 13.8546C2.49922 13.796 2.43233 13.7224 2.38158 13.6379C2.33084 13.5535 2.29722 13.4599 2.28266 13.3624C2.26809 13.265 2.27286 13.1656 2.2967 13.07C2.83854 10.907 4.08775 8.98722 5.8458 7.61563C7.60386 6.24405 9.7699 5.49939 11.9997 5.5Z" fill="currentColor"/>
</svg>
