<svg viewBox="0 0 14 14" fill="none" xmlns="http://www.w3.org/2000/svg">
<path d="M12 2.26693C12 1.67782 11.5227 1.20052 10.9336 1.20052H7.20052V12H10.9336C11.5227 12 12 11.5227 12 10.9336V7.20052H10.6003C10.2689 7.20052 10 6.93163 10 6.60026C10 6.26889 10.2689 6 10.6003 6H12V2.26693ZM1.20052 10.9336C1.20052 11.5227 1.67782 12 2.26693 12H6V7.20052H1.20052V10.9336ZM1.20052 6H6V1.20052H2.26693C1.67782 1.20052 1.20052 1.67782 1.20052 2.26693V6ZM13.2005 10.9336C13.2005 12.1854 12.1854 13.2005 10.9336 13.2005H2.26693C1.01508 13.2005 0 12.1854 0 10.9336V2.26693C0 1.01508 1.01508 0 2.26693 0H10.9336C12.1854 0 13.2005 1.01508 13.2005 2.26693V10.9336Z" fill="#222222"/>
</svg>
