<svg width="30" height="27" viewBox="0 0 30 27" fill="none" xmlns="http://www.w3.org/2000/svg">
<path d="M26.6667 9.33333C26.6667 8.59695 26.0697 8 25.3333 8H21.3333V24H25.3333C26.0697 24 26.6667 23.403 26.6667 22.6667V9.33333ZM10.6667 24H18.6667V8H10.6667V24ZM2.66667 22.6667C2.66667 23.403 3.26362 24 4 24H8V8H4C3.26362 8 2.66667 8.59695 2.66667 9.33333V22.6667ZM18.6667 4C18.6667 3.64638 18.5261 3.30734 18.276 3.05729C18.026 2.80724 17.687 2.66667 17.3333 2.66667H12C11.6464 2.66667 11.3073 2.80724 11.0573 3.05729C10.8072 3.30734 10.6667 3.64638 10.6667 4V5.33333H18.6667V4ZM21.3333 5.33333H25.3333C27.5425 5.33333 29.3333 7.12419 29.3333 9.33333V22.6667C29.3333 24.8758 27.5425 26.6667 25.3333 26.6667H4C1.79086 26.6667 0 24.8758 0 22.6667V9.33333C0 7.12419 1.79086 5.33333 4 5.33333H8V4C8 2.93913 8.42173 1.92202 9.17188 1.17187C9.92202 0.42173 10.9391 0 12 0H17.3333C18.3942 0 19.4113 0.42173 20.1615 1.17187C20.9116 1.92202 21.3333 2.93913 21.3333 4V5.33333Z" fill="#519C2C"/>
</svg>
