<svg width="64" height="64" viewBox="0 0 64 64" fill="none" xmlns="http://www.w3.org/2000/svg">
<g clip-path="url(#clip0_927_5984)">
<rect width="64" height="64" rx="8" fill="white"/>
<path d="M34.8305 6C34.0804 5.25012 33.0632 4.82886 32.0025 4.82886C30.9419 4.82886 29.9246 5.25012 29.1745 6L2.58653 32.584C2.40057 32.77 2.25307 32.9907 2.15243 33.2337C2.0518 33.4766 2 33.737 2 34C2 34.263 2.0518 34.5234 2.15243 34.7663C2.25307 35.0093 2.40057 35.23 2.58653 35.416C2.96207 35.7915 3.47142 36.0025 4.00253 36.0025C4.2655 36.0025 4.5259 35.9507 4.76886 35.8501C5.01182 35.7495 5.23257 35.602 5.41853 35.416L32.0025 8.828L58.5865 35.416C58.9621 35.7915 59.4714 36.0025 60.0025 36.0025C60.5336 36.0025 61.043 35.7915 61.4185 35.416C61.7941 35.0405 62.005 34.5311 62.005 34C62.005 33.4689 61.7941 32.9595 61.4185 32.584L52.0025 23.172V10C52.0025 9.46957 51.7918 8.96086 51.4167 8.58579C51.0417 8.21072 50.533 8 50.0025 8H46.0025C45.4721 8 44.9634 8.21072 44.5883 8.58579C44.2132 8.96086 44.0025 9.46957 44.0025 10V15.172L34.8305 6Z" fill="#519C2C"/>
<path d="M32.0029 13.1721L53.4886 34.7431L52.5744 46.1717L56.0029 54.0001C56.0029 55.5914 55.3708 57.1175 54.2456 58.2428C53.1204 59.368 51.5942 60.0001 50.0029 60.0001H14.0029C12.4116 60.0001 10.8855 59.368 9.76029 58.2428C8.63507 57.1175 8.00293 55.5914 8.00293 54.0001V37.1721L32.0029 13.1721Z" fill="#519C2C"/>
<path d="M40.9727 49.3521C42.6966 51.1168 45.0276 52.2144 47.543 52.2144C50.0584 52.2143 52.3893 51.1169 54.1133 49.3521L54.5811 48.8735L55.25 48.9019C59.8269 49.0959 63.6709 52.5135 63.6709 57.0288V58.3433C63.6707 60.2761 62.1038 61.8433 60.1709 61.8433H31.4141V57.0288C31.4141 52.5084 35.3006 49.0958 39.835 48.9019L40.5039 48.8726L40.9727 49.3521ZM47.543 32.3286C52.5626 32.3288 56.3564 36.8919 56.3564 42.1147C56.3562 47.3374 52.5625 51.8997 47.543 51.8999C42.5233 51.8999 38.7287 47.3375 38.7285 42.1147C38.7285 36.8918 42.5232 32.3286 47.543 32.3286Z" fill="#519C2C" stroke="white" stroke-width="3"/>
</g>
<defs>
<clipPath id="clip0_927_5984">
<rect width="64" height="64" rx="8" fill="white"/>
</clipPath>
</defs>
</svg>
