<svg viewBox="0 0 24 24" fill="currentColor" xmlns="http://www.w3.org/2000/svg">
<path fill-rule="evenodd" clip-rule="evenodd" d="M11.75 3C11.9489 3 12.1397 3.07902 12.2803 3.21967C12.421 3.36032 12.5 3.55109 12.5 3.75V11H19.75C19.9489 11 20.1397 11.079 20.2803 11.2197C20.421 11.3603 20.5 11.5511 20.5 11.75C20.5 11.9489 20.421 12.1397 20.2803 12.2803C20.1397 12.421 19.9489 12.5 19.75 12.5H12.5V19.75C12.5 19.9489 12.421 20.1397 12.2803 20.2803C12.1397 20.421 11.9489 20.5 11.75 20.5C11.5511 20.5 11.3603 20.421 11.2197 20.2803C11.079 20.1397 11 19.9489 11 19.75V12.5H3.75C3.55109 12.5 3.36032 12.421 3.21967 12.2803C3.07902 12.1397 3 11.9489 3 11.75C3 11.5511 3.07902 11.3603 3.21967 11.2197C3.36032 11.079 3.55109 11 3.75 11H11V3.75C11 3.55109 11.079 3.36032 11.2197 3.21967C11.3603 3.07902 11.5511 3 11.75 3Z" fill="currentColor"/>
</svg>
