<svg viewBox="0 0 16 16" fill="none" xmlns="http://www.w3.org/2000/svg">
<path d="M8 6.39024C10.1003 6.39024 11.7687 8.22677 12.2961 10.4238C12.5534 11.4959 12.1735 12.6843 11.1614 13.2523C10.453 13.6498 9.42205 14 8 14C6.57799 14 5.54754 13.6497 4.83915 13.2523C3.8271 12.6844 3.44652 11.496 3.70391 10.4238C4.23131 8.22711 5.89967 6.39024 8 6.39024ZM8 7.26829C6.44069 7.26829 5.01675 8.66952 4.54575 10.6313C4.36423 11.3876 4.64588 12.1399 5.25894 12.484L5.49084 12.6052C6.06645 12.883 6.88436 13.122 8 13.122C9.2749 13.122 10.161 12.8094 10.7411 12.484C11.3541 12.14 11.6358 11.3877 11.4543 10.6313C10.9833 8.66927 9.55933 7.26829 8 7.26829ZM3.81111 6.37367C3.81107 6.06631 3.71423 5.85402 3.59106 5.72199C3.46787 5.58995 3.29495 5.5122 3.08889 5.5122C2.88292 5.5122 2.70994 5.58991 2.58672 5.72199C2.4635 5.85409 2.36671 6.06649 2.36667 6.37367C2.36667 6.68934 2.46966 7.00846 2.62791 7.23971C2.79026 7.47692 2.96276 7.56098 3.08889 7.56098C3.21501 7.56098 3.38752 7.47692 3.54987 7.23971C3.70812 7.00846 3.81111 6.68934 3.81111 6.37367ZM13.6333 6.37367C13.6333 6.06649 13.5365 5.85409 13.4133 5.72199C13.2901 5.58991 13.1171 5.5122 12.9111 5.5122C12.705 5.5122 12.5321 5.58995 12.4089 5.72199C12.2858 5.85402 12.1889 6.06631 12.1889 6.37367C12.1889 6.68934 12.2919 7.00846 12.4501 7.23971C12.6125 7.47692 12.785 7.56098 12.9111 7.56098C13.0372 7.56098 13.2097 7.47692 13.3721 7.23971C13.5303 7.00846 13.6333 6.68934 13.6333 6.37367ZM6.84444 3.73952C6.84441 3.43217 6.74757 3.21988 6.62439 3.08784C6.50121 2.95581 6.32829 2.87805 6.12222 2.87805C5.91625 2.87805 5.74328 2.95576 5.62005 3.08784C5.49683 3.21995 5.40004 3.43235 5.4 3.73952C5.4 4.05519 5.503 4.37432 5.66124 4.60556C5.82359 4.84277 5.9961 4.92683 6.12222 4.92683C6.24835 4.92683 6.42085 4.84277 6.5832 4.60556C6.74145 4.37432 6.84444 4.05519 6.84444 3.73952ZM10.6 3.73952C10.6 3.43235 10.5032 3.21995 10.3799 3.08784C10.2567 2.95576 10.0838 2.87805 9.87778 2.87805C9.67171 2.87805 9.49879 2.95581 9.37561 3.08784C9.25243 3.21988 9.1556 3.43217 9.15556 3.73952C9.15556 4.05519 9.25855 4.37432 9.4168 4.60556C9.57915 4.84277 9.75165 4.92683 9.87778 4.92683C10.0039 4.92683 10.1764 4.84277 10.3388 4.60556C10.497 4.37432 10.6 4.05519 10.6 3.73952ZM4.67778 6.37367C4.67778 6.86635 4.52183 7.36075 4.26194 7.74047C4.00611 8.11413 3.60108 8.43902 3.08889 8.43902C2.57669 8.43902 2.17167 8.11413 1.91584 7.74047C1.65595 7.36075 1.5 6.86635 1.5 6.37367C1.50004 5.87298 1.66165 5.43504 1.95647 5.1189C2.25141 4.8027 2.65644 4.63415 3.08889 4.63415C3.52122 4.63415 3.92577 4.80276 4.22075 5.1189C4.51568 5.43505 4.67774 5.87281 4.67778 6.37367ZM14.5 6.37367C14.5 6.86635 14.344 7.36075 14.0842 7.74047C13.8283 8.11413 13.4233 8.43902 12.9111 8.43902C12.3989 8.43902 11.9939 8.11413 11.7381 7.74047C11.4782 7.36075 11.3222 6.86635 11.3222 6.37367C11.3223 5.87281 11.4843 5.43505 11.7793 5.1189C12.0742 4.80276 12.4788 4.63415 12.9111 4.63415C13.3436 4.63415 13.7486 4.8027 14.0435 5.1189C14.3383 5.43504 14.5 5.87298 14.5 6.37367ZM7.71111 3.73952C7.71111 4.2322 7.55516 4.72661 7.29527 5.10633C7.03944 5.47998 6.63442 5.80488 6.12222 5.80488C5.61003 5.80488 5.205 5.47998 4.94918 5.10633C4.68929 4.72661 4.53333 4.2322 4.53333 3.73952C4.53337 3.23884 4.69499 2.80089 4.9898 2.48476C5.28474 2.16855 5.68978 2 6.12222 2C6.55456 2 6.95911 2.16861 7.25408 2.48476C7.54901 2.8009 7.71107 3.23866 7.71111 3.73952ZM11.4667 3.73952C11.4667 4.2322 11.3107 4.72661 11.0508 5.10633C10.795 5.47998 10.39 5.80488 9.87778 5.80488C9.36558 5.80488 8.96056 5.47998 8.70473 5.10633C8.44484 4.72661 8.28889 4.2322 8.28889 3.73952C8.28893 3.23866 8.45099 2.8009 8.74592 2.48476C9.04089 2.16861 9.44544 2 9.87778 2C10.3102 2 10.7153 2.16855 11.0102 2.48476C11.305 2.80089 11.4666 3.23884 11.4667 3.73952Z" fill="#787878"/>
</svg>
