<svg viewBox="0 0 15 15" fill="none" xmlns="http://www.w3.org/2000/svg">
<path d="M3.99843 0V0.000976562C4.48143 -0.00220632 4.94949 0.169336 5.31581 0.484375C5.63756 0.761177 5.86184 1.13186 5.95839 1.54199L5.9916 1.7207L5.99257 1.72656C6.07033 2.3161 6.21451 2.89498 6.42226 3.45215C6.55679 3.81005 6.58598 4.1993 6.50624 4.57324C6.42649 4.94721 6.24093 5.29061 5.97206 5.5625L5.97011 5.56543L5.49257 6.04199C6.27637 7.27176 7.31956 8.31467 8.54921 9.09863L9.02675 8.62207L9.02968 8.62012C9.30157 8.35125 9.64497 8.16569 10.0189 8.08594C10.392 8.00639 10.7799 8.03522 11.1371 8.16895H11.1381C11.5564 8.32503 11.9871 8.44512 12.4252 8.52832L12.8656 8.59961L12.8715 8.60059C13.3572 8.66912 13.8014 8.9138 14.1185 9.28809C14.4318 9.658 14.5991 10.129 14.5912 10.6133L14.5922 12.6113L14.5814 12.8193C14.5606 13.0261 14.5078 13.2287 14.4242 13.4199C14.3126 13.6751 14.149 13.9045 13.9437 14.0928C13.7386 14.281 13.4965 14.4244 13.2328 14.5137C12.969 14.6029 12.6889 14.6364 12.4115 14.6113L12.3998 14.6104V14.6094C10.2448 14.3752 8.17462 13.6394 6.35585 12.46V12.459C4.66639 11.3843 3.23315 9.95224 2.15859 8.2627C0.975082 6.43568 0.239048 4.35511 0.0091741 2.19043L0.00819754 2.18066C-0.0167795 1.90427 0.0153758 1.62532 0.103901 1.3623C0.192517 1.0992 0.335681 0.857397 0.522846 0.652344C0.710041 0.447276 0.937805 0.283086 1.19179 0.170898C1.44562 0.0588019 1.71998 0.000316122 1.99746 0H3.99843ZM1.86171 1.34863C1.81687 1.35813 1.77302 1.37203 1.73085 1.39062C1.6462 1.42802 1.56962 1.48243 1.50722 1.55078C1.44482 1.61914 1.39711 1.70037 1.36757 1.78809C1.33847 1.87475 1.3275 1.96655 1.33535 2.05762C1.53098 3.88917 2.12837 5.65339 3.08242 7.22559L3.27773 7.53809L3.28164 7.54297C4.19206 8.97561 5.38726 10.2043 6.79238 11.1523L7.07558 11.3379L7.08144 11.3408C8.72264 12.4051 10.5902 13.0695 12.5346 13.2822C12.626 13.2901 12.7181 13.2803 12.8051 13.251C12.893 13.2212 12.974 13.1731 13.0424 13.1104C13.1108 13.0476 13.1653 12.9708 13.2025 12.8857C13.2396 12.8008 13.2586 12.7089 13.2582 12.6162V10.5977C13.2623 10.4342 13.2067 10.2742 13.101 10.1494C12.9953 10.0247 12.8468 9.94374 12.685 9.9209V9.91895C11.9973 9.82775 11.3221 9.66047 10.6723 9.41797H10.6703C10.5512 9.37321 10.4218 9.36316 10.2973 9.38965C10.1738 9.41598 10.0593 9.47622 9.96914 9.56445L9.12343 10.4121C8.91125 10.6242 8.5835 10.6678 8.32265 10.5195C6.54931 9.51118 5.081 8.04288 4.07265 6.26953C3.92441 6.00869 3.96794 5.68092 4.18007 5.46875L5.02675 4.62207C5.11498 4.53186 5.1762 4.41838 5.20253 4.29492C5.22902 4.17042 5.21898 4.04103 5.17421 3.92188V3.91992C4.93157 3.26966 4.76243 2.59428 4.67128 1.90625C4.64851 1.74653 4.56893 1.6004 4.44667 1.49512C4.32407 1.38968 4.16696 1.33245 4.00527 1.33398H1.99941L1.86171 1.34863Z" fill="#519C2C"/>
</svg>
