<svg viewBox="0 0 16 16" fill="none" xmlns="http://www.w3.org/2000/svg">
<g clip-path="url(#clip0_1130_15665)">
<path d="M14.25 8C14.25 4.54822 11.4518 1.75 8 1.75C4.54822 1.75 1.75 4.54822 1.75 8C1.75 11.4518 4.54822 14.25 8 14.25C11.4518 14.25 14.25 11.4518 14.25 8ZM9.34961 7.01953C9.34956 6.73461 9.3011 6.57912 9.2627 6.50098C9.22849 6.43137 9.19241 6.40057 9.15723 6.37988C9.04645 6.31486 8.87707 6.2998 8.59961 6.2998H7.34961V7.74023H8.59961C8.87706 7.74023 9.04645 7.72517 9.15723 7.66016C9.19241 7.63947 9.22849 7.60865 9.2627 7.53906C9.30112 7.46087 9.34961 7.30475 9.34961 7.01953ZM15.75 8C15.75 12.2802 12.2802 15.75 8 15.75C3.71979 15.75 0.25 12.2802 0.25 8C0.25 3.71979 3.71979 0.25 8 0.25C12.2802 0.25 15.75 3.71979 15.75 8ZM10.8496 7.01953C10.8496 7.94387 10.5185 8.59994 9.91797 8.95312C9.40364 9.2555 8.82177 9.24023 8.59961 9.24023H7.34961V10.4502C7.3495 10.8643 7.01376 11.2002 6.59961 11.2002C6.18564 11.2 5.84971 10.8642 5.84961 10.4502V5.5498C5.84972 5.13581 6.18564 4.80002 6.59961 4.7998H8.59961C8.82177 4.7998 9.40364 4.78454 9.91797 5.08691C10.5184 5.44005 10.8495 6.09545 10.8496 7.01953Z" fill="currentColor"/>
</g>
<defs>
<clipPath id="clip0_1130_15665">
<rect width="16" height="16" fill="none"/>
</clipPath>
</defs>
</svg>
