<svg viewBox="0 0 15 13" fill="none" xmlns="http://www.w3.org/2000/svg">
<path d="M13.3333 6.66667C13.3333 6.48986 13.263 6.32034 13.138 6.19531C13.013 6.07029 12.8435 6 12.6667 6H4V9.66667H13.3333V6.66667ZM1.33333 9.66667H2.66667V6H1.33333V9.66667ZM14.6667 12.3333C14.6667 12.7015 14.3682 13 14 13C13.6318 13 13.3333 12.7015 13.3333 12.3333V11H1.33333V12.3333C1.33333 12.7015 1.03486 13 0.666667 13C0.298477 13 0 12.7015 0 12.3333V0.666667C0 0.298477 0.298477 0 0.666667 0C1.03486 0 1.33333 0.298477 1.33333 0.666667V1.5V4.66667H7H12.6667C13.1971 4.66667 13.7057 4.87753 14.0807 5.2526C14.4558 5.62768 14.6667 6.13623 14.6667 6.66667V12.3333Z" fill="#222222"/>
</svg>
