<svg viewBox="0 0 16 16" fill="none" xmlns="http://www.w3.org/2000/svg">
<path d="M8 3.3366V4.72784C8 5.0776 8.4725 5.24859 8.74375 4.99988L11.185 2.8314C11.36 2.67596 11.36 2.43501 11.185 2.27957L8.74375 0.111095C8.68207 0.0573864 8.60386 0.0210981 8.519 0.00680399C8.43414 -0.00749018 8.34641 0.000849409 8.26687 0.0307717C8.18733 0.0606939 8.11955 0.11086 8.07206 0.174947C8.02456 0.239034 7.99949 0.314174 8 0.390898V1.78214C4.1325 1.78214 1 4.56463 1 7.99998C1 8.8083 1.175 9.58553 1.49875 10.2928C1.735 10.8136 2.4875 10.9535 2.93375 10.5571C3.17 10.3472 3.26625 10.0286 3.135 9.74875C2.88125 9.21246 2.75 8.614 2.75 7.99998C2.75 5.42735 5.10375 3.3366 8 3.3366ZM13.0663 5.4429C12.83 5.65275 12.7337 5.97919 12.865 6.25122C13.11 6.79528 13.25 7.38597 13.25 7.99998C13.25 10.5726 10.8962 12.6634 8 12.6634V11.2721C8 10.9224 7.5275 10.7514 7.25625 11.0001L4.815 13.1686C4.64 13.324 4.64 13.565 4.815 13.7204L7.25625 15.8889C7.3174 15.9421 7.3948 15.9783 7.47886 15.9928C7.56292 16.0074 7.64993 15.9997 7.72912 15.9707C7.80831 15.9418 7.87619 15.8928 7.92434 15.8299C7.97249 15.767 7.9988 15.6929 8 15.6168V14.2178C11.8675 14.2178 15 11.4353 15 7.99998C15 7.19166 14.825 6.41443 14.5013 5.70715C14.265 5.18641 13.5125 5.04651 13.0663 5.4429Z" fill="#222222"/>
</svg>
