<svg viewBox="0 0 16 16" fill="none" xmlns="http://www.w3.org/2000/svg">
<path fill-rule="evenodd" clip-rule="evenodd" d="M2.88053 3.275C2.88053 3.69272 3.03322 4.09332 3.30501 4.38869C3.57681 4.68406 3.94544 4.85 4.32981 4.85H10.127C10.4834 4.84999 10.8274 4.70719 11.0931 4.44892C11.3588 4.19064 11.5276 3.83501 11.5672 3.45H11.9885C12.1166 3.45 12.2395 3.50531 12.3301 3.60377C12.4207 3.70223 12.4716 3.83576 12.4716 3.975V5.375C12.4716 5.51424 12.4207 5.64777 12.3301 5.74623C12.2395 5.84469 12.1166 5.9 11.9885 5.9H8.19458C7.8102 5.9 7.44157 6.06594 7.16978 6.36131C6.89798 6.65668 6.74529 7.05728 6.74529 7.475V8.4396C6.46266 8.54819 6.21796 8.74936 6.04492 9.01539C5.87188 9.28142 5.77901 9.59922 5.7791 9.925V13.425C5.7791 13.8427 5.93179 14.2433 6.20359 14.5387C6.47538 14.8341 6.84401 15 7.22838 15C7.61276 15 7.98139 14.8341 8.25319 14.5387C8.52498 14.2433 8.67767 13.8427 8.67767 13.425V9.925C8.67776 9.59922 8.58489 9.28142 8.41185 9.01539C8.23881 8.74936 7.99411 8.54819 7.71148 8.4396V7.475C7.71148 7.33576 7.76238 7.20223 7.85298 7.10377C7.94357 7.00531 8.06645 6.95 8.19458 6.95H11.9885C12.3729 6.95 12.7415 6.78406 13.0133 6.48869C13.2851 6.19332 13.4378 5.79272 13.4378 5.375V3.975C13.4378 3.55741 13.2852 3.1569 13.0135 2.86155C12.7419 2.5662 12.3734 2.40019 11.9891 2.4H11.5672C11.5276 2.01487 11.3587 1.65914 11.0929 1.40085C10.827 1.14256 10.4829 0.99984 10.1263 1H4.32917C3.94479 1 3.57616 1.16594 3.30437 1.46131C3.03257 1.75668 2.87988 2.15728 2.87988 2.575L2.88053 3.275ZM4.32981 3.8C4.20169 3.8 4.07881 3.74469 3.98821 3.64623C3.89761 3.54777 3.84672 3.41424 3.84672 3.275V2.575C3.84672 2.43576 3.89761 2.30223 3.98821 2.20377C4.07881 2.10531 4.20169 2.05 4.32981 2.05H10.127C10.2551 2.05 10.378 2.10531 10.4686 2.20377C10.5592 2.30223 10.6101 2.43576 10.6101 2.575V3.275C10.6101 3.41424 10.5592 3.54777 10.4686 3.64623C10.378 3.74469 10.2551 3.8 10.127 3.8H4.32981ZM6.74529 9.925C6.74529 9.78576 6.79619 9.65223 6.88679 9.55377C6.97738 9.45531 7.10026 9.4 7.22838 9.4C7.35651 9.4 7.47939 9.45531 7.56999 9.55377C7.66058 9.65223 7.71148 9.78576 7.71148 9.925V13.425C7.71148 13.5642 7.66058 13.6978 7.56999 13.7962C7.47939 13.8947 7.35651 13.95 7.22838 13.95C7.10026 13.95 6.97738 13.8947 6.88679 13.7962C6.79619 13.6978 6.74529 13.5642 6.74529 13.425V9.925Z" fill="#787878"/>
</svg>
