<svg width="24" height="24" viewBox="0 0 24 24" fill="none" xmlns="http://www.w3.org/2000/svg">
<path d="M2.99976 21.0322V4.28536C2.99979 3.99385 3.13573 3.71807 3.36955 3.53433C5.03003 2.23108 6.66032 1.86807 8.24715 2.03984C9.75628 2.2032 11.1802 2.85088 12.4203 3.40706C13.7257 3.99246 14.8478 4.48592 15.975 4.60794C17.0243 4.72145 18.1214 4.51379 19.3695 3.53433C19.669 3.29933 20.0814 3.25172 20.4294 3.4121C20.7775 3.57262 20.9997 3.91221 20.9998 4.28536V15.7007C20.9996 15.9921 20.8638 16.2681 20.63 16.4517C18.9695 17.755 17.3392 18.118 15.7524 17.9462C14.2432 17.7829 12.8194 17.1339 11.5792 16.5777C10.274 15.9924 9.15164 15.5001 8.0245 15.3781C7.07982 15.2759 6.09726 15.4347 4.99976 16.1821V21.0322C4.99976 21.5667 4.55204 22 3.99976 22C3.44747 22 2.99976 21.5667 2.99976 21.0322ZM8.0245 3.96277C7.07992 3.86059 6.09712 4.01958 4.99976 4.76672V13.9529C6.09913 13.4646 7.1828 13.3387 8.24715 13.4539C9.75629 13.6173 11.1802 14.2662 12.4203 14.8224C13.7256 15.4078 14.8478 15.9013 15.975 16.0233C16.9197 16.1255 17.9022 15.9654 18.9998 15.2181V6.03061C17.9001 6.51925 16.817 6.64612 15.7524 6.53087C14.2432 6.36751 12.8194 5.71983 11.5792 5.16365C10.2739 4.57826 9.15172 4.08479 8.0245 3.96277Z" fill="#222222"/>
</svg>
