<svg viewBox="0 0 56 56" fill="none" xmlns="http://www.w3.org/2000/svg">
<path d="M24.1497 39.6667L37.333 26.4834L33.9497 23.1L24.0913 32.9584L19.1913 28.0584L15.8663 31.3834L24.1497 39.6667ZM15.1663 46.6667C11.6275 46.6667 8.60423 45.4417 6.09667 42.9917C3.58912 40.5417 2.33456 37.5473 2.33301 34.0084C2.33301 30.975 3.2469 28.2723 5.07467 25.9C6.90245 23.5278 9.29412 22.0112 12.2497 21.35C13.2219 17.7723 15.1663 14.875 18.083 12.6584C20.9997 10.4417 24.3052 9.33337 27.9997 9.33337C32.5497 9.33337 36.4098 10.9185 39.58 14.0887C42.7502 17.2589 44.3346 21.1183 44.333 25.6667C47.0163 25.9778 49.2431 27.1352 51.0133 29.1387C52.7836 31.1423 53.6679 33.4849 53.6663 36.1667C53.6663 39.0834 52.6459 41.5629 50.605 43.6054C48.5641 45.6478 46.0846 46.6683 43.1663 46.6667H15.1663Z" fill="#519C2C"/>
</svg>
