<svg viewBox="0 0 12 14" fill="none" xmlns="http://www.w3.org/2000/svg">
<path d="M10.2075 13.3333C9.7105 13.3333 9.28875 13.1617 8.94225 12.8185C8.59625 12.4748 8.42325 12.0575 8.42325 11.5667C8.42325 11.4926 8.45625 11.3057 8.52225 11.0059L3.1245 7.84074C2.9625 8.02543 2.76425 8.17037 2.52975 8.27555C2.29525 8.38074 2.0435 8.43333 1.7745 8.43333C1.2815 8.43333 0.8625 8.26 0.5175 7.91333C0.1725 7.56667 0 7.15111 0 6.66667C0 6.18222 0.1725 5.76667 0.5175 5.42C0.8625 5.07333 1.2815 4.9 1.7745 4.9C2.043 4.9 2.29475 4.95259 2.52975 5.05778C2.76475 5.16296 2.963 5.30815 3.1245 5.49333L8.523 2.34148C8.488 2.24568 8.46275 2.15062 8.44725 2.0563C8.43125 1.96148 8.42325 1.86469 8.42325 1.76593C8.42325 1.27556 8.5975 0.858518 8.946 0.514815C9.2945 0.171605 9.7175 0 10.215 0C10.7125 0 11.1345 0.172099 11.481 0.516296C11.8275 0.860494 12.0005 1.27827 12 1.76963C11.9995 2.26099 11.8257 2.67778 11.4787 3.02C11.1317 3.36222 10.7092 3.53309 10.2112 3.53259C9.94025 3.53259 9.69025 3.47778 9.46125 3.36815C9.23225 3.25852 9.03725 3.11111 8.87625 2.92593L3.477 6.09111C3.512 6.18691 3.53725 6.28222 3.55275 6.37704C3.56875 6.47136 3.57675 6.5679 3.57675 6.66667C3.57675 6.76543 3.56875 6.86197 3.55275 6.9563C3.53675 7.05062 3.51175 7.14593 3.47775 7.24222L8.87625 10.4074C9.03775 10.2222 9.23275 10.0748 9.46125 9.96518C9.69025 9.85555 9.94025 9.80074 10.2112 9.80074C10.7082 9.80074 11.1307 9.97259 11.4787 10.3163C11.8262 10.661 12 11.079 12 11.5704C12 12.0617 11.8257 12.4785 11.4772 12.8207C11.1287 13.163 10.705 13.3338 10.2075 13.3333Z" fill="#222222"/>
</svg>
