<svg width="16" height="16" viewBox="0 0 16 16" fill="currentColor" xmlns="http://www.w3.org/2000/svg">
<path d="M12.667 5.99992H3.33366V12.6666L3.33691 12.7323C3.35204 12.885 3.41954 13.0285 3.52897 13.1379C3.654 13.263 3.82351 13.3333 4.00033 13.3333H12.0003C12.1771 13.3333 12.3467 13.263 12.4717 13.1379C12.5967 13.0129 12.667 12.8434 12.667 12.6666V5.99992ZM9.33366 7.33325C9.70185 7.33325 10.0003 7.63173 10.0003 7.99992C10.0003 8.36811 9.70185 8.66659 9.33366 8.66659H6.66699C6.2988 8.66659 6.00033 8.36811 6.00033 7.99992C6.00033 7.63173 6.2988 7.33325 6.66699 7.33325H9.33366ZM2.00033 2.66659V4.66659H14.0003V2.66659H2.00033ZM15.3337 4.66659C15.3337 5.40297 14.7367 5.99992 14.0003 5.99992V12.6666C14.0003 13.197 13.7895 13.7056 13.4144 14.0806C13.0393 14.4557 12.5308 14.6666 12.0003 14.6666H4.00033C3.46989 14.6666 2.96134 14.4557 2.58626 14.0806C2.21119 13.7056 2.00033 13.197 2.00033 12.6666V5.99992C1.26395 5.99992 0.666992 5.40297 0.666992 4.66659V2.66659C0.666992 1.93021 1.26395 1.33325 2.00033 1.33325H14.0003C14.7367 1.33325 15.3337 1.93021 15.3337 2.66659V4.66659Z" fill="currentColor"/>
</svg>
