<svg viewBox="0 0 16 16" fill="none" xmlns="http://www.w3.org/2000/svg">
<path d="M12 9.87869L13 10.8787V7.5H12V9.87869ZM13.75 7.5H14.75V11.25H13.75V7.5ZM11.3578 3.56422C11.0758 3.89515 10.909 4.30888 10.8828 4.74294C10.8566 5.17699 10.9723 5.60778 11.2126 5.97025L11.3991 6.25H12.6009L12.0447 5.41563C11.9248 5.23477 11.867 5.01981 11.8801 4.80322C11.8932 4.58663 11.9764 4.38018 12.1172 4.21506C12.4082 3.87662 12.5771 3.45024 12.5968 3.00433C12.6165 2.55842 12.4859 2.11881 12.2259 1.756L12.043 1.5H10.9L10.8431 1.54062L11.4121 2.33719C11.5418 2.51823 11.607 2.73759 11.5972 2.96009C11.5873 3.18259 11.503 3.39534 11.3578 3.56422ZM13.6078 3.56422C13.3258 3.89515 13.159 4.30888 13.1328 4.74294C13.1066 5.17699 13.2223 5.60778 13.4626 5.97025L13.6491 6.25H14.8509L14.2947 5.41563C14.1748 5.23477 14.117 5.01981 14.1301 4.80322C14.1432 4.58663 14.2264 4.38018 14.3672 4.21506C14.6582 3.87662 14.8271 3.45024 14.8468 3.00433C14.8665 2.55842 14.7359 2.11881 14.4759 1.756L14.293 1.5H13.15L13.0931 1.54062L13.6621 2.33719C13.7918 2.51823 13.857 2.73759 13.8472 2.96009C13.8373 3.18259 13.753 3.39534 13.6078 3.56422ZM8.20709 7.5L1.20709 0.5H0.5V1.20709L6.79291 7.5H0.5V11.25H10.5429L14.7929 15.5H15.5V14.7929L8.20709 7.5ZM1.5 10.25V8.5H7.79291L9.54291 10.25H1.5Z" fill="#787878"/>
</svg>
