<svg viewBox="0 0 16 16" fill="none" xmlns="http://www.w3.org/2000/svg">
<path d="M0.978516 13.5026V10.9149C0.978516 10.6268 1.21211 10.3932 1.50025 10.3932C1.7884 10.3932 2.02199 10.6268 2.02199 10.9149V11.688H3.94794C4.09346 11.689 4.23648 11.6499 4.36031 11.5746C4.48328 11.4997 4.58203 11.392 4.64699 11.2648L5.3508 9.85241L2.31479 8.34019L2.31343 8.33951C1.74243 8.05297 1.30777 7.55227 1.10555 6.94684C0.90336 6.34146 0.949991 5.6809 1.23531 5.10989L2.13205 3.30554L2.13341 3.3035C2.27606 3.02022 2.47314 2.76742 2.71357 2.56029C2.95396 2.35322 3.23282 2.19523 3.53422 2.09562C3.83557 1.99604 4.15377 1.95664 4.47036 1.97945C4.78676 2.00229 5.09561 2.08779 5.37933 2.22945L12.1327 5.59358C12.2568 5.65539 12.3511 5.76442 12.395 5.89589C12.4388 6.02744 12.4287 6.17144 12.3664 6.29535L11.9337 7.15744H14.5003C14.6812 7.15744 14.8495 7.25073 14.9445 7.40472C15.0396 7.55875 15.0475 7.75115 14.9663 7.91288L12.6918 12.4428C12.6099 12.6058 12.4485 12.7143 12.2666 12.7288C12.0845 12.7431 11.9077 12.6617 11.8012 12.5134L10.2958 10.417L9.76656 11.472C9.63753 11.7289 9.32484 11.8332 9.06751 11.705L6.2849 10.3184L5.5811 11.7308L5.57974 11.7335C5.42673 12.0359 5.19201 12.2896 4.90243 12.4659C4.61395 12.6414 4.28222 12.7324 3.94455 12.7308L2.02199 12.7315V13.5026C2.02199 13.7907 1.7884 14.0243 1.50025 14.0243C1.21211 14.0243 0.978516 13.7907 0.978516 13.5026ZM10.8243 9.36464L12.1456 11.2036L13.6545 8.20092H11.4092L10.8243 9.36464ZM4.39564 3.02021C4.21503 3.00718 4.03345 3.03002 3.86167 3.08679C3.69002 3.14353 3.53153 3.23344 3.39496 3.35106C3.2584 3.4687 3.14631 3.61184 3.06547 3.77225L2.16941 5.57524C2.00774 5.89868 1.98098 6.27334 2.09536 6.616C2.20972 6.9584 2.45554 7.24284 2.78015 7.40608L9.06683 10.5386L11.1986 6.29399L4.91466 3.16288C4.75299 3.08208 4.57621 3.03326 4.39564 3.02021ZM4.75705 5.21587C5.0451 5.21587 5.27864 5.44958 5.27879 5.7376C5.27879 6.02575 5.0452 6.25934 4.75705 6.25934H4.75025C4.46211 6.25934 4.22852 6.02575 4.22852 5.7376C4.22867 5.44958 4.4622 5.21587 4.75025 5.21587H4.75705Z" fill="currentColor"/>
<path d="M1.87207 10.9146C1.87189 10.7094 1.70519 10.5435 1.5 10.5435C1.29493 10.5436 1.12909 10.7095 1.12891 10.9146V13.5025C1.12891 13.7077 1.29481 13.8744 1.5 13.8745C1.70531 13.8745 1.87207 13.7078 1.87207 13.5025V12.732C1.87207 12.6493 1.93887 12.5818 2.02148 12.5816L3.94434 12.5806C4.25457 12.582 4.55975 12.4983 4.82422 12.3374C5.08994 12.1757 5.30592 11.943 5.44629 11.6655L5.44727 11.6636L6.15039 10.2515C6.1873 10.1774 6.27746 10.1473 6.35156 10.1841L9.13476 11.5708C9.31798 11.6619 9.5409 11.5878 9.63281 11.4048L10.1621 10.3501L10.1836 10.3179C10.209 10.2891 10.2449 10.2702 10.2842 10.2671C10.3364 10.2631 10.3874 10.287 10.418 10.3296L11.9229 12.4263C11.9985 12.5315 12.1249 12.5899 12.2549 12.5796C12.3845 12.5693 12.4993 12.4915 12.5576 12.3755L14.832 7.84524C14.8899 7.7298 14.8838 7.59332 14.8164 7.48391C14.7489 7.3745 14.6293 7.30715 14.5 7.30715H11.9336C11.8816 7.30712 11.833 7.28012 11.8057 7.23586C11.7786 7.19168 11.7766 7.13669 11.7998 7.09035L12.2324 6.22805L12.2588 6.15969C12.2781 6.08922 12.2764 6.01335 12.2529 5.94289C12.2216 5.84916 12.1535 5.77194 12.0654 5.72805L5.3125 2.36379C5.04622 2.23084 4.75639 2.15087 4.45996 2.12942C4.16289 2.10801 3.86373 2.1444 3.58105 2.23782C3.2984 2.33125 3.03701 2.48011 2.81152 2.67434C2.58628 2.86842 2.40136 3.10509 2.26758 3.37063L2.26562 3.3716L1.37012 5.17629L1.36914 5.17727C1.10184 5.71249 1.05861 6.33153 1.24805 6.89895C1.43766 7.46663 1.84521 7.93679 2.38086 8.20559L5.41797 9.71828C5.45344 9.73605 5.48056 9.76757 5.49316 9.8052C5.50564 9.84281 5.50303 9.88398 5.48535 9.91946L4.78125 11.3316L4.78027 11.3325C4.70295 11.484 4.58556 11.6131 4.43848 11.7027C4.29087 11.7925 4.12073 11.8383 3.94824 11.8374L2.02246 11.8384C1.93962 11.8384 1.87207 11.7709 1.87207 11.688V10.9146ZM13.6543 8.05129C13.7063 8.05129 13.7549 8.07829 13.7822 8.12258C13.8094 8.16682 13.8114 8.2217 13.7881 8.26809L12.2793 11.271C12.2557 11.3178 12.2095 11.3489 12.1572 11.353C12.105 11.3571 12.054 11.3341 12.0234 11.2915L10.7021 9.45168C10.6699 9.40641 10.6655 9.34708 10.6904 9.29739L11.2754 8.13332L11.2988 8.09914C11.3268 8.0688 11.3667 8.0513 11.4092 8.05129H13.6543ZM10.999 9.35012L12.123 10.9146L13.4111 8.3511H11.501L10.999 9.35012ZM4.40625 2.87063C4.6065 2.88509 4.80241 2.93938 4.98144 3.02883L11.2656 6.15969C11.3013 6.17747 11.3282 6.20881 11.3408 6.2466C11.3534 6.28425 11.3507 6.32535 11.333 6.36086L9.20117 10.606C9.16407 10.6798 9.07398 10.7092 9 10.6724L2.71289 7.54055C2.35293 7.35953 2.08006 7.04358 1.95312 6.6636C1.82623 6.28346 1.85489 5.86831 2.03418 5.5093L2.03516 5.50637L2.93164 3.70461C3.02134 3.52665 3.14568 3.36813 3.29687 3.23782C3.44822 3.10747 3.62419 3.00778 3.81445 2.94485C4.00466 2.88199 4.20598 2.85619 4.40625 2.87063ZM4.38477 3.16946C4.22409 3.15787 4.06231 3.17849 3.90918 3.22903C3.75639 3.27954 3.61482 3.35969 3.49316 3.46438C3.37171 3.56901 3.27108 3.69612 3.19922 3.8384L2.30371 5.64211L2.30273 5.64309L2.25488 5.75246C2.15531 6.01321 2.14817 6.30184 2.2373 6.56887C2.33913 6.87353 2.5585 7.12658 2.84766 7.272L8.99902 10.3364L10.9971 6.36086L4.84766 3.29739C4.70341 3.2253 4.54561 3.18107 4.38477 3.16946ZM5.12891 5.73782C5.1288 5.5325 4.96197 5.36574 4.75684 5.36574H4.75C4.54498 5.36588 4.37901 5.53258 4.37891 5.73782C4.37902 5.94294 4.54488 6.10877 4.75 6.10891H4.75684C4.96207 6.10891 5.12879 5.94302 5.12891 5.73782ZM2.17187 11.5376H3.94922C4.06712 11.5384 4.18267 11.5073 4.28223 11.4468C4.38062 11.3869 4.46011 11.3002 4.5127 11.1978L5.14941 9.91946L2.24805 8.47414H2.24609C1.63988 8.16987 1.17771 7.63769 0.962891 6.99465C0.748176 6.35178 0.7978 5.64993 1.10059 5.04348L1.99805 3.23879L1.99902 3.23586C2.15044 2.93517 2.35994 2.6668 2.61523 2.4468C2.8705 2.22691 3.16721 2.05942 3.4873 1.95364C3.80732 1.84789 4.14533 1.8054 4.48145 1.82961C4.81755 1.85391 5.14534 1.94498 5.44629 2.09524L12.1992 5.45949C12.359 5.53913 12.4807 5.67924 12.5371 5.84817C12.5935 6.01735 12.5802 6.2031 12.5 6.36282L12.1768 7.00735H14.5C14.7037 7.00735 14.8957 7.09922 15.0225 7.25539L15.0723 7.32571L15.1133 7.40285C15.1956 7.58596 15.1918 7.79823 15.1006 7.98L12.8262 12.5103C12.7207 12.7203 12.5124 12.8598 12.2783 12.8784C12.0445 12.8969 11.8171 12.7922 11.6797 12.6011L10.3184 10.7056L9.90039 11.5396C9.73426 11.87 9.33219 12.0042 9.00098 11.8394L6.35156 10.5191L5.71582 11.7974L5.71484 11.7984L5.71387 11.8003C5.54822 12.1277 5.29392 12.4035 4.98047 12.5943C4.66816 12.7843 4.30922 12.881 3.94434 12.8794L2.17187 12.8804V13.5025C2.17187 13.8735 1.87099 14.1743 1.5 14.1743C1.12913 14.1742 0.828125 13.8734 0.828125 13.5025V10.9146C0.828309 10.5438 1.12924 10.2428 1.5 10.2427C1.87088 10.2427 2.17169 10.5437 2.17187 10.9146V11.5376ZM5.42871 5.73782C5.4286 6.10871 5.12776 6.40969 4.75684 6.40969H4.75C4.3792 6.40955 4.07824 6.10862 4.07812 5.73782C4.07832 5.36718 4.37914 5.06608 4.75 5.06594H4.75684C5.12781 5.06594 5.42852 5.36709 5.42871 5.73782Z" fill="currentColor"/>
</svg>
