<svg viewBox="0 0 16 16" fill="currentColor" xmlns="http://www.w3.org/2000/svg">
<g clip-path="url(#clip0_1130_15643)">
<path d="M14.6144 3.61551C14.6144 3.02592 14.5831 2.60019 14.5143 2.28676C14.4472 1.98114 14.3543 1.82743 14.2628 1.73597C14.1714 1.64457 14.0182 1.55152 13.7129 1.48446C13.3995 1.41565 12.9738 1.38441 12.3842 1.3844H3.61478C3.02522 1.3844 2.59945 1.41569 2.28603 1.48446C1.98041 1.55156 1.8267 1.6445 1.73523 1.73597C1.64377 1.82743 1.55083 1.98114 1.48373 2.28676C1.41496 2.60018 1.38366 3.02596 1.38366 3.61551V12.3849C1.38368 12.9745 1.41491 13.4003 1.48373 13.7137C1.55079 14.019 1.64384 14.1721 1.73523 14.2635C1.8267 14.355 1.98041 14.4479 2.28603 14.5151C2.59945 14.5838 3.02519 14.6151 3.61478 14.6151H12.3842C12.9738 14.6151 13.3995 14.5839 13.7129 14.5151C14.0184 14.448 14.1714 14.355 14.2628 14.2635C14.3542 14.1721 14.4472 14.0191 14.5143 13.7137C14.5831 13.4003 14.6144 12.9745 14.6144 12.3849V3.61551ZM11.6919 13.1223V13.1151C11.692 12.7329 12.0019 12.4228 12.3842 12.4228C12.7663 12.4229 13.0763 12.733 13.0765 13.1151V13.1223C13.0763 13.5044 12.7663 13.8145 12.3842 13.8146C12.0019 13.8146 11.692 13.5045 11.6919 13.1223ZM6.53731 12.4228C6.91957 12.4228 7.22947 12.7329 7.22963 13.1151C7.22963 13.4974 6.91967 13.8074 6.53731 13.8074H3.61478C3.23242 13.8074 2.92246 13.4974 2.92246 13.1151C2.92262 12.7329 3.23252 12.4228 3.61478 12.4228H6.53731ZM15.999 12.3849C15.999 13.0044 15.9678 13.5489 15.8665 14.0102C15.7635 14.4795 15.5788 14.9056 15.2418 15.2425C14.9048 15.5795 14.4787 15.7642 14.0095 15.8672C13.5482 15.9685 13.0037 15.9997 12.3842 15.9998H3.61478C2.99511 15.9998 2.44995 15.9686 1.98854 15.8672C1.51941 15.7642 1.09315 15.5794 0.756249 15.2425C0.419385 14.9056 0.234554 14.4794 0.131538 14.0102C0.0302596 13.5489 -0.000966399 13.0044 -0.000976562 12.3849V3.61551C-0.000976562 2.99584 0.0302279 2.45068 0.131538 1.98928C0.234578 1.52011 0.419337 1.09389 0.756249 0.756982C1.09316 0.420069 1.51938 0.23531 1.98854 0.13227C2.44995 0.0309604 2.99511 -0.000244141 3.61478 -0.000244141H12.3842C13.0037 -0.000233977 13.5482 0.030992 14.0095 0.13227C14.4787 0.235286 14.9049 0.420117 15.2418 0.756982C15.5787 1.09388 15.7635 1.52014 15.8665 1.98928C15.9678 2.45068 15.999 2.99584 15.999 3.61551V12.3849Z" stroke="currentColor"/>
<path d="M10.2297 6.53864C10.2297 5.3067 9.23138 4.30769 7.99947 4.30753C6.76743 4.30753 5.76836 5.3066 5.76836 6.53864C5.76853 7.77055 6.76753 8.76885 7.99947 8.76885C9.23128 8.76869 10.2295 7.77045 10.2297 6.53864ZM11.6143 6.53864C11.6142 8.53516 9.996 10.1533 7.99947 10.1535C6.00281 10.1535 4.38388 8.53526 4.38372 6.53864C4.38372 4.54188 6.00271 2.92289 7.99947 2.92289C9.9961 2.92305 11.6143 4.54198 11.6143 6.53864Z" stroke="currentColor"/>
<path d="M7.30655 10.1926V9.09638C7.30655 8.71412 7.61665 8.40422 7.99887 8.40406C8.38123 8.40406 8.69119 8.71402 8.69119 9.09638V10.1926C8.69103 10.5748 8.38113 10.8849 7.99887 10.8849C7.61675 10.8847 7.30672 10.5747 7.30655 10.1926ZM5.44143 5.84572C5.82369 5.84572 6.13359 6.15582 6.13375 6.53804C6.13375 6.9204 5.82379 7.23036 5.44143 7.23036H4.34526C3.9629 7.23036 3.65294 6.9204 3.65294 6.53804C3.6531 6.15582 3.963 5.84572 4.34526 5.84572H5.44143ZM11.6534 5.84572C12.0355 5.84588 12.3455 6.15592 12.3457 6.53804C12.3457 6.9203 12.0356 7.2302 11.6534 7.23036H10.5572C10.1749 7.23036 9.86489 6.9204 9.86489 6.53804C9.86506 6.15582 10.175 5.84572 10.5572 5.84572H11.6534ZM7.30655 3.9806V2.88443C7.30655 2.50217 7.61665 2.19227 7.99887 2.1921C8.38123 2.1921 8.69119 2.50207 8.69119 2.88443V3.9806C8.69119 4.36296 8.38123 4.67292 7.99887 4.67292C7.61665 4.67276 7.30655 4.36286 7.30655 3.9806Z" stroke="currentColor"/>
</g>
<defs>
<clipPath id="clip0_1130_15643">
<rect width="16" height="16" fill="currentColor"/>
</clipPath>
</defs>
</svg>
