<svg width="16" height="16" viewBox="0 0 16 16" fill="none" xmlns="http://www.w3.org/2000/svg">
<path d="M9.15835 4.53906C9.26916 4.64781 9.41936 4.70889 9.57596 4.70889C9.73256 4.70889 9.88276 4.64781 9.99357 4.53906L10.5609 3.98159V11.8713C10.5609 12.0253 10.6231 12.173 10.734 12.2819C10.8448 12.3908 10.9951 12.452 11.1518 12.452C11.3086 12.452 11.4589 12.3908 11.5697 12.2819C11.6805 12.173 11.7428 12.0253 11.7428 11.8713V3.98159L12.3101 4.53906C12.3642 4.59611 12.4295 4.64187 12.5019 4.67361C12.5744 4.70535 12.6527 4.72242 12.732 4.72379C12.8114 4.72517 12.8902 4.71082 12.9638 4.68162C13.0374 4.65241 13.1042 4.60894 13.1603 4.5538C13.2164 4.49866 13.2607 4.43298 13.2904 4.36067C13.3201 4.28836 13.3347 4.21091 13.3333 4.13294C13.3319 4.05497 13.3146 3.97808 13.2823 3.90685C13.25 3.83562 13.2034 3.77151 13.1453 3.71835L11.5694 2.16983C11.4586 2.06108 11.3084 2 11.1518 2C10.9952 2 10.845 2.06108 10.7342 2.16983L9.15835 3.71835C9.04769 3.82723 8.98553 3.97482 8.98553 4.1287C8.98553 4.28259 9.04769 4.43018 9.15835 4.53906ZM5.43928 12.0184L6.00659 11.4609C6.0607 11.4039 6.12594 11.3581 6.19843 11.3264C6.27092 11.2946 6.34917 11.2776 6.42852 11.2762C6.50787 11.2748 6.58668 11.2892 6.66027 11.3184C6.73385 11.3476 6.80069 11.3911 6.85681 11.4462C6.91293 11.5013 6.95717 11.567 6.98689 11.6393C7.01661 11.7116 7.03121 11.7891 7.02981 11.8671C7.02841 11.945 7.01104 12.0219 6.97874 12.0932C6.94644 12.1644 6.89987 12.2285 6.84181 12.2817L5.26593 13.8302C5.15513 13.9389 5.00493 14 4.84832 14C4.69172 14 4.54152 13.9389 4.43071 13.8302L2.85484 12.2817C2.79677 12.2285 2.75021 12.1644 2.71791 12.0932C2.68561 12.0219 2.66824 11.945 2.66684 11.8671C2.66544 11.7891 2.68004 11.7116 2.70976 11.6393C2.73948 11.567 2.78372 11.5013 2.83983 11.4462C2.89595 11.3911 2.96279 11.3476 3.03638 11.3184C3.10996 11.2892 3.18878 11.2748 3.26813 11.2762C3.34748 11.2776 3.42573 11.2946 3.49822 11.3264C3.57071 11.3581 3.63595 11.4039 3.69005 11.4609L4.25737 12.0184V4.1287C4.25737 3.97469 4.31963 3.82699 4.43045 3.71809C4.54128 3.60919 4.69159 3.54801 4.84832 3.54801C5.00505 3.54801 5.15537 3.60919 5.26619 3.71809C5.37702 3.82699 5.43928 3.97469 5.43928 4.1287V12.0184Z" fill="#222222"/>
</svg>
