<svg viewBox="0 0 14 14" fill="none" xmlns="http://www.w3.org/2000/svg">
<path d="M4.64664 2.85414C4.60016 2.80771 4.56328 2.75256 4.53811 2.69186C4.51295 2.63116 4.5 2.5661 4.5 2.50039C4.5 2.43469 4.51295 2.36962 4.53811 2.30892C4.56328 2.24822 4.60016 2.19308 4.64664 2.14664L6.64664 0.146643C6.69308 0.100155 6.74822 0.0632756 6.80892 0.0381134C6.86962 0.0129513 6.93469 0 7.00039 0C7.0661 0 7.13116 0.0129513 7.19186 0.0381134C7.25256 0.0632756 7.30771 0.100155 7.35414 0.146643L9.35414 2.14664C9.44796 2.24046 9.50067 2.36771 9.50067 2.50039C9.50067 2.63308 9.44796 2.76032 9.35414 2.85414C9.26032 2.94796 9.13307 3.00067 9.00039 3.00067C8.86771 3.00067 8.74046 2.94796 8.64664 2.85414L7.50039 1.70727V5.00039C7.50039 5.133 7.44772 5.26018 7.35395 5.35395C7.26018 5.44771 7.133 5.50039 7.00039 5.50039C6.86779 5.50039 6.74061 5.44771 6.64684 5.35395C6.55307 5.26018 6.50039 5.133 6.50039 5.00039V1.70727L5.35414 2.85414C5.30771 2.90063 5.25256 2.93751 5.19186 2.96267C5.13116 2.98784 5.0661 3.00079 5.00039 3.00079C4.93469 3.00079 4.86962 2.98784 4.80892 2.96267C4.74822 2.93751 4.69308 2.90063 4.64664 2.85414ZM8.64664 11.1466L7.50039 12.2935V9.00039C7.50039 8.86778 7.44772 8.74061 7.35395 8.64684C7.26018 8.55307 7.133 8.50039 7.00039 8.50039C6.86779 8.50039 6.74061 8.55307 6.64684 8.64684C6.55307 8.74061 6.50039 8.86778 6.50039 9.00039V12.2935L5.35414 11.1466C5.26032 11.0528 5.13308 11.0001 5.00039 11.0001C4.86771 11.0001 4.74046 11.0528 4.64664 11.1466C4.55282 11.2405 4.50012 11.3677 4.50012 11.5004C4.50012 11.6331 4.55282 11.7603 4.64664 11.8541L6.64664 13.8541C6.69308 13.9006 6.74822 13.9375 6.80892 13.9627C6.86962 13.9878 6.93469 14.0008 7.00039 14.0008C7.0661 14.0008 7.13116 13.9878 7.19186 13.9627C7.25256 13.9375 7.30771 13.9006 7.35414 13.8541L9.35414 11.8541C9.44796 11.7603 9.50067 11.6331 9.50067 11.5004C9.50067 11.3677 9.44796 11.2405 9.35414 11.1466C9.26032 11.0528 9.13307 11.0001 9.00039 11.0001C8.86771 11.0001 8.74046 11.0528 8.64664 11.1466ZM13.8541 6.64664L11.8541 4.64664C11.7603 4.55282 11.6331 4.50012 11.5004 4.50012C11.3677 4.50012 11.2405 4.55282 11.1466 4.64664C11.0528 4.74046 11.0001 4.86771 11.0001 5.00039C11.0001 5.13308 11.0528 5.26032 11.1466 5.35414L12.2935 6.50039H9.00039C8.86778 6.50039 8.74061 6.55307 8.64684 6.64684C8.55307 6.74061 8.50039 6.86779 8.50039 7.00039C8.50039 7.133 8.55307 7.26018 8.64684 7.35395C8.74061 7.44772 8.86778 7.50039 9.00039 7.50039H12.2935L11.1466 8.64664C11.0528 8.74046 11.0001 8.86771 11.0001 9.00039C11.0001 9.13307 11.0528 9.26032 11.1466 9.35414C11.2405 9.44796 11.3677 9.50067 11.5004 9.50067C11.6331 9.50067 11.7603 9.44796 11.8541 9.35414L13.8541 7.35414C13.9006 7.30771 13.9375 7.25256 13.9627 7.19186C13.9878 7.13116 14.0008 7.0661 14.0008 7.00039C14.0008 6.93469 13.9878 6.86962 13.9627 6.80892C13.9375 6.74822 13.9006 6.69308 13.8541 6.64664ZM1.70727 7.50039H5.00039C5.133 7.50039 5.26018 7.44772 5.35395 7.35395C5.44771 7.26018 5.50039 7.133 5.50039 7.00039C5.50039 6.86779 5.44771 6.74061 5.35395 6.64684C5.26018 6.55307 5.133 6.50039 5.00039 6.50039H1.70727L2.85414 5.35414C2.94796 5.26032 3.00067 5.13308 3.00067 5.00039C3.00067 4.86771 2.94796 4.74046 2.85414 4.64664C2.76032 4.55282 2.63308 4.50012 2.50039 4.50012C2.36771 4.50012 2.24046 4.55282 2.14664 4.64664L0.146643 6.64664C0.100155 6.69308 0.0632756 6.74822 0.0381134 6.80892C0.0129513 6.86962 0 6.93469 0 7.00039C0 7.0661 0.0129513 7.13116 0.0381134 7.19186C0.0632756 7.25256 0.100155 7.30771 0.146643 7.35414L2.14664 9.35414C2.24046 9.44796 2.36771 9.50067 2.50039 9.50067C2.63308 9.50067 2.76032 9.44796 2.85414 9.35414C2.94796 9.26032 3.00067 9.13307 3.00067 9.00039C3.00067 8.86771 2.94796 8.74046 2.85414 8.64664L1.70727 7.50039Z" fill="#222222"/>
</svg>
