<svg viewBox="0 0 16 16" fill="none" xmlns="http://www.w3.org/2000/svg">
<path d="M3.74996 2.40112C3.55106 2.40112 3.36031 2.47485 3.21966 2.6061C3.07902 2.73734 3.00001 2.91534 3.00001 3.10095V3.5675C3.00001 3.75311 2.92099 3.93111 2.78035 4.06236C2.6397 4.1936 2.44895 4.26733 2.25005 4.26733C2.05115 4.26733 1.86039 4.1936 1.71975 4.06236C1.5791 3.93111 1.50009 3.75311 1.50009 3.5675V3.10095C1.50009 2.54413 1.73713 2.01012 2.15906 1.61639C2.581 1.22266 3.15326 1.00146 3.74996 1.00146C4.34667 1.00146 4.91893 1.22266 5.34086 1.61639C5.76279 2.01012 5.99983 2.54413 5.99983 3.10095V5.66699H10.9995V3.10095C10.9995 2.91534 10.9205 2.73734 10.7799 2.6061C10.6392 2.47485 10.4485 2.40112 10.2496 2.40112C10.0507 2.40112 9.85993 2.47485 9.71929 2.6061C9.57865 2.73734 9.49963 2.91534 9.49963 3.10095V3.5675C9.49963 3.75311 9.42062 3.93111 9.27997 4.06236C9.13933 4.1936 8.94858 4.26733 8.74968 4.26733C8.55078 4.26733 8.36002 4.1936 8.21938 4.06236C8.07873 3.93111 7.99972 3.75311 7.99972 3.5675V3.10095C7.99972 2.54413 8.23676 2.01012 8.65869 1.61639C9.08062 1.22266 9.65289 1.00146 10.2496 1.00146C10.8463 1.00146 11.4186 1.22266 11.8405 1.61639C12.2624 2.01012 12.4995 2.54413 12.4995 3.10095V9.66161C12.0147 9.80533 11.5081 9.87466 10.9995 9.86689V7.06665H5.99983V8.21343C5.50934 8.09422 5.00642 8.02508 4.49992 8.00722V3.10095C4.49992 2.91534 4.42091 2.73734 4.28026 2.6061C4.13962 2.47485 3.94886 2.40112 3.74996 2.40112ZM3.81296 10.3577C3.23137 10.4138 2.67565 10.611 2.20105 10.9297C2.04127 11.0403 1.84094 11.0872 1.64413 11.06C1.44732 11.0328 1.27016 10.9337 1.15161 10.7846C1.03307 10.6355 0.98285 10.4486 1.01201 10.2649C1.04117 10.0813 1.14732 9.91593 1.3071 9.80531C1.99405 9.33997 2.79985 9.05103 3.64397 8.96738C4.7869 8.84608 6.21582 9.05043 7.87773 9.94901C10.8106 11.5372 13.1804 10.4893 13.8744 10.1095C14.046 10.0156 14.2505 9.98912 14.443 10.0359C14.6355 10.0827 14.8002 10.199 14.9008 10.3591C15.0015 10.5192 15.0298 10.7101 14.9797 10.8897C14.9295 11.0693 14.8049 11.223 14.6333 11.3169C13.7184 11.818 10.7286 13.1104 7.12377 11.1602C5.71385 10.3969 4.60691 10.2737 3.81296 10.3577ZM3.81296 13.157C3.23137 13.2131 2.67565 13.4103 2.20105 13.729C2.04127 13.8396 1.84094 13.8865 1.64413 13.8593C1.44732 13.8321 1.27016 13.733 1.15161 13.5839C1.03307 13.4348 0.98285 13.2479 1.01201 13.0642C1.04117 12.8806 1.14732 12.7152 1.3071 12.6046C1.99405 12.1393 2.79985 11.8503 3.64397 11.7667C4.7869 11.6454 6.21582 11.8497 7.87773 12.7483C10.8106 14.3365 13.1804 13.2886 13.8744 12.9088C14.046 12.8149 14.2505 12.7884 14.443 12.8352C14.6355 12.8821 14.8002 12.9983 14.9008 13.1584C15.0015 13.3185 15.0298 13.5094 14.9797 13.689C14.9295 13.8687 14.8049 14.0223 14.6333 14.1163C13.7184 14.6173 10.7286 15.9097 7.12377 13.9595C5.71385 13.1962 4.60691 13.073 3.81296 13.157Z" fill="currentColor"/>
</svg>
