<svg width="24" height="24" viewBox="0 0 24 24" fill="none" xmlns="http://www.w3.org/2000/svg">
<path d="M2.91008 12.0001C2.91008 11.8312 2.8713 11.6629 2.79582 11.506C2.72024 11.3489 2.60858 11.2049 2.46477 11.087L0.917895 9.8214C0.599402 9.5606 0.4737 9.13099 0.600512 8.73937C1.11246 7.15951 1.98842 5.71333 3.16008 4.50695L3.26653 4.41222C3.52817 4.21025 3.87605 4.14888 4.19524 4.25597L6.11418 4.90051C6.29911 4.96269 6.49815 4.98636 6.69524 4.96886C6.8921 4.95133 7.0807 4.89317 7.24797 4.8009C7.41529 4.70857 7.55631 4.58458 7.66301 4.44054C7.76924 4.29711 7.83922 4.13626 7.872 3.96984L8.24407 2.05871L8.28313 1.91613C8.3974 1.59301 8.67199 1.34692 9.0136 1.27258C10.5792 0.931873 12.2008 0.911004 13.7734 1.2091L14.0878 1.27258L14.2294 1.31457C14.5495 1.43579 14.7892 1.71513 14.8564 2.05773L15.2304 3.96789V3.96886C15.2631 4.13569 15.3339 4.29679 15.4404 4.44054C15.5471 4.58458 15.6881 4.70857 15.8554 4.8009C16.0227 4.89317 16.2113 4.95133 16.4081 4.96886C16.6052 4.98636 16.8043 4.96269 16.9892 4.90051L18.9062 4.25597L19.0448 4.21984C19.3699 4.16027 19.7077 4.26552 19.9423 4.50695C21.1143 5.71317 21.9906 7.15947 22.5029 8.73937C22.6297 9.13098 22.504 9.56059 22.1855 9.8214L20.6386 11.087C20.4946 11.205 20.3822 11.3488 20.3066 11.506C20.231 11.663 20.1933 11.8321 20.1933 12.0011C20.1933 12.1699 20.2311 12.3384 20.3066 12.4952C20.3821 12.6521 20.4941 12.7954 20.6376 12.9132L22.1845 14.1788C22.5032 14.4396 22.6297 14.8691 22.5029 15.2609C21.9906 16.8408 21.1143 18.2871 19.9423 19.4933C19.6742 19.7692 19.2709 19.8667 18.9062 19.7443L16.9882 19.0997H16.9872C16.8024 19.0376 16.6041 19.0139 16.4072 19.0314C16.2103 19.0489 16.0217 19.1071 15.8544 19.1993C15.6871 19.2917 15.5461 19.4157 15.4394 19.5597C15.3329 19.7035 15.2621 19.8645 15.2294 20.0314L14.8593 21.9405C14.7831 22.3328 14.4802 22.6427 14.0898 22.7277C12.4197 23.0911 10.6856 23.0911 9.01555 22.7277C8.62579 22.6428 8.32371 22.334 8.247 21.9425L7.87297 20.0323V20.0314C7.84029 19.8645 7.76948 19.7034 7.66301 19.5597C7.5563 19.4156 7.41529 19.2917 7.24797 19.1993C7.0807 19.1071 6.8921 19.0489 6.69524 19.0314C6.49815 19.0139 6.29911 19.0375 6.11418 19.0997L4.19719 19.7443C3.83241 19.8668 3.42924 19.7693 3.16106 19.4933C1.98902 18.2871 1.11281 16.8408 0.600512 15.2609C0.473701 14.8692 0.599397 14.4396 0.917895 14.1788L2.46477 12.9132C2.60858 12.7953 2.72024 12.6513 2.79582 12.4943C2.8713 12.3373 2.91008 12.169 2.91008 12.0001ZM14.04 12.0001C14.04 11.3966 13.789 10.8077 13.3271 10.3663C12.8636 9.92373 12.2258 9.66711 11.5517 9.66711C10.8776 9.66711 10.2398 9.92373 9.77629 10.3663C9.31432 10.8077 9.0634 11.3966 9.0634 12.0001C9.0634 12.6037 9.31432 13.1926 9.77629 13.6339C10.2398 14.0765 10.8776 14.3331 11.5517 14.3331C12.2258 14.3331 12.8636 14.0765 13.3271 13.6339C13.789 13.1926 14.04 12.6037 14.04 12.0001ZM4.91008 12.0001C4.91008 12.4717 4.80303 12.9364 4.59856 13.3614C4.39407 13.7864 4.09744 14.1609 3.73235 14.4601H3.73137L2.73723 15.2736C3.08853 16.1264 3.57409 16.9245 4.18059 17.6398L5.47747 17.2042C5.92536 17.0536 6.4011 16.9974 6.872 17.0392C7.34276 17.081 7.80039 17.2203 8.21379 17.4484C8.62749 17.6766 8.98853 17.9901 9.26946 18.3693C9.55052 18.7486 9.74523 19.1844 9.83586 19.6476H9.83489L10.0781 20.8868C11.0548 21.0334 12.0486 21.0332 13.0253 20.8868L13.2665 19.6495V19.6476C13.3571 19.1846 13.551 18.7486 13.832 18.3693C14.1128 17.9901 14.474 17.6766 14.8876 17.4484C15.3012 17.2202 15.7594 17.081 16.2304 17.0392C16.7013 16.9974 17.177 17.0536 17.6249 17.2042L18.9218 17.6398C19.5284 16.9245 20.0138 16.1264 20.3652 15.2736L19.372 14.4611C19.0066 14.1618 18.7095 13.7876 18.5048 13.3624C18.3002 12.9373 18.1933 12.4728 18.1933 12.0011C18.1933 11.5292 18.3001 11.0641 18.5048 10.6388C18.7095 10.2136 19.0066 9.83938 19.372 9.54015L20.3652 8.7257C20.0137 7.87289 19.5284 7.07468 18.9218 6.35949L17.6259 6.79601C17.178 6.94658 16.7023 7.00285 16.2314 6.96105C15.7606 6.91922 15.303 6.77991 14.8896 6.55187C14.4759 6.3236 14.1148 6.01015 13.8339 5.63097C13.5528 5.2516 13.3581 4.81581 13.2675 4.35265V4.35168L13.0243 3.11242C12.0477 2.966 11.0537 2.96603 10.0771 3.11242L9.83586 4.35168V4.35265C9.74523 4.81581 9.55052 5.2516 9.26946 5.63097C8.98853 6.01015 8.62749 6.3236 8.21379 6.55187C7.80039 6.77991 7.34276 6.91922 6.872 6.96105C6.45986 6.99764 6.04398 6.95882 5.64641 6.84777L5.47747 6.79601L4.17961 6.35949C3.57338 7.07469 3.08835 7.87303 2.73723 8.7257L3.73137 9.54015H3.73235C4.09744 9.83938 4.39407 10.2138 4.59856 10.6388C4.80303 11.0639 4.91008 11.5285 4.91008 12.0001ZM16.04 12.0001C16.04 13.1643 15.5553 14.2716 14.7089 15.0802C13.8641 15.8871 12.7276 16.3331 11.5517 16.3331C10.3758 16.3331 9.23929 15.8871 8.39446 15.0802C7.54803 14.2716 7.0634 13.1643 7.0634 12.0001C7.0634 10.8359 7.54803 9.72868 8.39446 8.92004C9.23929 8.11308 10.3758 7.66711 11.5517 7.66711C12.7276 7.66711 13.8641 8.11308 14.7089 8.92004C15.5553 9.72868 16.04 10.8359 16.04 12.0001Z" fill="#222222"/>
</svg>
