<svg viewBox="0 0 16 16" fill="currentColor" xmlns="http://www.w3.org/2000/svg">
<path d="M5.63349 1.44343C5.89215 1.27258 6.24354 1.30085 6.47139 1.52839L9.13838 4.19539C9.39867 4.45568 9.39856 4.87741 9.13838 5.13777C8.87803 5.39812 8.45634 5.39812 8.19599 5.13777L5.99971 2.94246L4.27607 4.66609L6.47139 6.86238C6.73173 7.12273 6.73173 7.54441 6.47139 7.80476C6.21102 8.06495 5.7893 8.06506 5.529 7.80476L2.86201 5.13777C2.60204 4.87745 2.60193 4.45564 2.86201 4.19539L5.529 1.52839L5.63349 1.44343Z" stroke="currentColor"/>
<path d="M10.861 6.86177C11.1213 6.60169 11.5431 6.6018 11.8034 6.86177L14.4704 9.52876C14.7307 9.78905 14.7306 10.2108 14.4704 10.4711L11.8034 13.1381C11.5431 13.3983 11.1213 13.3984 10.861 13.1381L8.19404 10.4711C7.93407 10.2108 7.93396 9.78901 8.19404 9.52876C8.45439 9.26841 8.87705 9.26841 9.1374 9.52876L11.3317 11.7241L13.0563 9.99946L10.861 7.80513C10.6007 7.54478 10.6007 7.12212 10.861 6.86177Z" stroke="currentColor"/>
<path d="M8.96675 3.44341C9.22555 3.2723 9.57771 3.30046 9.80561 3.52837L12.4716 6.19536C12.732 6.45571 12.732 6.87739 12.4716 7.13774L8.47163 11.1377C8.21128 11.3981 7.7896 11.3981 7.52925 11.1377L4.86225 8.47173C4.6019 8.21138 4.6019 7.78872 4.86225 7.52837L8.86225 3.52837L8.96675 3.44341ZM6.27632 8.00005L7.99995 9.72368L11.0576 6.66606L9.33393 4.94243L6.27632 8.00005Z" stroke="currentColor"/>
<path d="M12.1943 2.86177C12.4546 2.60142 12.8773 2.60142 13.1376 2.86177C13.398 3.12212 13.398 3.54478 13.1376 3.80513L11.1376 5.80513C10.8773 6.06547 10.4546 6.06547 10.1943 5.80513C9.93394 5.54478 9.93394 5.12212 10.1943 4.86177L12.1943 2.86177Z" stroke="currentColor"/>
<path d="M5.33301 14C5.33301 13.1159 4.98254 12.2677 4.35742 11.6426C3.7323 11.0175 2.88406 10.667 2 10.667C1.63181 10.667 1.33301 10.3682 1.33301 10C1.33301 9.63181 1.63181 9.33301 2 9.33301C3.23768 9.33301 4.42463 9.82503 5.2998 10.7002C6.17497 11.5754 6.66699 12.7623 6.66699 14C6.66699 14.3682 6.36819 14.667 6 14.667C5.63181 14.667 5.33301 14.3682 5.33301 14Z" stroke="currentColor"/>
</svg>
