<svg viewBox="0 0 16 16" fill="none" xmlns="http://www.w3.org/2000/svg">
<path d="M11.2799 4.06021H13.5806C13.7197 4.06035 13.8538 4.11382 13.957 4.21027C14.0601 4.30671 14.125 4.43926 14.1389 4.58224L14.4815 8.12042H13.3514L13.0706 5.22027H11.2799V6.96036C11.2799 7.11419 11.2207 7.26172 11.1154 7.3705C11.0101 7.47928 10.8672 7.54039 10.7182 7.54039C10.5693 7.54039 10.4264 7.47928 10.3211 7.3705C10.2157 7.26172 10.1566 7.11419 10.1566 6.96036V5.22027H5.66313V6.96036C5.66313 7.11419 5.60396 7.26172 5.49862 7.3705C5.39329 7.47928 5.25042 7.54039 5.10145 7.54039C4.95249 7.54039 4.80962 7.47928 4.70429 7.3705C4.59895 7.26172 4.53978 7.11419 4.53978 6.96036V5.22027H2.74802L1.84933 14.5007H7.90985V15.6608H1.22812C1.14967 15.6607 1.0721 15.6437 1.00042 15.6108C0.928739 15.5778 0.864531 15.5298 0.811933 15.4697C0.759335 15.4096 0.719514 15.3387 0.695035 15.2618C0.670556 15.1848 0.661963 15.1034 0.669808 15.0228L1.68083 4.58224C1.69474 4.43926 1.75955 4.30671 1.8627 4.21027C1.96585 4.11382 2.09999 4.06035 2.23914 4.06021H4.53978V3.65535C4.53978 1.6438 6.04058 0 7.90985 0C9.77912 0 11.2799 1.6438 11.2799 3.65535V4.06137V4.06021ZM10.1566 4.06021V3.65535C10.1566 2.27024 9.1433 1.16006 7.90985 1.16006C6.6764 1.16006 5.66313 2.27024 5.66313 3.65535V4.06137H10.1566V4.06021ZM13.6918 12.6911C13.743 12.6335 13.805 12.5872 13.874 12.555C13.943 12.5228 14.0176 12.5053 14.0933 12.5037C14.169 12.502 14.2442 12.5161 14.3145 12.5453C14.3848 12.5744 14.4486 12.6179 14.5022 12.6731C14.5558 12.7284 14.598 12.7942 14.6263 12.8668C14.6546 12.9393 14.6684 13.017 14.6669 13.0952C14.6654 13.1733 14.6486 13.2504 14.6175 13.3217C14.5864 13.393 14.5417 13.4571 14.486 13.5101L12.2393 15.8302C12.1339 15.9389 11.9911 16 11.8422 16C11.6932 16 11.5504 15.9389 11.4451 15.8302L9.19834 13.5101C9.14469 13.4565 9.1019 13.3925 9.07247 13.3218C9.04303 13.251 9.02754 13.1749 9.02689 13.0979C9.02624 13.0209 9.04045 12.9445 9.06869 12.8732C9.09693 12.8019 9.13864 12.7372 9.19138 12.6827C9.24412 12.6282 9.30683 12.5852 9.37586 12.556C9.44489 12.5268 9.51885 12.5122 9.59342 12.5128C9.668 12.5135 9.74171 12.5295 9.81024 12.5599C9.87876 12.5903 9.94074 12.6345 9.99255 12.6899L11.2799 14.0205V9.86051C11.2799 9.70667 11.3391 9.55914 11.4444 9.45036C11.5498 9.34159 11.6926 9.28048 11.8416 9.28048C11.9906 9.28048 12.1334 9.34159 12.2388 9.45036C12.3441 9.55914 12.4033 9.70667 12.4033 9.86051V14.0205L13.6918 12.6899V12.6911Z" fill="#222222"/>
</svg>
