<svg viewBox="0 0 24 24" fill="none" xmlns="http://www.w3.org/2000/svg">
<path d="M19.167 5.99902C19.1669 5.95511 19.1491 5.91296 19.1182 5.88184C19.0869 5.85058 19.0442 5.83301 19 5.83301C16.7339 5.83301 14.0606 4.52071 12.2188 2.91309L12.1699 2.87891C12.1186 2.84886 12.0602 2.83203 12 2.83203C11.9198 2.83203 11.8422 2.861 11.7812 2.91309C10.0646 4.41025 7.59897 5.66619 5.42969 5.81738L5 5.83301C4.9558 5.83301 4.91309 5.85058 4.88184 5.88184C4.85085 5.91296 4.83313 5.95511 4.83301 5.99902V12.999C4.83301 15.279 5.62118 16.9465 6.86719 18.2227C7.97726 19.3596 9.47975 20.2146 11.1943 20.8789L11.9424 21.1514L11.9609 21.1582C11.9959 21.1712 12.0338 21.1715 12.0693 21.1602C14.0881 20.4561 15.8657 19.5237 17.1328 18.2236C18.3781 16.946 19.167 15.2789 19.167 12.999V5.99902ZM20.833 12.999C20.833 15.7191 19.8719 17.8028 18.3271 19.3877C16.8051 20.9493 14.7538 21.9906 12.6143 22.7363L12.6074 22.7383C12.2145 22.8714 11.7885 22.867 11.3984 22.7266V22.7275C9.25317 21.9867 7.19861 20.9474 5.6748 19.3867C4.12835 17.8029 3.16699 15.719 3.16699 12.999V5.99902C3.16711 5.51295 3.36039 5.04684 3.7041 4.70312C4.0479 4.35945 4.51388 4.16602 5 4.16602L5.33105 4.15332C7.01674 4.03002 9.14578 3.00239 10.6914 1.65234L10.6982 1.64551C11.061 1.33559 11.5229 1.16602 12 1.16602C12.4175 1.16602 12.8232 1.29585 13.1611 1.53613L13.3018 1.64551L13.3086 1.65234C14.9665 3.10177 17.2691 4.16602 19 4.16602C19.4861 4.16602 19.9521 4.35945 20.2959 4.70312C20.6396 5.04684 20.8329 5.51296 20.833 5.99902V12.999Z" fill="currentColor"/>
</svg>
