<svg width="16" height="16" viewBox="0 0 16 16" fill="none" xmlns="http://www.w3.org/2000/svg">
<path d="M13.6667 11.15H2.33333V13.6H13.6667V11.15ZM10 7.65C10 7.09305 9.78913 6.55906 9.41406 6.16523C9.08593 5.8207 8.65567 5.60804 8.19792 5.56025L8 5.55C7.46957 5.55 6.96101 5.77141 6.58594 6.16523C6.21087 6.55906 6 7.09305 6 7.65C6 8.0366 5.70152 8.35 5.33333 8.35C4.96514 8.35 4.66667 8.0366 4.66667 7.65C4.66667 6.72174 5.01811 5.83177 5.64323 5.17539C6.26835 4.51901 7.11595 4.15 8 4.15L8.16536 4.1541C8.98922 4.19703 9.77073 4.56005 10.3568 5.17539C10.9819 5.83177 11.3333 6.72174 11.3333 7.65C11.3333 8.0366 11.0349 8.35 10.6667 8.35C10.2985 8.35 10 8.0366 10 7.65ZM3.52865 2.60508C3.789 2.33171 4.211 2.33171 4.47135 2.60508L4.94271 3.1C5.20304 3.37337 5.20305 3.81648 4.94271 4.08984C4.68237 4.3632 4.26035 4.36319 4 4.08984L3.52865 3.59492C3.2683 3.32155 3.2683 2.87845 3.52865 2.60508ZM11.3333 2.60508C11.5937 2.33172 12.0157 2.33171 12.276 2.60508C12.5364 2.87844 12.5364 3.32156 12.276 3.59492L11.8047 4.08984C11.5443 4.3632 11.1223 4.3632 10.862 4.08984C10.6016 3.81648 10.6016 3.37337 10.862 3.1L11.3333 2.60508ZM7.33333 2.4V1.7C7.33333 1.3134 7.63181 1 8 1C8.36819 1 8.66667 1.3134 8.66667 1.7V2.4C8.66667 2.7866 8.36819 3.1 8 3.1C7.63181 3.1 7.33333 2.7866 7.33333 2.4ZM15 13.6C15 13.9713 14.8594 14.3273 14.6094 14.5898C14.3593 14.8524 14.0203 15 13.6667 15H2.33333C1.97971 15 1.64067 14.8524 1.39062 14.5898C1.14058 14.3273 1 13.9713 1 13.6V8C1 7.6134 1.29848 7.3 1.66667 7.3C2.03486 7.3 2.33333 7.6134 2.33333 8V9.75H13.6667V8C13.6667 7.6134 13.9651 7.3 14.3333 7.3C14.7015 7.3 15 7.6134 15 8V13.6Z" fill="#787878"/>
</svg>
