<svg viewBox="0 0 16 16" fill="currentColor" xmlns="http://www.w3.org/2000/svg">
<path d="M14.001 5.99946C14.0008 5.63142 13.7021 5.33345 13.334 5.33345H2.66699C2.29906 5.33362 2.00115 5.63153 2.00098 5.99946V13.3334C2.00115 13.7014 2.29906 13.9993 2.66699 13.9995H13.334C13.7021 13.9995 14.0008 13.7015 14.001 13.3334V5.99946ZM15.334 13.3334C15.3338 14.4379 14.4384 15.3334 13.334 15.3334H2.66699C1.56268 15.3333 0.667168 14.4378 0.666992 13.3334V5.99946C0.667168 4.89515 1.56268 3.99964 2.66699 3.99946H6.38965L4.19434 1.80513C3.93399 1.54478 3.93399 1.12212 4.19434 0.861766C4.45469 0.601417 4.87735 0.601417 5.1377 0.861766L7.99902 3.72407L10.8613 0.861766C11.1216 0.601687 11.5434 0.601796 11.8037 0.861766C12.0641 1.12212 12.0641 1.54478 11.8037 1.80513L9.60938 3.99946H13.334C14.4384 3.99946 15.3338 4.89504 15.334 5.99946V13.3334Z" stroke="currentColor"/>
</svg>
