<svg viewBox="0 0 16 16" fill="none" xmlns="http://www.w3.org/2000/svg">
<path d="M14.002 5.99946C14.0018 5.63142 13.703 5.33345 13.335 5.33345H2.66797C2.30004 5.33362 2.00213 5.63153 2.00195 5.99946V13.3334C2.00213 13.7014 2.30004 13.9993 2.66797 13.9995H13.335C13.703 13.9995 14.0018 13.7015 14.002 13.3334V5.99946ZM15.335 13.3334C15.3348 14.4379 14.4394 15.3334 13.335 15.3334H2.66797C1.56366 15.3333 0.668144 14.4378 0.667969 13.3334V5.99946C0.668145 4.89515 1.56366 3.99964 2.66797 3.99946H6.39062L4.19531 1.80513C3.93496 1.54478 3.93496 1.12212 4.19531 0.861766C4.45566 0.601417 4.87832 0.601417 5.13867 0.861766L8 3.72407L10.8623 0.861766C11.1226 0.601687 11.5444 0.601796 11.8047 0.861766C12.065 1.12212 12.065 1.54478 11.8047 1.80513L9.61035 3.99946H13.335C14.4394 3.99946 15.3348 4.89504 15.335 5.99946V13.3334Z" fill="currentColor"/>
</svg>
