<svg viewBox="0 0 16 16" fill="currentColor" xmlns="http://www.w3.org/2000/svg">
<path d="M4.73964 0.66626V0.667236C5.22264 0.664053 5.6907 0.835596 6.05703 1.15063C6.37877 1.42744 6.60306 1.79812 6.6996 2.20825L6.73281 2.38696L6.73378 2.39282C6.81154 2.98235 6.95573 3.56124 7.16347 4.11841C7.298 4.47631 7.32719 4.86556 7.24746 5.2395C7.1677 5.61347 6.98214 5.95687 6.71328 6.22876L6.71132 6.23169L6.23378 6.70825C7.01759 7.93802 8.06077 8.98093 9.29042 9.76489L9.76796 9.28833L9.77089 9.28638C10.0428 9.01751 10.3862 8.83195 10.7602 8.7522C11.1332 8.67265 11.5211 8.70148 11.8783 8.83521H11.8793C12.2976 8.99129 12.7283 9.11138 13.1664 9.19458L13.6068 9.26587L13.6127 9.26685C14.0985 9.33538 14.5426 9.58006 14.8598 9.95435C15.173 10.3243 15.3403 10.7952 15.3324 11.2795L15.3334 13.2776L15.3227 13.4856C15.3018 13.6924 15.249 13.895 15.1654 14.0862C15.0539 14.3414 14.8902 14.5708 14.685 14.759C14.4798 14.9472 14.2377 15.0907 13.974 15.1799C13.7102 15.2692 13.4301 15.3027 13.1527 15.2776L13.141 15.2766V15.2756C10.986 15.0415 8.91583 14.3056 7.09706 13.1262V13.1252C5.4076 12.0506 3.97436 10.6185 2.8998 8.92896C1.71629 7.10194 0.980259 5.02137 0.750385 2.85669L0.749408 2.84692C0.724431 2.57053 0.756587 2.29158 0.845112 2.02856C0.933727 1.76546 1.07689 1.52366 1.26406 1.3186C1.45125 1.11354 1.67902 0.949346 1.933 0.837158C2.18683 0.725062 2.46119 0.666576 2.73867 0.66626H4.73964ZM2.60292 2.01489C2.55808 2.02439 2.51423 2.03829 2.47206 2.05688C2.38741 2.09428 2.31083 2.14869 2.24843 2.21704C2.18603 2.2854 2.13833 2.36663 2.10878 2.45435C2.07968 2.54101 2.06871 2.63281 2.07656 2.72388C2.27219 4.55543 2.86958 6.31965 3.82363 7.89185L4.01894 8.20435L4.02285 8.20923C4.93327 9.64187 6.12847 10.8706 7.53359 11.8186L7.81679 12.0042L7.82265 12.0071C9.46385 13.0714 11.3314 13.7357 13.2758 13.9485C13.3672 13.9564 13.4593 13.9466 13.5463 13.9172C13.6342 13.8875 13.7152 13.8393 13.7836 13.7766C13.852 13.7139 13.9066 13.6371 13.9437 13.552C13.9808 13.467 13.9998 13.3752 13.9994 13.2825V11.2639C14.0035 11.1004 13.9479 10.9404 13.8422 10.8157C13.7365 10.691 13.588 10.61 13.4262 10.5872V10.5852C12.7386 10.494 12.0633 10.3267 11.4135 10.0842H11.4115C11.2924 10.0395 11.163 10.0294 11.0385 10.0559C10.915 10.0822 10.8006 10.1425 10.7103 10.2307L9.86464 11.0784C9.65246 11.2905 9.32471 11.334 9.06386 11.1858C7.29052 10.1774 5.82221 8.70914 4.81386 6.93579C4.66562 6.67495 4.70915 6.34718 4.92128 6.13501L5.76796 5.28833C5.85619 5.19812 5.91742 5.08464 5.94374 4.96118C5.97023 4.83668 5.96019 4.70729 5.91542 4.58813V4.58618C5.67279 3.93592 5.50365 3.26054 5.41249 2.57251C5.38972 2.41279 5.31014 2.26666 5.18788 2.16138C5.06529 2.05594 4.90817 1.99871 4.74648 2.00024H2.74062L2.60292 2.01489Z" stroke="currentColor" stroke-width="0.8" stroke-linecap="round" stroke-linejoin="round"/>
</svg>
