<svg viewBox="0 0 49 48" fill="currentColor" xmlns="http://www.w3.org/2000/svg">
<path d="M4.5 38.0001V30.0001C4.5 28.8955 5.39543 28.0001 6.5 28.0001C7.60457 28.0001 8.5 28.8955 8.5 30.0001V38.0001C8.5 38.5306 8.71086 39.0391 9.08594 39.4142C9.46101 39.7893 9.96957 40.0001 10.5 40.0001H38.5C39.0304 40.0001 39.539 39.7893 39.9141 39.4142C40.2891 39.0391 40.5 38.5305 40.5 38.0001V30.0001C40.5 28.8955 41.3954 28.0001 42.5 28.0001C43.6046 28.0001 44.5 28.8955 44.5 30.0001V38.0001C44.5 39.5914 43.8674 41.1171 42.7422 42.2423C41.617 43.3675 40.0913 44.0001 38.5 44.0001H10.5C8.9087 44.0001 7.38303 43.3675 6.25781 42.2423C5.13259 41.1171 4.5 39.5914 4.5 38.0001ZM22.5 30.0001V10.8282L15.9141 17.4142C15.133 18.1952 13.867 18.1952 13.0859 17.4142C12.3049 16.6331 12.3049 15.3671 13.0859 14.5861L23.0859 4.58605L23.2373 4.44836C24.0229 3.80757 25.1818 3.85379 25.9141 4.58605L35.9141 14.5861C36.6951 15.3671 36.6951 16.6331 35.9141 17.4142C35.133 18.1952 33.867 18.1952 33.0859 17.4142L26.5 10.8282V30.0001C26.5 31.1047 25.6046 32.0001 24.5 32.0001C23.3954 32.0001 22.5 31.1047 22.5 30.0001Z" fill="currentColor"/>
</svg>
