<svg viewBox="0 0 30 30" fill="none" xmlns="http://www.w3.org/2000/svg">
<path d="M17.3333 22.6667C17.3333 21.9594 17.0522 21.2813 16.5521 20.7813C16.052 20.2812 15.3739 20 14.6667 20C13.9594 20 13.2813 20.2812 12.7813 20.7813C12.2812 21.2813 12 21.9594 12 22.6667V26.6667H17.3333V22.6667ZM8 12H21.3333V5.33333H8V12ZM29.3333 25.3333C29.3333 26.3942 28.9116 27.4113 28.1615 28.1615C27.4113 28.9116 26.3942 29.3333 25.3333 29.3333H4C2.93913 29.3333 1.92202 28.9116 1.17188 28.1615C0.42173 27.4113 0 26.3942 0 25.3333V10.6667C0 9.93029 0.596954 9.33333 1.33333 9.33333C2.06971 9.33333 2.66667 9.93029 2.66667 10.6667V12H5.33333V1.33333C5.33333 0.596954 5.93029 0 6.66667 0C7.40305 0 8 0.596954 8 1.33333V2.66667H10.6667V1.33333C10.6667 0.596954 11.2636 0 12 0C12.7364 0 13.3333 0.596954 13.3333 1.33333V2.66667H16V1.33333C16 0.596954 16.597 0 17.3333 0C18.0697 0 18.6667 0.596954 18.6667 1.33333V2.66667H21.3333V1.33333C21.3333 0.596954 21.9303 0 22.6667 0C23.403 0 24 0.596954 24 1.33333V12H26.6667V10.6667C26.6667 9.93029 27.2636 9.33333 28 9.33333C28.7364 9.33333 29.3333 9.93029 29.3333 10.6667V25.3333ZM20 26.6667H25.3333C25.687 26.6667 26.026 26.5261 26.276 26.276C26.5261 26.026 26.6667 25.687 26.6667 25.3333V14.6667H2.66667V25.3333C2.66667 25.687 2.80724 26.026 3.05729 26.276C3.30734 26.5261 3.64638 26.6667 4 26.6667H9.33333V22.6667C9.33333 21.2522 9.89564 19.896 10.8958 18.8958C11.896 17.8956 13.2522 17.3333 14.6667 17.3333C16.0812 17.3333 17.4373 17.8956 18.4375 18.8958C19.4377 19.896 20 21.2522 20 22.6667V26.6667Z" fill="#519C2C"/>
</svg>
