<svg width="25" height="24" viewBox="0 0 25 24" fill="currentColor" xmlns="http://www.w3.org/2000/svg">
<path d="M22.5835 11V20C22.5835 20.5304 22.3728 21.0391 21.9977 21.4142C21.6226 21.7893 21.1139 22 20.5835 22H4.5835C4.05306 22 3.54436 21.7893 3.16928 21.4142C2.79421 21.0391 2.5835 20.5304 2.5835 20V11M22.5835 11H2.5835M22.5835 11V9M2.5835 11V9M18.5835 11V4M18.5835 4H6.5835M18.5835 4V2M6.5835 4V11M6.5835 4V2M15.5835 22V18C15.5835 17.2044 15.2674 16.4413 14.7048 15.8787C14.1422 15.3161 13.3791 15 12.5835 15C11.7878 15 11.0248 15.3161 10.4622 15.8787C9.89957 16.4413 9.5835 17.2044 9.5835 18V22M10.5835 4V2M14.5835 4V2" stroke="currentColor" stroke-width="2" stroke-linecap="round" stroke-linejoin="round"/>
</svg>
