<svg viewBox="0 0 24 24" fill="none" xmlns="http://www.w3.org/2000/svg">
<path d="M20.998 18.9996C20.998 18.8244 20.9519 18.6522 20.8644 18.5004L20.8621 18.4957L12.8617 4.49648L12.8605 4.49297C12.7733 4.33907 12.6466 4.21054 12.4937 4.12148C12.3409 4.03242 12.1667 3.98555 11.9898 3.98555C11.8132 3.98558 11.6397 4.03268 11.4871 4.12148C11.3343 4.21053 11.2075 4.3391 11.1203 4.49297L11.1179 4.49648L3.11873 18.4957L3.05779 18.6176C3.00755 18.739 2.98135 18.8697 2.98162 19.002C2.98201 19.1783 3.02989 19.3512 3.11873 19.5035C3.20755 19.6558 3.33462 19.782 3.48787 19.8691C3.64102 19.9562 3.81445 20.0019 3.9906 20.0004L3.99998 19.9992V20.0004H19.9984C20.1739 20.0002 20.3469 19.9535 20.4988 19.8656C20.6506 19.7778 20.7768 19.6508 20.8644 19.4988C20.9519 19.347 20.9981 19.1749 20.998 18.9996ZM12.0097 15.9996C12.562 15.9996 13.0105 16.4481 13.0105 17.0004C13.0102 17.5524 12.5618 18 12.0097 18H12.0004C11.4483 18 10.9999 17.5524 10.9996 17.0004C10.9996 16.4481 11.4481 15.9996 12.0004 15.9996H12.0097ZM10.9996 12.9996V9C10.9996 8.44771 11.4481 8.00039 12.0004 8.00039C12.5525 8.00059 13 8.44784 13 9V12.9996C13 13.5518 12.5525 14.0002 12.0004 14.0004C11.4481 14.0004 10.9996 13.5519 10.9996 12.9996ZM22.9984 18.9996C22.9985 19.5258 22.8593 20.0426 22.5965 20.4984C22.3335 20.9544 21.9552 21.333 21.4996 21.5965C21.044 21.86 20.527 21.9991 20.0008 21.9996H3.99998V21.9984C3.47434 22.0016 2.95709 21.8679 2.49998 21.6082C2.04016 21.3468 1.65671 20.9682 1.39021 20.5113C1.12385 20.0546 0.983584 19.5354 0.982399 19.0066C0.981227 18.4777 1.11988 17.9576 1.38435 17.4996L9.38123 3.50391C9.64276 3.04354 10.0218 2.66079 10.4793 2.39414C10.9377 2.12699 11.4592 1.98636 11.9898 1.98633C12.5205 1.98633 13.0418 2.12696 13.5004 2.39414C13.9579 2.66077 14.3368 3.04352 14.5984 3.50391L22.5965 17.4996L22.689 17.673C22.892 18.0847 22.9983 18.5389 22.9984 18.9996Z" fill="#A82727"/>
</svg>
