<svg width="16" height="16" viewBox="0 0 16 16" fill="currentColor" xmlns="http://www.w3.org/2000/svg">
<path d="M2 3.99992H4M11.3333 3.99992H11.34M8 11.9999C9.84095 11.9999 11.3333 10.5075 11.3333 8.66659C11.3333 6.82564 9.84095 5.33325 8 5.33325M8 11.9999C6.15905 11.9999 4.66667 10.5075 4.66667 8.66659C4.66667 6.82564 6.15905 5.33325 8 5.33325M8 11.9999C8.44203 11.9999 8.86595 11.8243 9.17851 11.5118C9.49107 11.1992 9.66667 10.7753 9.66667 10.3333C9.66667 9.89122 9.49107 9.4673 9.17851 9.15474C8.86595 8.84218 8.44203 8.66659 8 8.66659C7.55797 8.66659 7.13405 8.49099 6.82149 8.17843C6.50893 7.86587 6.33333 7.44195 6.33333 6.99992C6.33333 6.55789 6.50893 6.13397 6.82149 5.82141C7.13405 5.50885 7.55797 5.33325 8 5.33325M3.33333 1.33325H12.6667C13.403 1.33325 14 1.93021 14 2.66659V13.3333C14 14.0696 13.403 14.6666 12.6667 14.6666H3.33333C2.59695 14.6666 2 14.0696 2 13.3333V2.66659C2 1.93021 2.59695 1.33325 3.33333 1.33325Z" stroke="currentColor" stroke-width="1.33333" stroke-linecap="round" stroke-linejoin="round"/>
</svg>
