<svg viewBox="0 0 20 20" fill="none" xmlns="http://www.w3.org/2000/svg">
<path d="M9.96037 1.62368C5.36365 1.62368 1.62542 5.36037 1.62379 9.95332C1.62152 11.5217 2.0632 13.0587 2.89775 14.3866L3.09602 14.7018L2.25403 17.7755L5.40808 16.9486L5.71263 17.129C6.99178 17.8881 8.45843 18.2895 9.9541 18.2903H9.95723C14.5504 18.2903 18.2886 14.5532 18.2904 9.96C18.2939 8.86522 18.0801 7.78063 17.6616 6.76902C17.243 5.7574 16.6279 4.83886 15.8519 4.06657C15.0802 3.29006 14.1621 2.67431 13.1509 2.25499C12.1396 1.83567 11.0551 1.62109 9.96037 1.62368Z" fill="#25D366"/>
<path fill-rule="evenodd" clip-rule="evenodd" d="M7.49983 5.38271C7.31541 4.97781 7.12135 4.96961 6.94617 4.9626L6.47454 4.95691C6.31046 4.95691 6.04386 5.01776 5.81849 5.26114C5.59312 5.50453 4.95728 6.09277 4.95728 7.28921C4.95728 8.48565 5.83897 9.64174 5.96183 9.80418C6.08468 9.96662 7.66391 12.5001 10.1648 13.4749C12.2431 14.2849 12.666 14.1238 13.1173 14.0833C13.5686 14.0428 14.573 13.4951 14.7779 12.9272C14.9828 12.3594 14.983 11.8729 14.9215 11.7711C14.8601 11.6694 14.696 11.609 14.4498 11.4873C14.2035 11.3656 12.9941 10.7773 12.7686 10.6961C12.5431 10.6149 12.3791 10.5746 12.2149 10.8179C12.0507 11.0613 11.5797 11.6088 11.4361 11.7711C11.2925 11.9334 11.1492 11.9538 10.9029 11.8322C10.6567 11.7107 9.86439 11.4538 8.92435 10.6254C8.19295 9.98077 7.69924 9.18473 7.55551 8.94147C7.41177 8.69822 7.54025 8.56647 7.66364 8.4453C7.77406 8.33631 7.90963 8.16131 8.03289 8.01937C8.15615 7.87744 8.1967 7.77599 8.27861 7.61395C8.36051 7.45191 8.31969 7.30958 8.25813 7.18802C8.19657 7.06645 7.71852 5.86366 7.49983 5.38271Z" fill="white"/>
</svg>
