<svg viewBox="0 0 16 16" fill="currentColor" xmlns="http://www.w3.org/2000/svg">
<path d="M8.00653 12.6665C8.37464 12.6666 8.67254 12.9654 8.67254 13.3335C8.67246 13.7016 8.37459 14.0004 8.00653 14.0005H7.99969C7.63156 14.0005 7.33279 13.7016 7.3327 13.3335C7.3327 12.9653 7.6315 12.6665 7.99969 12.6665H8.00653ZM7.99872 9.3335C9.04573 9.3335 10.0518 9.74414 10.7995 10.4771C11.0621 10.7348 11.0659 11.1566 10.8083 11.4194C10.5506 11.6823 10.1288 11.6867 9.8659 11.4292C9.36742 10.9406 8.69672 10.6665 7.99872 10.6665C7.30083 10.6666 6.6309 10.9407 6.1325 11.4292C5.86956 11.6869 5.44686 11.6824 5.18915 11.4194C4.93176 11.1565 4.93627 10.7347 5.19891 10.4771C5.94655 9.74422 6.95182 9.33358 7.99872 9.3335ZM8.00067 6.00049C9.91993 6.00057 11.7628 6.75279 13.1335 8.09619C13.3964 8.35392 13.401 8.77661 13.1432 9.03955C12.8855 9.30247 12.4628 9.30607 12.1999 9.04834C11.0784 7.94934 9.57085 7.33358 8.00067 7.3335C6.43029 7.3335 4.92202 7.94916 3.80047 9.04834C3.53753 9.30607 3.11485 9.30249 2.85711 9.03955C2.59952 8.7766 2.60399 8.35388 2.86688 8.09619C4.23768 6.75262 6.08122 6.00049 8.00067 6.00049ZM8.00067 2.6665C10.6243 2.66658 13.1555 3.63426 15.111 5.3833C15.3855 5.62876 15.4092 6.05027 15.1638 6.32471C14.9183 6.59889 14.4967 6.62185 14.2223 6.37646C12.5113 4.84618 10.2962 4.00057 8.00067 4.00049C5.70494 4.00049 3.48918 4.84601 1.77801 6.37646C1.50361 6.6219 1.08208 6.59905 0.836606 6.32471C0.591168 6.0503 0.614977 5.62877 0.889341 5.3833C2.84498 3.63413 5.37691 2.6665 8.00067 2.6665Z" stroke="currentColor"/>
</svg>
